  0
SECTION
  2
HEADER
  9
$ACADVER
  1
AC1009
  9
$INSBASE
 10
0.0
 20
0.0
 30
0.0
  9
$EXTMIN
 10
-2.9049153999999779
 20
-2.6348189999999931
 30
0.0
  9
$EXTMAX
 10
361.23200000000003
 20
118.616
 30
0.0
  9
$LIMMIN
 10
0.0
 20
0.0
  9
$LIMMAX
 10
12.0
 20
9.0
  9
$ORTHOMODE
 70
     0
  9
$REGENMODE
 70
     1
  9
$FILLMODE
 70
     0
  9
$QTEXTMODE
 70
     0
  9
$MIRRTEXT
 70
     0
  9
$DRAGMODE
 70
     2
  9
$LTSCALE
 40
1.0
  9
$OSMODE
 70
   167
  9
$ATTMODE
 70
     1
  9
$TEXTSIZE
 40
0.2
  9
$TRACEWID
 40
0.05
  9
$TEXTSTYLE
  7
STANDARD
  9
$CLAYER
  8
0
  9
$CELTYPE
  6
CONTINUOUS
  9
$CECOLOR
 62
   256
  9
$DIMSCALE
 40
1.0
  9
$DIMASZ
 40
0.18
  9
$DIMEXO
 40
0.0625
  9
$DIMDLI
 40
0.38
  9
$DIMRND
 40
0.0
  9
$DIMDLE
 40
0.0
  9
$DIMEXE
 40
0.18
  9
$DIMTP
 40
0.0
  9
$DIMTM
 40
0.0
  9
$DIMTXT
 40
0.18
  9
$DIMCEN
 40
0.09
  9
$DIMTSZ
 40
0.0
  9
$DIMTOL
 70
     0
  9
$DIMLIM
 70
     0
  9
$DIMTIH
 70
     1
  9
$DIMTOH
 70
     1
  9
$DIMSE1
 70
     0
  9
$DIMSE2
 70
     0
  9
$DIMTAD
 70
     0
  9
$DIMZIN
 70
     0
  9
$DIMBLK
  1

  9
$DIMASO
 70
     1
  9
$DIMSHO
 70
     1
  9
$DIMPOST
  1

  9
$DIMAPOST
  1

  9
$DIMALT
 70
     0
  9
$DIMALTD
 70
     2
  9
$DIMALTF
 40
25.399999999999999
  9
$DIMLFAC
 40
1.0
  9
$DIMTOFL
 70
     0
  9
$DIMTVP
 40
0.0
  9
$DIMTIX
 70
     0
  9
$DIMSOXD
 70
     0
  9
$DIMSAH
 70
     0
  9
$DIMBLK1
  1

  9
$DIMBLK2
  1

  9
$DIMSTYLE
  2
STANDARD
  9
$DIMCLRD
 70
     0
  9
$DIMCLRE
 70
     0
  9
$DIMCLRT
 70
     0
  9
$DIMTFAC
 40
1.0
  9
$DIMGAP
 40
0.09
  9
$LUNITS
 70
     2
  9
$LUPREC
 70
     4
  9
$SKETCHINC
 40
0.1
  9
$FILLETRAD
 40
0.0
  9
$AUNITS
 70
     0
  9
$AUPREC
 70
     0
  9
$MENU
  1
.
  9
$ELEVATION
 40
0.0
  9
$PELEVATION
 40
0.0
  9
$THICKNESS
 40
0.0
  9
$LIMCHECK
 70
     0
  9
$BLIPMODE
 70
     0
  9
$CHAMFERA
 40
0.0
  9
$CHAMFERB
 40
0.0
  9
$SKPOLY
 70
     0
  9
$TDCREATE
 40
2459290.6934968992
  9
$TDUPDATE
 40
2459290.695821227
  9
$TDINDWG
 40
0.0023273495
  9
$TDUSRTIMER
 40
0.0023273495
  9
$USRTIMER
 70
     1
  9
$ANGBASE
 50
0.0
  9
$ANGDIR
 70
     0
  9
$PDMODE
 70
     0
  9
$PDSIZE
 40
0.0
  9
$PLINEWID
 40
0.0
  9
$COORDS
 70
     1
  9
$SPLFRAME
 70
     1
  9
$SPLINETYPE
 70
     6
  9
$SPLINESEGS
 70
     8
  9
$ATTDIA
 70
     1
  9
$ATTREQ
 70
     1
  9
$HANDLING
 70
     1
  9
$HANDSEED
  5
413
  9
$SURFTAB1
 70
     6
  9
$SURFTAB2
 70
     6
  9
$SURFTYPE
 70
     6
  9
$SURFU
 70
     6
  9
$SURFV
 70
     6
  9
$UCSNAME
  2

  9
$UCSORG
 10
0.0
 20
0.0
 30
0.0
  9
$UCSXDIR
 10
1.0
 20
0.0
 30
0.0
  9
$UCSYDIR
 10
0.0
 20
1.0
 30
0.0
  9
$PUCSNAME
  2

  9
$PUCSORG
 10
0.0
 20
0.0
 30
0.0
  9
$PUCSXDIR
 10
1.0
 20
0.0
 30
0.0
  9
$PUCSYDIR
 10
0.0
 20
1.0
 30
0.0
  9
$USERI1
 70
     0
  9
$USERI2
 70
     0
  9
$USERI3
 70
     0
  9
$USERI4
 70
     0
  9
$USERI5
 70
     0
  9
$USERR1
 40
0.0
  9
$USERR2
 40
0.0
  9
$USERR3
 40
0.0
  9
$USERR4
 40
0.0
  9
$USERR5
 40
0.0
  9
$WORLDVIEW
 70
     1
  9
$SHADEDGE
 70
     3
  9
$SHADEDIF
 70
    70
  9
$TILEMODE
 70
     1
  9
$MAXACTVP
 70
    64
  9
$PLIMCHECK
 70
     0
  9
$PEXTMIN
 10
1.0000000000000000E+020
 20
1.0000000000000000E+020
 30
1.0000000000000000E+020
  9
$PEXTMAX
 10
-1.0000000000000000E+020
 20
-1.0000000000000000E+020
 30
-1.0000000000000000E+020
  9
$PLIMMIN
 10
0.0
 20
0.0
  9
$PLIMMAX
 10
12.0
 20
9.0
  9
$UNITMODE
 70
     0
  9
$VISRETAIN
 70
     1
  9
$PLINEGEN
 70
     0
  9
$PSLTSCALE
 70
     1
  0
ENDSEC
  0
SECTION
  2
TABLES
  0
TABLE
  2
VPORT
 70
     1
  0
VPORT
  2
*ACTIVE
 70
     0
 10
0.0
 20
0.0
 11
1.0
 21
1.0
 12
193.32656028857221
 22
58.949450318654641
 13
0.0
 23
0.0
 14
1.0
 24
1.0
 15
0.0
 25
0.0
 16
0.0
 26
0.0
 36
1.0
 17
0.0
 27
0.0
 37
0.0
 40
264.16902454958228
 41
2.5847619047619039
 42
50.0
 43
0.0
 44
0.0
 50
0.0
 51
0.0
 71
     0
 72
   100
 73
     1
 74
     1
 75
     0
 76
     0
 77
     0
 78
     0
  0
ENDTAB
  0
TABLE
  2
LTYPE
 70
     2
  0
LTYPE
  2
CONTINUOUS
 70
     0
  3
Solid line
 72
    65
 73
     0
 40
0.0
  0
ENDTAB
  0
TABLE
  2
LAYER
 70
     1
  0
LAYER
  2
0
 70
     0
 62
     7
  6
CONTINUOUS
  0
ENDTAB
  0
TABLE
  2
STYLE
 70
     2
  0
STYLE
  2
STANDARD
 70
     0
 40
0.0
 41
1.0
 50
0.0
 71
     0
 42
0.2
  3
txt
  4

  0
STYLE
  2
ANNOTATIVE
 70
     0
 40
0.0
 41
1.0
 50
0.0
 71
     0
 42
0.2
  3
txt
  4

  0
ENDTAB
  0
TABLE
  2
VIEW
 70
     0
  0
ENDTAB
  0
TABLE
  2
UCS
 70
     0
  0
ENDTAB
  0
TABLE
  2
APPID
 70
     5
  0
APPID
  2
ACAD
 70
     0
  0
APPID
  2
ACADANNOTATIVE
 70
     0
  0
APPID
  2
ACAD_EXEMPT_FROM_CAD_STANDARDS
 70
     0
  0
APPID
  2
ACAD_NAV_VCDISPLAY
 70
     0
  0
APPID
  2
ACAD_MLEADERVER
 70
     0
  0
ENDTAB
  0
TABLE
  2
DIMSTYLE
 70
     3
  0
DIMSTYLE
  2
STANDARD
 70
     0
  3

  4

  5

  6

  7

 40
1.0
 41
0.18
 42
0.0625
 43
0.38
 44
0.18
 45
0.0
 46
0.0
 47
0.0
 48
0.0
140
0.18
141
0.09
142
0.0
143
25.399999999999999
144
1.0
145
0.0
146
1.0
147
0.09
 71
     0
 72
     0
 73
     1
 74
     1
 75
     0
 76
     0
 77
     0
 78
     0
170
     0
171
     2
172
     0
173
     0
174
     0
175
     0
176
     0
177
     0
178
     0
  0
DIMSTYLE
  2
ANNOTATIVE
 70
     0
  3

  4

  5

  6

  7

 40
1.0
 41
0.18
 42
0.0625
 43
0.38
 44
0.18
 45
0.0
 46
0.0
 47
0.0
 48
0.0
140
0.18
141
0.09
142
0.0
143
25.399999999999999
144
1.0
145
0.0
146
1.0
147
0.09
 71
     0
 72
     0
 73
     1
 74
     1
 75
     0
 76
     0
 77
     0
 78
     0
170
     0
171
     2
172
     0
173
     0
174
     0
175
     0
176
     0
177
     0
178
     0
  0
ENDTAB
  0
ENDSEC
  0
SECTION
  2
BLOCKS
  0
BLOCK
  8
0
  2
$MODEL_SPACE
 70
     0
 10
0.0
 20
0.0
 30
0.0
  3
$MODEL_SPACE
  1

  0
ENDBLK
  5
71
  8
0
  0
BLOCK
 67
     1
  8
0
  2
$PAPER_SPACE
 70
     0
 10
0.0
 20
0.0
 30
0.0
  3
$PAPER_SPACE
  1

  0
ENDBLK
  5
6D
 67
     1
  8
0
  0
ENDSEC
  0
SECTION
  2
ENTITIES
  0
LINE
  5
C9
  8
0
 62
     0
 10
2.63205
 20
4.7914300000000001
 30
0.0
 11
2.21313
 21
4.579229999999999
 31
0.0
  0
LINE
  5
CA
  8
0
 62
     0
 10
2.21313
 20
4.579229999999999
 30
0.0
 11
1.8810199999999999
 21
4.2471300000000003
 31
0.0
  0
LINE
  5
CB
  8
0
 62
     0
 10
1.8810199999999999
 20
4.2471300000000003
 30
0.0
 11
1.6688000000000001
 21
3.8281999999999989
 31
0.0
  0
LINE
  5
CC
  8
0
 62
     0
 10
1.6688000000000001
 20
3.8281999999999989
 30
0.0
 11
1.5943899999999991
 21
3.3651699999999991
 31
0.0
  0
LINE
  5
CD
  8
0
 62
     0
 10
1.5943899999999991
 20
3.3651699999999991
 30
0.0
 11
1.6688000000000001
 21
2.9021499999999989
 31
0.0
  0
LINE
  5
CE
  8
0
 62
     0
 10
1.6688000000000001
 20
2.9021499999999989
 30
0.0
 11
1.8810199999999999
 21
2.4832200000000002
 31
0.0
  0
LINE
  5
CF
  8
0
 62
     0
 10
1.8810199999999999
 20
2.4832200000000002
 30
0.0
 11
2.21313
 21
2.1511200000000001
 31
0.0
  0
LINE
  5
D0
  8
0
 62
     0
 10
2.21313
 20
2.1511200000000001
 30
0.0
 11
2.63205
 21
1.9389000000000001
 31
0.0
  0
LINE
  5
D1
  8
0
 62
     0
 10
2.63205
 20
1.9389000000000001
 30
0.0
 11
3.0950700000000002
 21
1.865859999999999
 31
0.0
  0
LINE
  5
D2
  8
0
 62
     0
 10
3.0950700000000002
 20
1.865859999999999
 30
0.0
 11
3.5580799999999999
 21
1.9389000000000001
 31
0.0
  0
LINE
  5
D3
  8
0
 62
     0
 10
3.5580799999999999
 20
1.9389000000000001
 30
0.0
 11
3.977009999999999
 21
2.1511200000000001
 31
0.0
  0
LINE
  5
D4
  8
0
 62
     0
 10
3.977009999999999
 20
2.1511200000000001
 30
0.0
 11
4.3091099999999987
 21
2.4832200000000002
 31
0.0
  0
LINE
  5
D5
  8
0
 62
     0
 10
4.3091099999999987
 20
2.4832200000000002
 30
0.0
 11
4.5213400000000004
 21
2.9021499999999989
 31
0.0
  0
LINE
  5
D6
  8
0
 62
     0
 10
4.5213400000000004
 20
2.9021499999999989
 30
0.0
 11
4.5943699999999987
 21
3.3651699999999991
 31
0.0
  0
LINE
  5
D7
  8
0
 62
     0
 10
4.5943699999999987
 20
3.3651699999999991
 30
0.0
 11
4.5213400000000004
 21
3.8281999999999989
 31
0.0
  0
LINE
  5
D8
  8
0
 62
     0
 10
4.5213400000000004
 20
3.8281999999999989
 30
0.0
 11
4.3091099999999987
 21
4.2471300000000003
 31
0.0
  0
LINE
  5
D9
  8
0
 62
     0
 10
4.3091099999999987
 20
4.2471300000000003
 30
0.0
 11
3.977009999999999
 21
4.579229999999999
 31
0.0
  0
LINE
  5
DA
  8
0
 62
     0
 10
3.977009999999999
 20
4.579229999999999
 30
0.0
 11
3.5580799999999999
 21
4.7914300000000001
 31
0.0
  0
LINE
  5
DB
  8
0
 62
     0
 10
3.5580799999999999
 20
4.7914300000000001
 30
0.0
 11
3.0950700000000002
 21
4.8658599999999987
 31
0.0
  0
LINE
  5
DC
  8
0
 62
     0
 10
3.0950700000000002
 20
4.8658599999999987
 30
0.0
 11
2.63205
 21
4.7914300000000001
 31
0.0
  0
LINE
  5
DD
  8
0
 62
     0
 10
120.011
 20
4.7914300000000001
 30
0.0
 11
119.593
 21
4.579229999999999
 31
0.0
  0
LINE
  5
DE
  8
0
 62
     0
 10
119.593
 20
4.579229999999999
 30
0.0
 11
119.261
 21
4.2471300000000003
 31
0.0
  0
LINE
  5
DF
  8
0
 62
     0
 10
119.261
 20
4.2471300000000003
 30
0.0
 11
119.047
 21
3.8281999999999989
 31
0.0
  0
LINE
  5
E0
  8
0
 62
     0
 10
119.047
 20
3.8281999999999989
 30
0.0
 11
118.974
 21
3.3651699999999991
 31
0.0
  0
LINE
  5
E1
  8
0
 62
     0
 10
118.974
 20
3.3651699999999991
 30
0.0
 11
119.047
 21
2.9021499999999989
 31
0.0
  0
LINE
  5
E2
  8
0
 62
     0
 10
119.047
 20
2.9021499999999989
 30
0.0
 11
119.261
 21
2.4832200000000002
 31
0.0
  0
LINE
  5
E3
  8
0
 62
     0
 10
119.261
 20
2.4832200000000002
 30
0.0
 11
119.593
 21
2.1511200000000001
 31
0.0
  0
LINE
  5
E4
  8
0
 62
     0
 10
119.593
 20
2.1511200000000001
 30
0.0
 11
120.011
 21
1.9389000000000001
 31
0.0
  0
LINE
  5
E5
  8
0
 62
     0
 10
120.011
 20
1.9389000000000001
 30
0.0
 11
120.47499999999999
 21
1.865859999999999
 31
0.0
  0
LINE
  5
E6
  8
0
 62
     0
 10
120.47499999999999
 20
1.865859999999999
 30
0.0
 11
120.938
 21
1.9389000000000001
 31
0.0
  0
LINE
  5
E7
  8
0
 62
     0
 10
120.938
 20
1.9389000000000001
 30
0.0
 11
121.357
 21
2.1511200000000001
 31
0.0
  0
LINE
  5
E8
  8
0
 62
     0
 10
121.357
 20
2.1511200000000001
 30
0.0
 11
121.68899999999999
 21
2.4832200000000002
 31
0.0
  0
LINE
  5
E9
  8
0
 62
     0
 10
121.68899999999999
 20
2.4832200000000002
 30
0.0
 11
121.901
 21
2.9021499999999989
 31
0.0
  0
LINE
  5
EA
  8
0
 62
     0
 10
121.901
 20
2.9021499999999989
 30
0.0
 11
121.974
 21
3.3651699999999991
 31
0.0
  0
LINE
  5
EB
  8
0
 62
     0
 10
121.974
 20
3.3651699999999991
 30
0.0
 11
121.901
 21
3.8281999999999989
 31
0.0
  0
LINE
  5
EC
  8
0
 62
     0
 10
121.901
 20
3.8281999999999989
 30
0.0
 11
121.68899999999999
 21
4.2471300000000003
 31
0.0
  0
LINE
  5
ED
  8
0
 62
     0
 10
121.68899999999999
 20
4.2471300000000003
 30
0.0
 11
121.357
 21
4.579229999999999
 31
0.0
  0
LINE
  5
EE
  8
0
 62
     0
 10
121.357
 20
4.579229999999999
 30
0.0
 11
120.938
 21
4.7914300000000001
 31
0.0
  0
LINE
  5
EF
  8
0
 62
     0
 10
120.938
 20
4.7914300000000001
 30
0.0
 11
120.47499999999999
 21
4.8658599999999987
 31
0.0
  0
LINE
  5
F0
  8
0
 62
     0
 10
120.47499999999999
 20
4.8658599999999987
 30
0.0
 11
120.011
 21
4.7914300000000001
 31
0.0
  0
LINE
  5
F1
  8
0
 62
     0
 10
237.39099999999999
 20
4.7914300000000001
 30
0.0
 11
236.97300000000001
 21
4.579229999999999
 31
0.0
  0
LINE
  5
F2
  8
0
 62
     0
 10
236.97300000000001
 20
4.579229999999999
 30
0.0
 11
236.64099999999999
 21
4.2471300000000003
 31
0.0
  0
LINE
  5
F3
  8
0
 62
     0
 10
236.64099999999999
 20
4.2471300000000003
 30
0.0
 11
236.42699999999999
 21
3.8281999999999989
 31
0.0
  0
LINE
  5
F4
  8
0
 62
     0
 10
236.42699999999999
 20
3.8281999999999989
 30
0.0
 11
236.35400000000001
 21
3.3651699999999991
 31
0.0
  0
LINE
  5
F5
  8
0
 62
     0
 10
236.35400000000001
 20
3.3651699999999991
 30
0.0
 11
236.42699999999999
 21
2.9021499999999989
 31
0.0
  0
LINE
  5
F6
  8
0
 62
     0
 10
236.42699999999999
 20
2.9021499999999989
 30
0.0
 11
236.64099999999999
 21
2.4832200000000002
 31
0.0
  0
LINE
  5
F7
  8
0
 62
     0
 10
236.64099999999999
 20
2.4832200000000002
 30
0.0
 11
236.97300000000001
 21
2.1511200000000001
 31
0.0
  0
LINE
  5
F8
  8
0
 62
     0
 10
236.97300000000001
 20
2.1511200000000001
 30
0.0
 11
237.39099999999999
 21
1.9389000000000001
 31
0.0
  0
LINE
  5
F9
  8
0
 62
     0
 10
237.39099999999999
 20
1.9389000000000001
 30
0.0
 11
237.85499999999999
 21
1.865859999999999
 31
0.0
  0
LINE
  5
FA
  8
0
 62
     0
 10
237.85499999999999
 20
1.865859999999999
 30
0.0
 11
238.31800000000001
 21
1.9389000000000001
 31
0.0
  0
LINE
  5
FB
  8
0
 62
     0
 10
238.31800000000001
 20
1.9389000000000001
 30
0.0
 11
238.73500000000001
 21
2.1511200000000001
 31
0.0
  0
LINE
  5
FC
  8
0
 62
     0
 10
238.73500000000001
 20
2.1511200000000001
 30
0.0
 11
239.06800000000001
 21
2.4832200000000002
 31
0.0
  0
LINE
  5
FD
  8
0
 62
     0
 10
239.06800000000001
 20
2.4832200000000002
 30
0.0
 11
239.28
 21
2.9021499999999989
 31
0.0
  0
LINE
  5
FE
  8
0
 62
     0
 10
239.28
 20
2.9021499999999989
 30
0.0
 11
239.35400000000001
 21
3.3651699999999991
 31
0.0
  0
LINE
  5
FF
  8
0
 62
     0
 10
239.35400000000001
 20
3.3651699999999991
 30
0.0
 11
239.28
 21
3.8281999999999989
 31
0.0
  0
LINE
  5
100
  8
0
 62
     0
 10
239.28
 20
3.8281999999999989
 30
0.0
 11
239.06800000000001
 21
4.2471300000000003
 31
0.0
  0
LINE
  5
101
  8
0
 62
     0
 10
239.06800000000001
 20
4.2471300000000003
 30
0.0
 11
238.73500000000001
 21
4.579229999999999
 31
0.0
  0
LINE
  5
102
  8
0
 62
     0
 10
238.73500000000001
 20
4.579229999999999
 30
0.0
 11
238.31800000000001
 21
4.7914300000000001
 31
0.0
  0
LINE
  5
103
  8
0
 62
     0
 10
238.31800000000001
 20
4.7914300000000001
 30
0.0
 11
237.85499999999999
 21
4.8658599999999987
 31
0.0
  0
LINE
  5
104
  8
0
 62
     0
 10
237.85499999999999
 20
4.8658599999999987
 30
0.0
 11
237.39099999999999
 21
4.7914300000000001
 31
0.0
  0
LINE
  5
105
  8
0
 62
     0
 10
354.767
 20
4.7914300000000001
 30
0.0
 11
354.351
 21
4.579229999999999
 31
0.0
  0
LINE
  5
106
  8
0
 62
     0
 10
354.351
 20
4.579229999999999
 30
0.0
 11
354.01999999999998
 21
4.2471300000000003
 31
0.0
  0
LINE
  5
107
  8
0
 62
     0
 10
354.01999999999998
 20
4.2471300000000003
 30
0.0
 11
353.80399999999997
 21
3.8281999999999989
 31
0.0
  0
LINE
  5
108
  8
0
 62
     0
 10
353.80399999999997
 20
3.8281999999999989
 30
0.0
 11
353.73399999999998
 21
3.3651699999999991
 31
0.0
  0
LINE
  5
109
  8
0
 62
     0
 10
353.73399999999998
 20
3.3651699999999991
 30
0.0
 11
353.80399999999997
 21
2.9021499999999989
 31
0.0
  0
LINE
  5
10A
  8
0
 62
     0
 10
353.80399999999997
 20
2.9021499999999989
 30
0.0
 11
354.01999999999998
 21
2.4832200000000002
 31
0.0
  0
LINE
  5
10B
  8
0
 62
     0
 10
354.01999999999998
 20
2.4832200000000002
 30
0.0
 11
354.351
 21
2.1511200000000001
 31
0.0
  0
LINE
  5
10C
  8
0
 62
     0
 10
354.351
 20
2.1511200000000001
 30
0.0
 11
354.767
 21
1.9389000000000001
 31
0.0
  0
LINE
  5
10D
  8
0
 62
     0
 10
354.767
 20
1.9389000000000001
 30
0.0
 11
355.233
 21
1.865859999999999
 31
0.0
  0
LINE
  5
10E
  8
0
 62
     0
 10
355.233
 20
1.865859999999999
 30
0.0
 11
355.69900000000001
 21
1.9389000000000001
 31
0.0
  0
LINE
  5
10F
  8
0
 62
     0
 10
355.69900000000001
 20
1.9389000000000001
 30
0.0
 11
356.11500000000001
 21
2.1511200000000001
 31
0.0
  0
LINE
  5
110
  8
0
 62
     0
 10
356.11500000000001
 20
2.1511200000000001
 30
0.0
 11
356.447
 21
2.4832200000000002
 31
0.0
  0
LINE
  5
111
  8
0
 62
     0
 10
356.447
 20
2.4832200000000002
 30
0.0
 11
356.66199999999998
 21
2.9021499999999989
 31
0.0
  0
LINE
  5
112
  8
0
 62
     0
 10
356.66199999999998
 20
2.9021499999999989
 30
0.0
 11
356.73200000000003
 21
3.3651699999999991
 31
0.0
  0
LINE
  5
113
  8
0
 62
     0
 10
356.73200000000003
 20
3.3651699999999991
 30
0.0
 11
356.66199999999998
 21
3.8281999999999989
 31
0.0
  0
LINE
  5
114
  8
0
 62
     0
 10
356.66199999999998
 20
3.8281999999999989
 30
0.0
 11
356.447
 21
4.2471300000000003
 31
0.0
  0
LINE
  5
115
  8
0
 62
     0
 10
356.447
 20
4.2471300000000003
 30
0.0
 11
356.11500000000001
 21
4.579229999999999
 31
0.0
  0
LINE
  5
116
  8
0
 62
     0
 10
356.11500000000001
 20
4.579229999999999
 30
0.0
 11
355.69900000000001
 21
4.7914300000000001
 31
0.0
  0
LINE
  5
117
  8
0
 62
     0
 10
355.69900000000001
 20
4.7914300000000001
 30
0.0
 11
355.233
 21
4.8658599999999987
 31
0.0
  0
LINE
  5
118
  8
0
 62
     0
 10
355.233
 20
4.8658599999999987
 30
0.0
 11
354.767
 21
4.7914300000000001
 31
0.0
  0
LINE
  5
119
  8
0
 62
     0
 10
2.63205
 20
114.042
 30
0.0
 11
2.21313
 21
113.83
 31
0.0
  0
LINE
  5
11A
  8
0
 62
     0
 10
2.21313
 20
113.83
 30
0.0
 11
1.8810199999999999
 21
113.498
 31
0.0
  0
LINE
  5
11B
  8
0
 62
     0
 10
1.8810199999999999
 20
113.498
 30
0.0
 11
1.6688000000000001
 21
113.07899999999999
 31
0.0
  0
LINE
  5
11C
  8
0
 62
     0
 10
1.6688000000000001
 20
113.07899999999999
 30
0.0
 11
1.5943899999999991
 21
112.616
 31
0.0
  0
LINE
  5
11D
  8
0
 62
     0
 10
1.5943899999999991
 20
112.616
 30
0.0
 11
1.6688000000000001
 21
112.15300000000001
 31
0.0
  0
LINE
  5
11E
  8
0
 62
     0
 10
1.6688000000000001
 20
112.15300000000001
 30
0.0
 11
1.8810199999999999
 21
111.73399999999999
 31
0.0
  0
LINE
  5
11F
  8
0
 62
     0
 10
1.8810199999999999
 20
111.73399999999999
 30
0.0
 11
2.21313
 21
111.402
 31
0.0
  0
LINE
  5
120
  8
0
 62
     0
 10
2.21313
 20
111.402
 30
0.0
 11
2.63205
 21
111.19
 31
0.0
  0
LINE
  5
121
  8
0
 62
     0
 10
2.63205
 20
111.19
 30
0.0
 11
3.0950700000000002
 21
111.11499999999999
 31
0.0
  0
LINE
  5
122
  8
0
 62
     0
 10
3.0950700000000002
 20
111.11499999999999
 30
0.0
 11
3.5580799999999999
 21
111.19
 31
0.0
  0
LINE
  5
123
  8
0
 62
     0
 10
3.5580799999999999
 20
111.19
 30
0.0
 11
3.977009999999999
 21
111.402
 31
0.0
  0
LINE
  5
124
  8
0
 62
     0
 10
3.977009999999999
 20
111.402
 30
0.0
 11
4.3091099999999987
 21
111.73399999999999
 31
0.0
  0
LINE
  5
125
  8
0
 62
     0
 10
4.3091099999999987
 20
111.73399999999999
 30
0.0
 11
4.5213400000000004
 21
112.15300000000001
 31
0.0
  0
LINE
  5
126
  8
0
 62
     0
 10
4.5213400000000004
 20
112.15300000000001
 30
0.0
 11
4.5943699999999987
 21
112.616
 31
0.0
  0
LINE
  5
127
  8
0
 62
     0
 10
4.5943699999999987
 20
112.616
 30
0.0
 11
4.5213400000000004
 21
113.07899999999999
 31
0.0
  0
LINE
  5
128
  8
0
 62
     0
 10
4.5213400000000004
 20
113.07899999999999
 30
0.0
 11
4.3091099999999987
 21
113.498
 31
0.0
  0
LINE
  5
129
  8
0
 62
     0
 10
4.3091099999999987
 20
113.498
 30
0.0
 11
3.977009999999999
 21
113.83
 31
0.0
  0
LINE
  5
12A
  8
0
 62
     0
 10
3.977009999999999
 20
113.83
 30
0.0
 11
3.5580799999999999
 21
114.042
 31
0.0
  0
LINE
  5
12B
  8
0
 62
     0
 10
3.5580799999999999
 20
114.042
 30
0.0
 11
3.0950700000000002
 21
114.11499999999999
 31
0.0
  0
LINE
  5
12C
  8
0
 62
     0
 10
3.0950700000000002
 20
114.11499999999999
 30
0.0
 11
2.63205
 21
114.042
 31
0.0
  0
LINE
  5
12D
  8
0
 62
     0
 10
354.767
 20
114.042
 30
0.0
 11
354.351
 21
113.83
 31
0.0
  0
LINE
  5
12E
  8
0
 62
     0
 10
354.351
 20
113.83
 30
0.0
 11
354.01999999999998
 21
113.498
 31
0.0
  0
LINE
  5
12F
  8
0
 62
     0
 10
354.01999999999998
 20
113.498
 30
0.0
 11
353.80399999999997
 21
113.07899999999999
 31
0.0
  0
LINE
  5
130
  8
0
 62
     0
 10
353.80399999999997
 20
113.07899999999999
 30
0.0
 11
353.73399999999998
 21
112.616
 31
0.0
  0
LINE
  5
131
  8
0
 62
     0
 10
353.73399999999998
 20
112.616
 30
0.0
 11
353.80399999999997
 21
112.15300000000001
 31
0.0
  0
LINE
  5
132
  8
0
 62
     0
 10
353.80399999999997
 20
112.15300000000001
 30
0.0
 11
354.01999999999998
 21
111.73399999999999
 31
0.0
  0
LINE
  5
133
  8
0
 62
     0
 10
354.01999999999998
 20
111.73399999999999
 30
0.0
 11
354.351
 21
111.402
 31
0.0
  0
LINE
  5
134
  8
0
 62
     0
 10
354.351
 20
111.402
 30
0.0
 11
354.767
 21
111.19
 31
0.0
  0
LINE
  5
135
  8
0
 62
     0
 10
354.767
 20
111.19
 30
0.0
 11
355.233
 21
111.11499999999999
 31
0.0
  0
LINE
  5
136
  8
0
 62
     0
 10
355.233
 20
111.11499999999999
 30
0.0
 11
355.69900000000001
 21
111.19
 31
0.0
  0
LINE
  5
137
  8
0
 62
     0
 10
355.69900000000001
 20
111.19
 30
0.0
 11
356.11500000000001
 21
111.402
 31
0.0
  0
LINE
  5
138
  8
0
 62
     0
 10
356.11500000000001
 20
111.402
 30
0.0
 11
356.447
 21
111.73399999999999
 31
0.0
  0
LINE
  5
139
  8
0
 62
     0
 10
356.447
 20
111.73399999999999
 30
0.0
 11
356.66199999999998
 21
112.15300000000001
 31
0.0
  0
LINE
  5
13A
  8
0
 62
     0
 10
356.66199999999998
 20
112.15300000000001
 30
0.0
 11
356.73200000000003
 21
112.616
 31
0.0
  0
LINE
  5
13B
  8
0
 62
     0
 10
356.73200000000003
 20
112.616
 30
0.0
 11
356.66199999999998
 21
113.07899999999999
 31
0.0
  0
LINE
  5
13C
  8
0
 62
     0
 10
356.66199999999998
 20
113.07899999999999
 30
0.0
 11
356.447
 21
113.498
 31
0.0
  0
LINE
  5
13D
  8
0
 62
     0
 10
356.447
 20
113.498
 30
0.0
 11
356.11500000000001
 21
113.83
 31
0.0
  0
LINE
  5
13E
  8
0
 62
     0
 10
356.11500000000001
 20
113.83
 30
0.0
 11
355.69900000000001
 21
114.042
 31
0.0
  0
LINE
  5
13F
  8
0
 62
     0
 10
355.69900000000001
 20
114.042
 30
0.0
 11
355.233
 21
114.11499999999999
 31
0.0
  0
LINE
  5
140
  8
0
 62
     0
 10
355.233
 20
114.11499999999999
 30
0.0
 11
354.767
 21
114.042
 31
0.0
  0
LINE
  5
141
  8
0
 62
     0
 10
237.39099999999999
 20
114.042
 30
0.0
 11
236.97300000000001
 21
113.83
 31
0.0
  0
LINE
  5
142
  8
0
 62
     0
 10
236.97300000000001
 20
113.83
 30
0.0
 11
236.64099999999999
 21
113.498
 31
0.0
  0
LINE
  5
143
  8
0
 62
     0
 10
236.64099999999999
 20
113.498
 30
0.0
 11
236.42699999999999
 21
113.07899999999999
 31
0.0
  0
LINE
  5
144
  8
0
 62
     0
 10
236.42699999999999
 20
113.07899999999999
 30
0.0
 11
236.35400000000001
 21
112.616
 31
0.0
  0
LINE
  5
145
  8
0
 62
     0
 10
236.35400000000001
 20
112.616
 30
0.0
 11
236.42699999999999
 21
112.15300000000001
 31
0.0
  0
LINE
  5
146
  8
0
 62
     0
 10
236.42699999999999
 20
112.15300000000001
 30
0.0
 11
236.64099999999999
 21
111.73399999999999
 31
0.0
  0
LINE
  5
147
  8
0
 62
     0
 10
236.64099999999999
 20
111.73399999999999
 30
0.0
 11
236.97300000000001
 21
111.402
 31
0.0
  0
LINE
  5
148
  8
0
 62
     0
 10
236.97300000000001
 20
111.402
 30
0.0
 11
237.39099999999999
 21
111.19
 31
0.0
  0
LINE
  5
149
  8
0
 62
     0
 10
237.39099999999999
 20
111.19
 30
0.0
 11
237.85499999999999
 21
111.11499999999999
 31
0.0
  0
LINE
  5
14A
  8
0
 62
     0
 10
237.85499999999999
 20
111.11499999999999
 30
0.0
 11
238.31800000000001
 21
111.19
 31
0.0
  0
LINE
  5
14B
  8
0
 62
     0
 10
238.31800000000001
 20
111.19
 30
0.0
 11
238.73500000000001
 21
111.402
 31
0.0
  0
LINE
  5
14C
  8
0
 62
     0
 10
238.73500000000001
 20
111.402
 30
0.0
 11
239.06800000000001
 21
111.73399999999999
 31
0.0
  0
LINE
  5
14D
  8
0
 62
     0
 10
239.06800000000001
 20
111.73399999999999
 30
0.0
 11
239.28
 21
112.15300000000001
 31
0.0
  0
LINE
  5
14E
  8
0
 62
     0
 10
239.28
 20
112.15300000000001
 30
0.0
 11
239.35400000000001
 21
112.616
 31
0.0
  0
LINE
  5
14F
  8
0
 62
     0
 10
239.35400000000001
 20
112.616
 30
0.0
 11
239.28
 21
113.07899999999999
 31
0.0
  0
LINE
  5
150
  8
0
 62
     0
 10
239.28
 20
113.07899999999999
 30
0.0
 11
239.06800000000001
 21
113.498
 31
0.0
  0
LINE
  5
151
  8
0
 62
     0
 10
239.06800000000001
 20
113.498
 30
0.0
 11
238.73500000000001
 21
113.83
 31
0.0
  0
LINE
  5
152
  8
0
 62
     0
 10
238.73500000000001
 20
113.83
 30
0.0
 11
238.31800000000001
 21
114.042
 31
0.0
  0
LINE
  5
153
  8
0
 62
     0
 10
238.31800000000001
 20
114.042
 30
0.0
 11
237.85499999999999
 21
114.11499999999999
 31
0.0
  0
LINE
  5
154
  8
0
 62
     0
 10
237.85499999999999
 20
114.11499999999999
 30
0.0
 11
237.39099999999999
 21
114.042
 31
0.0
  0
LINE
  5
155
  8
0
 62
     0
 10
120.011
 20
114.042
 30
0.0
 11
119.593
 21
113.83
 31
0.0
  0
LINE
  5
156
  8
0
 62
     0
 10
119.593
 20
113.83
 30
0.0
 11
119.261
 21
113.498
 31
0.0
  0
LINE
  5
157
  8
0
 62
     0
 10
119.261
 20
113.498
 30
0.0
 11
119.047
 21
113.07899999999999
 31
0.0
  0
LINE
  5
158
  8
0
 62
     0
 10
119.047
 20
113.07899999999999
 30
0.0
 11
118.974
 21
112.616
 31
0.0
  0
LINE
  5
159
  8
0
 62
     0
 10
118.974
 20
112.616
 30
0.0
 11
119.047
 21
112.15300000000001
 31
0.0
  0
LINE
  5
15A
  8
0
 62
     0
 10
119.047
 20
112.15300000000001
 30
0.0
 11
119.261
 21
111.73399999999999
 31
0.0
  0
LINE
  5
15B
  8
0
 62
     0
 10
119.261
 20
111.73399999999999
 30
0.0
 11
119.593
 21
111.402
 31
0.0
  0
LINE
  5
15C
  8
0
 62
     0
 10
119.593
 20
111.402
 30
0.0
 11
120.011
 21
111.19
 31
0.0
  0
LINE
  5
15D
  8
0
 62
     0
 10
120.011
 20
111.19
 30
0.0
 11
120.47499999999999
 21
111.11499999999999
 31
0.0
  0
LINE
  5
15E
  8
0
 62
     0
 10
120.47499999999999
 20
111.11499999999999
 30
0.0
 11
120.938
 21
111.19
 31
0.0
  0
LINE
  5
15F
  8
0
 62
     0
 10
120.938
 20
111.19
 30
0.0
 11
121.357
 21
111.402
 31
0.0
  0
LINE
  5
160
  8
0
 62
     0
 10
121.357
 20
111.402
 30
0.0
 11
121.68899999999999
 21
111.73399999999999
 31
0.0
  0
LINE
  5
161
  8
0
 62
     0
 10
121.68899999999999
 20
111.73399999999999
 30
0.0
 11
121.901
 21
112.15300000000001
 31
0.0
  0
LINE
  5
162
  8
0
 62
     0
 10
121.901
 20
112.15300000000001
 30
0.0
 11
121.974
 21
112.616
 31
0.0
  0
LINE
  5
163
  8
0
 62
     0
 10
121.974
 20
112.616
 30
0.0
 11
121.901
 21
113.07899999999999
 31
0.0
  0
LINE
  5
164
  8
0
 62
     0
 10
121.901
 20
113.07899999999999
 30
0.0
 11
121.68899999999999
 21
113.498
 31
0.0
  0
LINE
  5
165
  8
0
 62
     0
 10
121.68899999999999
 20
113.498
 30
0.0
 11
121.357
 21
113.83
 31
0.0
  0
LINE
  5
166
  8
0
 62
     0
 10
121.357
 20
113.83
 30
0.0
 11
120.938
 21
114.042
 31
0.0
  0
LINE
  5
167
  8
0
 62
     0
 10
120.938
 20
114.042
 30
0.0
 11
120.47499999999999
 21
114.11499999999999
 31
0.0
  0
LINE
  5
168
  8
0
 62
     0
 10
120.47499999999999
 20
114.11499999999999
 30
0.0
 11
120.011
 21
114.042
 31
0.0
  0
POLYLINE
  5
16B
  8
0
  6
CONTINUOUS
 66
     1
 10
0.0
 20
0.0
 30
0.0
 70
     1
  0
VERTEX
  5
313
  8
0
  6
CONTINUOUS
 10
353.80399999999997
 20
3.8281999999999949
 30
0.0
  0
VERTEX
  5
314
  8
0
  6
CONTINUOUS
 10
354.01999999999998
 20
4.2471300000001326
 30
0.0
  0
VERTEX
  5
315
  8
0
  6
CONTINUOUS
 10
354.35099999999989
 20
4.5792299999999742
 30
0.0
  0
VERTEX
  5
316
  8
0
  6
CONTINUOUS
 10
354.76699999999988
 20
4.7914300000000054
 30
0.0
  0
VERTEX
  5
317
  8
0
  6
CONTINUOUS
 10
355.233
 20
4.8658599999999828
 30
0.0
  0
VERTEX
  5
318
  8
0
  6
CONTINUOUS
 10
355.69900000000013
 20
4.7914299999999912
 30
0.0
  0
VERTEX
  5
319
  8
0
  6
CONTINUOUS
 10
356.11500000000001
 20
4.5792300000000301
 30
0.0
  0
VERTEX
  5
31A
  8
0
  6
CONTINUOUS
 10
356.447
 20
4.2471299999999621
 30
0.0
  0
VERTEX
  5
31B
  8
0
  6
CONTINUOUS
 10
356.66199999999998
 20
3.8282000000001091
 30
0.0
  0
VERTEX
  5
31C
  8
0
  6
CONTINUOUS
 10
356.73200000000003
 20
3.3651699999999991
 30
0.0
  0
VERTEX
  5
31D
  8
0
  6
CONTINUOUS
 10
356.66199999999998
 20
2.9021499999999771
 30
0.0
  0
VERTEX
  5
31E
  8
0
  6
CONTINUOUS
 10
356.44699999999989
 20
2.4832199999998319
 30
0.0
  0
VERTEX
  5
31F
  8
0
  6
CONTINUOUS
 10
356.11500000000012
 20
2.1511199999999699
 30
0.0
  0
VERTEX
  5
320
  8
0
  6
CONTINUOUS
 10
355.69900000000013
 20
1.938900000000003
 30
0.0
  0
VERTEX
  5
321
  8
0
  6
CONTINUOUS
 10
355.23300000000012
 20
1.8658599999999901
 30
0.0
  0
VERTEX
  5
322
  8
0
  6
CONTINUOUS
 10
354.767
 20
1.9388999999999961
 30
0.0
  0
VERTEX
  5
323
  8
0
  6
CONTINUOUS
 10
354.35100000000011
 20
2.1511199999999491
 30
0.0
  0
VERTEX
  5
324
  8
0
  6
CONTINUOUS
 10
354.01999999999992
 20
2.4832199999999882
 30
0.0
  0
VERTEX
  5
325
  8
0
  6
CONTINUOUS
 10
353.80399999999997
 20
2.9021500000000131
 30
0.0
  0
VERTEX
  5
326
  8
0
  6
CONTINUOUS
 10
353.73399999999998
 20
3.365170000000127
 30
0.0
  0
SEQEND
  5
327
  8
0
  6
CONTINUOUS
  0
POLYLINE
  5
16C
  8
0
  6
CONTINUOUS
 66
     1
 10
0.0
 20
0.0
 30
0.0
 70
     1
  0
VERTEX
  5
328
  8
0
  6
CONTINUOUS
 10
353.80399999999997
 20
112.15300000000001
 30
0.0
  0
VERTEX
  5
329
  8
0
  6
CONTINUOUS
 10
353.73399999999998
 20
112.616
 30
0.0
  0
VERTEX
  5
32A
  8
0
  6
CONTINUOUS
 10
353.80399999999997
 20
113.07899999999999
 30
0.0
  0
VERTEX
  5
32B
  8
0
  6
CONTINUOUS
 10
354.01999999999998
 20
113.49799999999991
 30
0.0
  0
VERTEX
  5
32C
  8
0
  6
CONTINUOUS
 10
354.351
 20
113.83
 30
0.0
  0
VERTEX
  5
32D
  8
0
  6
CONTINUOUS
 10
354.767
 20
114.042
 30
0.0
  0
VERTEX
  5
32E
  8
0
  6
CONTINUOUS
 10
355.23299999999989
 20
114.11499999999999
 30
0.0
  0
VERTEX
  5
32F
  8
0
  6
CONTINUOUS
 10
355.69900000000013
 20
114.042
 30
0.0
  0
VERTEX
  5
330
  8
0
  6
CONTINUOUS
 10
356.11500000000001
 20
113.83
 30
0.0
  0
VERTEX
  5
331
  8
0
  6
CONTINUOUS
 10
356.44699999999989
 20
113.49799999999991
 30
0.0
  0
VERTEX
  5
332
  8
0
  6
CONTINUOUS
 10
356.66199999999998
 20
113.07899999999999
 30
0.0
  0
VERTEX
  5
333
  8
0
  6
CONTINUOUS
 10
356.73200000000003
 20
112.6160000000001
 30
0.0
  0
VERTEX
  5
334
  8
0
  6
CONTINUOUS
 10
356.66199999999998
 20
112.15300000000001
 30
0.0
  0
VERTEX
  5
335
  8
0
  6
CONTINUOUS
 10
356.44699999999989
 20
111.73399999999999
 30
0.0
  0
VERTEX
  5
336
  8
0
  6
CONTINUOUS
 10
356.11500000000012
 20
111.402
 30
0.0
  0
VERTEX
  5
337
  8
0
  6
CONTINUOUS
 10
355.69900000000013
 20
111.19
 30
0.0
  0
VERTEX
  5
338
  8
0
  6
CONTINUOUS
 10
355.233
 20
111.11499999999999
 30
0.0
  0
VERTEX
  5
339
  8
0
  6
CONTINUOUS
 10
354.767
 20
111.19
 30
0.0
  0
VERTEX
  5
33A
  8
0
  6
CONTINUOUS
 10
354.351
 20
111.402
 30
0.0
  0
VERTEX
  5
33B
  8
0
  6
CONTINUOUS
 10
354.01999999999998
 20
111.7339999999999
 30
0.0
  0
SEQEND
  5
33C
  8
0
  6
CONTINUOUS
  0
POLYLINE
  5
16D
  8
0
  6
CONTINUOUS
 66
     1
 10
0.0
 20
0.0
 30
0.0
 70
     1
  0
VERTEX
  5
33D
  8
0
  6
CONTINUOUS
 10
236.42699999999999
 20
3.828200000000002
 30
0.0
  0
VERTEX
  5
33E
  8
0
  6
CONTINUOUS
 10
236.64099999999999
 20
4.2471300000000412
 30
0.0
  0
VERTEX
  5
33F
  8
0
  6
CONTINUOUS
 10
236.97300000000001
 20
4.5792300000000159
 30
0.0
  0
VERTEX
  5
340
  8
0
  6
CONTINUOUS
 10
237.39099999999999
 20
4.7914299999999841
 30
0.0
  0
VERTEX
  5
341
  8
0
  6
CONTINUOUS
 10
237.85499999999999
 20
4.865859999999997
 30
0.0
  0
VERTEX
  5
342
  8
0
  6
CONTINUOUS
 10
238.3179999999999
 20
4.7914300000000054
 30
0.0
  0
VERTEX
  5
343
  8
0
  6
CONTINUOUS
 10
238.73500000000001
 20
4.5792299999999884
 30
0.0
  0
VERTEX
  5
344
  8
0
  6
CONTINUOUS
 10
239.06800000000001
 20
4.2471299999999914
 30
0.0
  0
VERTEX
  5
345
  8
0
  6
CONTINUOUS
 10
239.28
 20
3.8282000000000092
 30
0.0
  0
VERTEX
  5
346
  8
0
  6
CONTINUOUS
 10
239.35400000000001
 20
3.3651699999999352
 30
0.0
  0
VERTEX
  5
347
  8
0
  6
CONTINUOUS
 10
239.28
 20
2.9021500000000771
 30
0.0
  0
VERTEX
  5
348
  8
0
  6
CONTINUOUS
 10
239.06800000000001
 20
2.483220000000038
 30
0.0
  0
VERTEX
  5
349
  8
0
  6
CONTINUOUS
 10
238.73500000000001
 20
2.151120000000005
 30
0.0
  0
VERTEX
  5
34A
  8
0
  6
CONTINUOUS
 10
238.31800000000001
 20
1.938900000000003
 30
0.0
  0
VERTEX
  5
34B
  8
0
  6
CONTINUOUS
 10
237.85499999999999
 20
1.8658599999999901
 30
0.0
  0
VERTEX
  5
34C
  8
0
  6
CONTINUOUS
 10
237.39099999999991
 20
1.938900000000003
 30
0.0
  0
VERTEX
  5
34D
  8
0
  6
CONTINUOUS
 10
236.97300000000001
 20
2.1511200000000339
 30
0.0
  0
VERTEX
  5
34E
  8
0
  6
CONTINUOUS
 10
236.64099999999999
 20
2.483220000000002
 30
0.0
  0
VERTEX
  5
34F
  8
0
  6
CONTINUOUS
 10
236.42699999999999
 20
2.902150000000006
 30
0.0
  0
VERTEX
  5
350
  8
0
  6
CONTINUOUS
 10
236.35400000000001
 20
3.3651699999999769
 30
0.0
  0
SEQEND
  5
351
  8
0
  6
CONTINUOUS
  0
POLYLINE
  5
16E
  8
0
  6
CONTINUOUS
 66
     1
 10
0.0
 20
0.0
 30
0.0
 70
     1
  0
VERTEX
  5
352
  8
0
  6
CONTINUOUS
 10
236.42700000000011
 20
112.15300000000001
 30
0.0
  0
VERTEX
  5
353
  8
0
  6
CONTINUOUS
 10
236.35400000000001
 20
112.616
 30
0.0
  0
VERTEX
  5
354
  8
0
  6
CONTINUOUS
 10
236.42699999999999
 20
113.07899999999999
 30
0.0
  0
VERTEX
  5
355
  8
0
  6
CONTINUOUS
 10
236.64099999999999
 20
113.498
 30
0.0
  0
VERTEX
  5
356
  8
0
  6
CONTINUOUS
 10
236.97300000000001
 20
113.83
 30
0.0
  0
VERTEX
  5
357
  8
0
  6
CONTINUOUS
 10
237.39099999999999
 20
114.042
 30
0.0
  0
VERTEX
  5
358
  8
0
  6
CONTINUOUS
 10
237.85499999999999
 20
114.11499999999999
 30
0.0
  0
VERTEX
  5
359
  8
0
  6
CONTINUOUS
 10
238.31800000000001
 20
114.042
 30
0.0
  0
VERTEX
  5
35A
  8
0
  6
CONTINUOUS
 10
238.7350000000001
 20
113.83
 30
0.0
  0
VERTEX
  5
35B
  8
0
  6
CONTINUOUS
 10
239.06800000000001
 20
113.498
 30
0.0
  0
VERTEX
  5
35C
  8
0
  6
CONTINUOUS
 10
239.28
 20
113.07899999999999
 30
0.0
  0
VERTEX
  5
35D
  8
0
  6
CONTINUOUS
 10
239.3540000000001
 20
112.616
 30
0.0
  0
VERTEX
  5
35E
  8
0
  6
CONTINUOUS
 10
239.28
 20
112.15300000000011
 30
0.0
  0
VERTEX
  5
35F
  8
0
  6
CONTINUOUS
 10
239.0679999999999
 20
111.7339999999999
 30
0.0
  0
VERTEX
  5
360
  8
0
  6
CONTINUOUS
 10
238.73500000000001
 20
111.402
 30
0.0
  0
VERTEX
  5
361
  8
0
  6
CONTINUOUS
 10
238.31800000000001
 20
111.19
 30
0.0
  0
VERTEX
  5
362
  8
0
  6
CONTINUOUS
 10
237.85499999999999
 20
111.11499999999999
 30
0.0
  0
VERTEX
  5
363
  8
0
  6
CONTINUOUS
 10
237.39099999999999
 20
111.19
 30
0.0
  0
VERTEX
  5
364
  8
0
  6
CONTINUOUS
 10
236.97300000000001
 20
111.402
 30
0.0
  0
VERTEX
  5
365
  8
0
  6
CONTINUOUS
 10
236.64099999999991
 20
111.73399999999999
 30
0.0
  0
SEQEND
  5
366
  8
0
  6
CONTINUOUS
  0
POLYLINE
  5
16F
  8
0
  6
CONTINUOUS
 66
     1
 10
0.0
 20
0.0
 30
0.0
 70
     1
  0
VERTEX
  5
367
  8
0
  6
CONTINUOUS
 10
4.3091100000000031
 20
4.2471299999999976
 30
0.0
  0
VERTEX
  5
368
  8
0
  6
CONTINUOUS
 10
4.5213400000000092
 20
3.8281999999999741
 30
0.0
  0
VERTEX
  5
369
  8
0
  6
CONTINUOUS
 10
4.594369999999997
 20
3.3651700000000409
 30
0.0
  0
VERTEX
  5
36A
  8
0
  6
CONTINUOUS
 10
4.5213400000000092
 20
2.9021500000000131
 30
0.0
  0
VERTEX
  5
36B
  8
0
  6
CONTINUOUS
 10
4.3091099999999889
 20
2.483220000000002
 30
0.0
  0
VERTEX
  5
36C
  8
0
  6
CONTINUOUS
 10
3.9770099999999919
 20
2.1511199999999908
 30
0.0
  0
VERTEX
  5
36D
  8
0
  6
CONTINUOUS
 10
3.5580800000000181
 20
1.9389000000000101
 30
0.0
  0
VERTEX
  5
36E
  8
0
  6
CONTINUOUS
 10
3.0950700000000628
 20
1.8658600000000189
 30
0.0
  0
VERTEX
  5
36F
  8
0
  6
CONTINUOUS
 10
2.632049999999964
 20
1.938900000000003
 30
0.0
  0
VERTEX
  5
370
  8
0
  6
CONTINUOUS
 10
2.2131299999999778
 20
2.151120000000005
 30
0.0
  0
VERTEX
  5
371
  8
0
  6
CONTINUOUS
 10
1.8810199999999631
 20
2.4832199999999882
 30
0.0
  0
VERTEX
  5
372
  8
0
  6
CONTINUOUS
 10
1.668800000000018
 20
2.90214999999997
 30
0.0
  0
VERTEX
  5
373
  8
0
  6
CONTINUOUS
 10
1.5943899999999891
 20
3.3651699999999631
 30
0.0
  0
VERTEX
  5
374
  8
0
  6
CONTINUOUS
 10
1.6688000000000041
 20
3.82820000000003
 30
0.0
  0
VERTEX
  5
375
  8
0
  6
CONTINUOUS
 10
1.8810200000000059
 20
4.2471300000000047
 30
0.0
  0
VERTEX
  5
376
  8
0
  6
CONTINUOUS
 10
2.213129999999992
 20
4.5792299999999946
 30
0.0
  0
VERTEX
  5
377
  8
0
  6
CONTINUOUS
 10
2.63205000000002
 20
4.7914300000000054
 30
0.0
  0
VERTEX
  5
378
  8
0
  6
CONTINUOUS
 10
3.0950700000000211
 20
4.8658600000000121
 30
0.0
  0
VERTEX
  5
379
  8
0
  6
CONTINUOUS
 10
3.5580799999999888
 20
4.7914300000000116
 30
0.0
  0
VERTEX
  5
37A
  8
0
  6
CONTINUOUS
 10
3.977010000000035
 20
4.5792300000000017
 30
0.0
  0
SEQEND
  5
37B
  8
0
  6
CONTINUOUS
  0
POLYLINE
  5
170
  8
0
  6
CONTINUOUS
 66
     1
 10
0.0
 20
0.0
 30
0.0
 70
     1
  0
VERTEX
  5
37C
  8
0
  6
CONTINUOUS
 10
4.3091100000000031
 20
111.73399999999999
 30
0.0
  0
VERTEX
  5
37D
  8
0
  6
CONTINUOUS
 10
3.977009999999964
 20
111.402
 30
0.0
  0
VERTEX
  5
37E
  8
0
  6
CONTINUOUS
 10
3.558080000000003
 20
111.19
 30
0.0
  0
VERTEX
  5
37F
  8
0
  6
CONTINUOUS
 10
3.095070000000006
 20
111.11499999999999
 30
0.0
  0
VERTEX
  5
380
  8
0
  6
CONTINUOUS
 10
2.63205000000002
 20
111.19
 30
0.0
  0
VERTEX
  5
381
  8
0
  6
CONTINUOUS
 10
2.21313000000002
 20
111.402
 30
0.0
  0
VERTEX
  5
382
  8
0
  6
CONTINUOUS
 10
1.8810200000000199
 20
111.73399999999999
 30
0.0
  0
VERTEX
  5
383
  8
0
  6
CONTINUOUS
 10
1.6688000000000041
 20
112.15300000000001
 30
0.0
  0
VERTEX
  5
384
  8
0
  6
CONTINUOUS
 10
1.594390000000004
 20
112.6159999999999
 30
0.0
  0
VERTEX
  5
385
  8
0
  6
CONTINUOUS
 10
1.6687999999999901
 20
113.07899999999989
 30
0.0
  0
VERTEX
  5
386
  8
0
  6
CONTINUOUS
 10
1.8810200000000199
 20
113.498
 30
0.0
  0
VERTEX
  5
387
  8
0
  6
CONTINUOUS
 10
2.2131300000000351
 20
113.83
 30
0.0
  0
VERTEX
  5
388
  8
0
  6
CONTINUOUS
 10
2.6320500000000351
 20
114.042
 30
0.0
  0
VERTEX
  5
389
  8
0
  6
CONTINUOUS
 10
3.0950699999999922
 20
114.11499999999999
 30
0.0
  0
VERTEX
  5
38A
  8
0
  6
CONTINUOUS
 10
3.5580799999999888
 20
114.042
 30
0.0
  0
VERTEX
  5
38B
  8
0
  6
CONTINUOUS
 10
3.9770100000000208
 20
113.83
 30
0.0
  0
VERTEX
  5
38C
  8
0
  6
CONTINUOUS
 10
4.3091100000000182
 20
113.498
 30
0.0
  0
VERTEX
  5
38D
  8
0
  6
CONTINUOUS
 10
4.5213399999999657
 20
113.07899999999999
 30
0.0
  0
VERTEX
  5
38E
  8
0
  6
CONTINUOUS
 10
4.594369999999997
 20
112.616
 30
0.0
  0
VERTEX
  5
38F
  8
0
  6
CONTINUOUS
 10
4.5213400000000226
 20
112.15300000000001
 30
0.0
  0
SEQEND
  5
390
  8
0
  6
CONTINUOUS
  0
POLYLINE
  5
171
  8
0
  6
CONTINUOUS
 66
     1
 10
0.0
 20
0.0
 30
0.0
 70
     1
  0
VERTEX
  5
391
  8
0
  6
CONTINUOUS
 10
120.011
 20
4.7914299999999983
 30
0.0
  0
VERTEX
  5
392
  8
0
  6
CONTINUOUS
 10
120.47499999999999
 20
4.8658599999999899
 30
0.0
  0
VERTEX
  5
393
  8
0
  6
CONTINUOUS
 10
120.9379999999999
 20
4.7914300000000054
 30
0.0
  0
VERTEX
  5
394
  8
0
  6
CONTINUOUS
 10
121.357
 20
4.5792299999999884
 30
0.0
  0
VERTEX
  5
395
  8
0
  6
CONTINUOUS
 10
121.68899999999999
 20
4.2471299999999976
 30
0.0
  0
VERTEX
  5
396
  8
0
  6
CONTINUOUS
 10
121.901
 20
3.8281999999999878
 30
0.0
  0
VERTEX
  5
397
  8
0
  6
CONTINUOUS
 10
121.974
 20
3.3651700000000062
 30
0.0
  0
VERTEX
  5
398
  8
0
  6
CONTINUOUS
 10
121.901
 20
2.9021499999999909
 30
0.0
  0
VERTEX
  5
399
  8
0
  6
CONTINUOUS
 10
121.68899999999999
 20
2.4832200000000242
 30
0.0
  0
VERTEX
  5
39A
  8
0
  6
CONTINUOUS
 10
121.357
 20
2.1511199999999979
 30
0.0
  0
VERTEX
  5
39B
  8
0
  6
CONTINUOUS
 10
120.938
 20
1.938900000000003
 30
0.0
  0
VERTEX
  5
39C
  8
0
  6
CONTINUOUS
 10
120.47499999999999
 20
1.865859999999997
 30
0.0
  0
VERTEX
  5
39D
  8
0
  6
CONTINUOUS
 10
120.011
 20
1.9388999999999961
 30
0.0
  0
VERTEX
  5
39E
  8
0
  6
CONTINUOUS
 10
119.593
 20
2.1511199999999842
 30
0.0
  0
VERTEX
  5
39F
  8
0
  6
CONTINUOUS
 10
119.261
 20
2.483219999999974
 30
0.0
  0
VERTEX
  5
3A0
  8
0
  6
CONTINUOUS
 10
119.047
 20
2.902150000000006
 30
0.0
  0
VERTEX
  5
3A1
  8
0
  6
CONTINUOUS
 10
118.974
 20
3.3651699999999991
 30
0.0
  0
VERTEX
  5
3A2
  8
0
  6
CONTINUOUS
 10
119.047
 20
3.8281999999999878
 30
0.0
  0
VERTEX
  5
3A3
  8
0
  6
CONTINUOUS
 10
119.261
 20
4.2471299999999843
 30
0.0
  0
VERTEX
  5
3A4
  8
0
  6
CONTINUOUS
 10
119.5929999999999
 20
4.5792300000000159
 30
0.0
  0
SEQEND
  5
3A5
  8
0
  6
CONTINUOUS
  0
POLYLINE
  5
172
  8
0
  6
CONTINUOUS
 66
     1
 10
0.0
 20
0.0
 30
0.0
 70
     1
  0
VERTEX
  5
3A6
  8
0
  6
CONTINUOUS
 10
120.011
 20
111.19
 30
0.0
  0
VERTEX
  5
3A7
  8
0
  6
CONTINUOUS
 10
119.5929999999999
 20
111.402
 30
0.0
  0
VERTEX
  5
3A8
  8
0
  6
CONTINUOUS
 10
119.261
 20
111.7339999999999
 30
0.0
  0
VERTEX
  5
3A9
  8
0
  6
CONTINUOUS
 10
119.047
 20
112.15300000000001
 30
0.0
  0
VERTEX
  5
3AA
  8
0
  6
CONTINUOUS
 10
118.974
 20
112.616
 30
0.0
  0
VERTEX
  5
3AB
  8
0
  6
CONTINUOUS
 10
119.047
 20
113.07899999999989
 30
0.0
  0
VERTEX
  5
3AC
  8
0
  6
CONTINUOUS
 10
119.261
 20
113.498
 30
0.0
  0
VERTEX
  5
3AD
  8
0
  6
CONTINUOUS
 10
119.5929999999999
 20
113.83
 30
0.0
  0
VERTEX
  5
3AE
  8
0
  6
CONTINUOUS
 10
120.011
 20
114.042
 30
0.0
  0
VERTEX
  5
3AF
  8
0
  6
CONTINUOUS
 10
120.47499999999989
 20
114.11499999999999
 30
0.0
  0
VERTEX
  5
3B0
  8
0
  6
CONTINUOUS
 10
120.938
 20
114.042
 30
0.0
  0
VERTEX
  5
3B1
  8
0
  6
CONTINUOUS
 10
121.357
 20
113.83
 30
0.0
  0
VERTEX
  5
3B2
  8
0
  6
CONTINUOUS
 10
121.68899999999999
 20
113.49799999999991
 30
0.0
  0
VERTEX
  5
3B3
  8
0
  6
CONTINUOUS
 10
121.901
 20
113.07899999999989
 30
0.0
  0
VERTEX
  5
3B4
  8
0
  6
CONTINUOUS
 10
121.974
 20
112.616
 30
0.0
  0
VERTEX
  5
3B5
  8
0
  6
CONTINUOUS
 10
121.901
 20
112.15300000000001
 30
0.0
  0
VERTEX
  5
3B6
  8
0
  6
CONTINUOUS
 10
121.68899999999999
 20
111.73399999999999
 30
0.0
  0
VERTEX
  5
3B7
  8
0
  6
CONTINUOUS
 10
121.357
 20
111.402
 30
0.0
  0
VERTEX
  5
3B8
  8
0
  6
CONTINUOUS
 10
120.938
 20
111.19
 30
0.0
  0
VERTEX
  5
3B9
  8
0
  6
CONTINUOUS
 10
120.47499999999999
 20
111.11499999999999
 30
0.0
  0
SEQEND
  5
3BA
  8
0
  6
CONTINUOUS
  0
POLYLINE
  5
17B
  8
0
  6
CONTINUOUS
 66
     1
 10
0.0
 20
0.0
 30
0.0
 70
     1
  0
VERTEX
  5
3BE
  8
0
  6
CONTINUOUS
 10
361.23200000000003
 20
112.66048174408169
 30
0.0
  0
VERTEX
  5
3BF
  8
0
  6
CONTINUOUS
 10
361.2195133334875
 20
113.0814607865066
 30
0.0
  0
VERTEX
  5
3C0
  8
0
  6
CONTINUOUS
 10
361.1603210531772
 20
113.5590812552158
 30
0.0
  0
VERTEX
  5
3C1
  8
0
  6
CONTINUOUS
 10
361.07166450546032
 20
114.0122147213243
 30
0.0
  0
VERTEX
  5
3C2
  8
0
  6
CONTINUOUS
 10
360.94327783133639
 20
114.4675862061068
 30
0.0
  0
VERTEX
  5
3C3
  8
0
  6
CONTINUOUS
 10
360.78042251884648
 20
114.91191983648019
 30
0.0
  0
VERTEX
  5
3C4
  8
0
  6
CONTINUOUS
 10
360.5796306578398
 20
115.34595476835371
 30
0.0
  0
VERTEX
  5
3C5
  8
0
  6
CONTINUOUS
 10
360.34884371658381
 20
115.7558005433427
 30
0.0
  0
VERTEX
  5
3C6
  8
0
  6
CONTINUOUS
 10
360.09395334534781
 20
116.1371632361848
 30
0.0
  0
VERTEX
  5
3C7
  8
0
  6
CONTINUOUS
 10
359.79648603910528
 20
116.5193260948991
 30
0.0
  0
VERTEX
  5
3C8
  8
0
  6
CONTINUOUS
 10
359.4657183508773
 20
116.870386279337
 30
0.0
  0
VERTEX
  5
3C9
  8
0
  6
CONTINUOUS
 10
359.13655965665703
 20
117.1748105052056
 30
0.0
  0
VERTEX
  5
3CA
  8
0
  6
CONTINUOUS
 10
358.75950195453538
 20
117.47563249706241
 30
0.0
  0
VERTEX
  5
3CB
  8
0
  6
CONTINUOUS
 10
358.36531523881058
 20
117.7344419568816
 30
0.0
  0
VERTEX
  5
3CC
  8
0
  6
CONTINUOUS
 10
357.95627688275249
 20
117.9670323946403
 30
0.0
  0
VERTEX
  5
3CD
  8
0
  6
CONTINUOUS
 10
357.52955249929568
 20
118.1595545583391
 30
0.0
  0
VERTEX
  5
3CE
  8
0
  6
CONTINUOUS
 10
357.09729177142492
 20
118.3233794004088
 30
0.0
  0
VERTEX
  5
3CF
  8
0
  6
CONTINUOUS
 10
356.63531341845197
 20
118.4521609766802
 30
0.0
  0
VERTEX
  5
3D0
  8
0
  6
CONTINUOUS
 10
356.16584622085452
 20
118.54686036847021
 30
0.0
  0
VERTEX
  5
3D1
  8
0
  6
CONTINUOUS
 10
355.69912389557618
 20
118.598940971291
 30
0.0
  0
VERTEX
  5
3D2
  8
0
  6
CONTINUOUS
 10
355.29653081804508
 20
118.616
 30
0.0
  0
VERTEX
  5
3D3
  8
0
  6
CONTINUOUS
 10
3.0314422096959102
 20
118.616
 30
0.0
  0
VERTEX
  5
3D4
  8
0
  6
CONTINUOUS
 10
2.6301061959274099
 20
118.59896825607839
 30
0.0
  0
VERTEX
  5
3D5
  8
0
  6
CONTINUOUS
 10
2.1585847779281901
 20
118.5466373692043
 30
0.0
  0
VERTEX
  5
3D6
  8
0
  6
CONTINUOUS
 10
1.6935319958602779
 20
118.4516585278659
 30
0.0
  0
VERTEX
  5
3D7
  8
0
  6
CONTINUOUS
 10
1.2367907230188619
 20
118.32510957813869
 30
0.0
  0
VERTEX
  5
3D8
  8
0
  6
CONTINUOUS
 10
0.7972156798102204
 20
118.1596309470323
 30
0.0
  0
VERTEX
  5
3D9
  8
0
  6
CONTINUOUS
 10
0.3767913459237943
 20
117.96870791151279
 30
0.0
  0
VERTEX
  5
3DA
  8
0
  6
CONTINUOUS
 10
-0.0394762415259418
 20
117.7350986219908
 30
0.0
  0
VERTEX
  5
3DB
  8
0
  6
CONTINUOUS
 10
-0.4321754916783256
 20
117.4742088912068
 30
0.0
  0
VERTEX
  5
3DC
  8
0
  6
CONTINUOUS
 10
-0.8030246352447072
 20
117.1809998856798
 30
0.0
  0
VERTEX
  5
3DD
  8
0
  6
CONTINUOUS
 10
-1.148689699376882
 20
116.8624806254965
 30
0.0
  0
VERTEX
  5
3DE
  8
0
  6
CONTINUOUS
 10
-1.4693567533616021
 20
116.5154361882434
 30
0.0
  0
VERTEX
  5
3DF
  8
0
  6
CONTINUOUS
 10
-1.7660178609381529
 20
116.1397127051319
 30
0.0
  0
VERTEX
  5
3E0
  8
0
  6
CONTINUOUS
 10
-2.0249680113890332
 20
115.7478970748177
 30
0.0
  0
VERTEX
  5
3E1
  8
0
  6
CONTINUOUS
 10
-2.254810016091533
 20
115.33887254093391
 30
0.0
  0
VERTEX
  5
3E2
  8
0
  6
CONTINUOUS
 10
-2.4487165932633959
 20
114.9147514502276
 30
0.0
  0
VERTEX
  5
3E3
  8
0
  6
CONTINUOUS
 10
-2.6137038535615171
 20
114.4737584345051
 30
0.0
  0
VERTEX
  5
3E4
  8
0
  6
CONTINUOUS
 10
-2.7404860196375971
 20
114.01975067777239
 30
0.0
  0
VERTEX
  5
3E5
  8
0
  6
CONTINUOUS
 10
-2.8355370272506648
 20
113.5531480749295
 30
0.0
  0
VERTEX
  5
3E6
  8
0
  6
CONTINUOUS
 10
-2.8884405955441559
 20
113.08034377516751
 30
0.0
  0
VERTEX
  5
3E7
  8
0
  6
CONTINUOUS
 10
-2.9049153999999779
 20
112.67728627686959
 30
0.0
  0
VERTEX
  5
3E8
  8
0
  6
CONTINUOUS
 10
-2.9049153999999779
 20
3.303792773583083
 30
0.0
  0
VERTEX
  5
3E9
  8
0
  6
CONTINUOUS
 10
-2.8884380080098788
 20
2.9012698196870561
 30
0.0
  0
VERTEX
  5
3EA
  8
0
  6
CONTINUOUS
 10
-2.8355922720332472
 20
2.4284576090975989
 30
0.0
  0
VERTEX
  5
3EB
  8
0
  6
CONTINUOUS
 10
-2.7406603879668459
 20
1.9621763788623401
 30
0.0
  0
VERTEX
  5
3EC
  8
0
  6
CONTINUOUS
 10
-2.6136255837636182
 20
1.506502395903569
 30
0.0
  0
VERTEX
  5
3ED
  8
0
  6
CONTINUOUS
 10
-2.4478600274666462
 20
1.0644515564475421
 30
0.0
  0
VERTEX
  5
3EE
  8
0
  6
CONTINUOUS
 10
-2.255194522020505
 20
0.6438523607369695
 30
0.0
  0
VERTEX
  5
3EF
  8
0
  6
CONTINUOUS
 10
-2.0256320278561191
 20
0.233917210649899
 30
0.0
  0
VERTEX
  5
3F0
  8
0
  6
CONTINUOUS
 10
-1.764575507392466
 20
-0.1604406506728069
 30
0.0
  0
VERTEX
  5
3F1
  8
0
  6
CONTINUOUS
 10
-1.4701327103223689
 20
-0.532669271734005
 30
0.0
  0
VERTEX
  5
3F2
  8
0
  6
CONTINUOUS
 10
-1.1502156709568561
 20
-0.8801628472825576
 30
0.0
  0
VERTEX
  5
3F3
  8
0
  6
CONTINUOUS
 10
-0.8027463574671564
 20
-1.2000444948744831
 30
0.0
  0
VERTEX
  5
3F4
  8
0
  6
CONTINUOUS
 10
-0.4305431720790826
 20
-1.4944732184879159
 30
0.0
  0
VERTEX
  5
3F5
  8
0
  6
CONTINUOUS
 10
-0.0361847827323747
 20
-1.755530088491958
 30
0.0
  0
VERTEX
  5
3F6
  8
0
  6
CONTINUOUS
 10
0.3737472995645575
 20
-1.9850960210234061
 30
0.0
  0
VERTEX
  5
3F7
  8
0
  6
CONTINUOUS
 10
0.7943606571974011
 20
-2.17776490094304
 30
0.0
  0
VERTEX
  5
3F8
  8
0
  6
CONTINUOUS
 10
1.2363865805178469
 20
-2.343524622188343
 30
0.0
  0
VERTEX
  5
3F9
  8
0
  6
CONTINUOUS
 10
1.6920764095463701
 20
-2.4705658481182651
 30
0.0
  0
VERTEX
  5
3FA
  8
0
  6
CONTINUOUS
 10
2.1583645722467182
 20
-2.565497117395735
 30
0.0
  0
VERTEX
  5
3FB
  8
0
  6
CONTINUOUS
 10
2.6311868285983522
 20
-2.6183437386460229
 30
0.0
  0
VERTEX
  5
3FC
  8
0
  6
CONTINUOUS
 10
3.033699071775775
 20
-2.6348189999999931
 30
0.0
  0
VERTEX
  5
3FD
  8
0
  6
CONTINUOUS
 10
355.29427738969702
 20
-2.6348189999999931
 30
0.0
  0
VERTEX
  5
3FE
  8
0
  6
CONTINUOUS
 10
355.6980529918809
 20
-2.6183172386310929
 30
0.0
  0
VERTEX
  5
3FF
  8
0
  6
CONTINUOUS
 10
356.16608356125499
 20
-2.565721047950857
 30
0.0
  0
VERTEX
  5
400
  8
0
  6
CONTINUOUS
 10
356.6367931705804
 20
-2.4710700324310939
 30
0.0
  0
VERTEX
  5
401
  8
0
  6
CONTINUOUS
 10
357.09769723645752
 20
-2.3417905207496972
 30
0.0
  0
VERTEX
  5
402
  8
0
  6
CONTINUOUS
 10
357.53237280005061
 20
-2.1776856093438131
 30
0.0
  0
VERTEX
  5
403
  8
0
  6
CONTINUOUS
 10
357.95928027772072
 20
-1.9834069659125
 30
0.0
  0
VERTEX
  5
404
  8
0
  6
CONTINUOUS
 10
358.36203003027703
 20
-1.754878069553121
 30
0.0
  0
VERTEX
  5
405
  8
0
  6
CONTINUOUS
 10
358.75788640473678
 20
-1.49590003257305
 30
0.0
  0
VERTEX
  5
406
  8
0
  6
CONTINUOUS
 10
359.13628326083608
 20
-1.1938566317105239
 30
0.0
  0
VERTEX
  5
407
  8
0
  6
CONTINUOUS
 10
359.46723791005462
 20
-0.888058361897027
 30
0.0
  0
VERTEX
  5
408
  8
0
  6
CONTINUOUS
 10
359.79724355280428
 20
-0.5365314922619896
 30
0.0
  0
VERTEX
  5
409
  8
0
  6
CONTINUOUS
 10
360.09251155016602
 20
-0.1578912950897511
 30
0.0
  0
VERTEX
  5
40A
  8
0
  6
CONTINUOUS
 10
360.34951540501982
 20
0.2260057607711488
 30
0.0
  0
VERTEX
  5
40B
  8
0
  6
CONTINUOUS
 10
360.58002012909338
 20
0.636761204850578
 30
0.0
  0
VERTEX
  5
40C
  8
0
  6
CONTINUOUS
 10
360.7795723182096
 20
1.067290013671649
 30
0.0
  0
VERTEX
  5
40D
  8
0
  6
CONTINUOUS
 10
360.94319939404409
 20
1.5126990747924409
 30
0.0
  0
VERTEX
  5
40E
  8
0
  6
CONTINUOUS
 10
361.07183377796201
 20
1.9697129219052281
 30
0.0
  0
VERTEX
  5
40F
  8
0
  6
CONTINUOUS
 10
361.16037976015679
 20
2.4225370748503749
 30
0.0
  0
VERTEX
  5
410
  8
0
  6
CONTINUOUS
 10
361.21951124224699
 20
2.9001971091415548
 30
0.0
  0
VERTEX
  5
411
  8
0
  6
CONTINUOUS
 10
361.23200000000003
 20
3.320622218358253
 30
0.0
  0
SEQEND
  5
412
  8
0
  6
CONTINUOUS
  0
ENDSEC
  0
EOF
