  0
SECTION
  2
HEADER
  9
$ACADVER
  1
AC1009
  9
$INSBASE
 10
0.0
 20
0.0
 30
0.0
  9
$EXTMIN
 10
-2.904915400000021
 20
-2.6348189999999998
 30
0.0
  9
$EXTMAX
 10
852.23299999999995
 20
118.616
 30
0.0
  9
$LIMMIN
 10
0.0
 20
0.0
  9
$LIMMAX
 10
12.0
 20
9.0
  9
$ORTHOMODE
 70
     1
  9
$REGENMODE
 70
     1
  9
$FILLMODE
 70
     0
  9
$QTEXTMODE
 70
     0
  9
$MIRRTEXT
 70
     0
  9
$DRAGMODE
 70
     2
  9
$LTSCALE
 40
1.0
  9
$OSMODE
 70
   167
  9
$ATTMODE
 70
     1
  9
$TEXTSIZE
 40
0.2
  9
$TRACEWID
 40
0.05
  9
$TEXTSTYLE
  7
STANDARD
  9
$CLAYER
  8
0
  9
$CELTYPE
  6
CONTINUOUS
  9
$CECOLOR
 62
   256
  9
$DIMSCALE
 40
1.0
  9
$DIMASZ
 40
0.18
  9
$DIMEXO
 40
0.0625
  9
$DIMDLI
 40
0.38
  9
$DIMRND
 40
0.0
  9
$DIMDLE
 40
0.0
  9
$DIMEXE
 40
0.18
  9
$DIMTP
 40
0.0
  9
$DIMTM
 40
0.0
  9
$DIMTXT
 40
0.18
  9
$DIMCEN
 40
0.09
  9
$DIMTSZ
 40
0.0
  9
$DIMTOL
 70
     0
  9
$DIMLIM
 70
     0
  9
$DIMTIH
 70
     1
  9
$DIMTOH
 70
     1
  9
$DIMSE1
 70
     0
  9
$DIMSE2
 70
     0
  9
$DIMTAD
 70
     0
  9
$DIMZIN
 70
     0
  9
$DIMBLK
  1

  9
$DIMASO
 70
     1
  9
$DIMSHO
 70
     1
  9
$DIMPOST
  1

  9
$DIMAPOST
  1

  9
$DIMALT
 70
     0
  9
$DIMALTD
 70
     2
  9
$DIMALTF
 40
25.399999999999999
  9
$DIMLFAC
 40
1.0
  9
$DIMTOFL
 70
     0
  9
$DIMTVP
 40
0.0
  9
$DIMTIX
 70
     0
  9
$DIMSOXD
 70
     0
  9
$DIMSAH
 70
     0
  9
$DIMBLK1
  1

  9
$DIMBLK2
  1

  9
$DIMSTYLE
  2
STANDARD
  9
$DIMCLRD
 70
     0
  9
$DIMCLRE
 70
     0
  9
$DIMCLRT
 70
     0
  9
$DIMTFAC
 40
1.0
  9
$DIMGAP
 40
0.09
  9
$LUNITS
 70
     2
  9
$LUPREC
 70
     4
  9
$SKETCHINC
 40
0.1
  9
$FILLETRAD
 40
0.0
  9
$AUNITS
 70
     0
  9
$AUPREC
 70
     0
  9
$MENU
  1
.
  9
$ELEVATION
 40
0.0
  9
$PELEVATION
 40
0.0
  9
$THICKNESS
 40
0.0
  9
$LIMCHECK
 70
     0
  9
$BLIPMODE
 70
     0
  9
$CHAMFERA
 40
0.0
  9
$CHAMFERB
 40
0.0
  9
$SKPOLY
 70
     0
  9
$TDCREATE
 40
2459290.6961177778
  9
$TDUPDATE
 40
2459290.7001086571
  9
$TDINDWG
 40
0.0039938889
  9
$TDUSRTIMER
 40
0.0039938889
  9
$USRTIMER
 70
     1
  9
$ANGBASE
 50
0.0
  9
$ANGDIR
 70
     0
  9
$PDMODE
 70
     0
  9
$PDSIZE
 40
0.0
  9
$PLINEWID
 40
0.0
  9
$COORDS
 70
     1
  9
$SPLFRAME
 70
     1
  9
$SPLINETYPE
 70
     6
  9
$SPLINESEGS
 70
     8
  9
$ATTDIA
 70
     1
  9
$ATTREQ
 70
     1
  9
$HANDLING
 70
     1
  9
$HANDSEED
  5
2E5
  9
$SURFTAB1
 70
     6
  9
$SURFTAB2
 70
     6
  9
$SURFTYPE
 70
     6
  9
$SURFU
 70
     6
  9
$SURFV
 70
     6
  9
$UCSNAME
  2

  9
$UCSORG
 10
0.0
 20
0.0
 30
0.0
  9
$UCSXDIR
 10
1.0
 20
0.0
 30
0.0
  9
$UCSYDIR
 10
0.0
 20
1.0
 30
0.0
  9
$PUCSNAME
  2

  9
$PUCSORG
 10
0.0
 20
0.0
 30
0.0
  9
$PUCSXDIR
 10
1.0
 20
0.0
 30
0.0
  9
$PUCSYDIR
 10
0.0
 20
1.0
 30
0.0
  9
$USERI1
 70
     0
  9
$USERI2
 70
     0
  9
$USERI3
 70
     0
  9
$USERI4
 70
     0
  9
$USERI5
 70
     0
  9
$USERR1
 40
0.0
  9
$USERR2
 40
0.0
  9
$USERR3
 40
0.0
  9
$USERR4
 40
0.0
  9
$USERR5
 40
0.0
  9
$WORLDVIEW
 70
     1
  9
$SHADEDGE
 70
     3
  9
$SHADEDIF
 70
    70
  9
$TILEMODE
 70
     1
  9
$MAXACTVP
 70
    64
  9
$PLIMCHECK
 70
     0
  9
$PEXTMIN
 10
1.0000000000000000E+020
 20
1.0000000000000000E+020
 30
1.0000000000000000E+020
  9
$PEXTMAX
 10
-1.0000000000000000E+020
 20
-1.0000000000000000E+020
 30
-1.0000000000000000E+020
  9
$PLIMMIN
 10
0.0
 20
0.0
  9
$PLIMMAX
 10
12.0
 20
9.0
  9
$UNITMODE
 70
     0
  9
$VISRETAIN
 70
     1
  9
$PLINEGEN
 70
     0
  9
$PSLTSCALE
 70
     1
  0
ENDSEC
  0
SECTION
  2
TABLES
  0
TABLE
  2
VPORT
 70
     1
  0
VPORT
  2
*ACTIVE
 70
     0
 10
0.0
 20
0.0
 11
1.0
 21
1.0
 12
-37.442684445908533
 22
102.9764521171891
 13
0.0
 23
0.0
 14
1.0
 24
1.0
 15
0.0
 25
0.0
 16
0.0
 26
0.0
 36
1.0
 17
0.0
 27
0.0
 37
0.0
 40
1713.4672711214359
 41
2.5847619047619039
 42
50.0
 43
0.0
 44
0.0
 50
0.0
 51
0.0
 71
     0
 72
   100
 73
     1
 74
     1
 75
     0
 76
     0
 77
     0
 78
     0
  0
ENDTAB
  0
TABLE
  2
LTYPE
 70
     2
  0
LTYPE
  2
CONTINUOUS
 70
     0
  3
Solid line
 72
    65
 73
     0
 40
0.0
  0
ENDTAB
  0
TABLE
  2
LAYER
 70
     1
  0
LAYER
  2
0
 70
     0
 62
     7
  6
CONTINUOUS
  0
ENDTAB
  0
TABLE
  2
STYLE
 70
     2
  0
STYLE
  2
STANDARD
 70
     0
 40
0.0
 41
1.0
 50
0.0
 71
     0
 42
0.2
  3
txt
  4

  0
STYLE
  2
ANNOTATIVE
 70
     0
 40
0.0
 41
1.0
 50
0.0
 71
     0
 42
0.2
  3
txt
  4

  0
ENDTAB
  0
TABLE
  2
VIEW
 70
     0
  0
ENDTAB
  0
TABLE
  2
UCS
 70
     0
  0
ENDTAB
  0
TABLE
  2
APPID
 70
     5
  0
APPID
  2
ACAD
 70
     0
  0
APPID
  2
ACADANNOTATIVE
 70
     0
  0
APPID
  2
ACAD_EXEMPT_FROM_CAD_STANDARDS
 70
     0
  0
APPID
  2
ACAD_NAV_VCDISPLAY
 70
     0
  0
APPID
  2
ACAD_MLEADERVER
 70
     0
  0
ENDTAB
  0
TABLE
  2
DIMSTYLE
 70
     3
  0
DIMSTYLE
  2
STANDARD
 70
     0
  3

  4

  5

  6

  7

 40
1.0
 41
0.18
 42
0.0625
 43
0.38
 44
0.18
 45
0.0
 46
0.0
 47
0.0
 48
0.0
140
0.18
141
0.09
142
0.0
143
25.399999999999999
144
1.0
145
0.0
146
1.0
147
0.09
 71
     0
 72
     0
 73
     1
 74
     1
 75
     0
 76
     0
 77
     0
 78
     0
170
     0
171
     2
172
     0
173
     0
174
     0
175
     0
176
     0
177
     0
178
     0
  0
DIMSTYLE
  2
ANNOTATIVE
 70
     0
  3

  4

  5

  6

  7

 40
1.0
 41
0.18
 42
0.0625
 43
0.38
 44
0.18
 45
0.0
 46
0.0
 47
0.0
 48
0.0
140
0.18
141
0.09
142
0.0
143
25.399999999999999
144
1.0
145
0.0
146
1.0
147
0.09
 71
     0
 72
     0
 73
     1
 74
     1
 75
     0
 76
     0
 77
     0
 78
     0
170
     0
171
     2
172
     0
173
     0
174
     0
175
     0
176
     0
177
     0
178
     0
  0
ENDTAB
  0
ENDSEC
  0
SECTION
  2
BLOCKS
  0
BLOCK
  8
0
  2
$MODEL_SPACE
 70
     0
 10
0.0
 20
0.0
 30
0.0
  3
$MODEL_SPACE
  1

  0
ENDBLK
  5
71
  8
0
  0
BLOCK
 67
     1
  8
0
  2
$PAPER_SPACE
 70
     0
 10
0.0
 20
0.0
 30
0.0
  3
$PAPER_SPACE
  1

  0
ENDBLK
  5
6D
 67
     1
  8
0
  0
ENDSEC
  0
SECTION
  2
ENTITIES
  0
LINE
  5
C9
  8
0
 62
     0
 10
2.63205
 20
4.7914300000000001
 30
0.0
 11
2.21313
 21
4.579229999999999
 31
0.0
  0
LINE
  5
CA
  8
0
 62
     0
 10
2.21313
 20
4.579229999999999
 30
0.0
 11
1.8810199999999999
 21
4.2471300000000003
 31
0.0
  0
LINE
  5
CB
  8
0
 62
     0
 10
1.8810199999999999
 20
4.2471300000000003
 30
0.0
 11
1.6688000000000001
 21
3.8281999999999989
 31
0.0
  0
LINE
  5
CC
  8
0
 62
     0
 10
1.6688000000000001
 20
3.8281999999999989
 30
0.0
 11
1.5943899999999991
 21
3.3651699999999991
 31
0.0
  0
LINE
  5
CD
  8
0
 62
     0
 10
1.5943899999999991
 20
3.3651699999999991
 30
0.0
 11
1.6688000000000001
 21
2.9021499999999989
 31
0.0
  0
LINE
  5
CE
  8
0
 62
     0
 10
1.6688000000000001
 20
2.9021499999999989
 30
0.0
 11
1.8810199999999999
 21
2.4832200000000002
 31
0.0
  0
LINE
  5
CF
  8
0
 62
     0
 10
1.8810199999999999
 20
2.4832200000000002
 30
0.0
 11
2.21313
 21
2.1511200000000001
 31
0.0
  0
LINE
  5
D0
  8
0
 62
     0
 10
2.21313
 20
2.1511200000000001
 30
0.0
 11
2.63205
 21
1.9389000000000001
 31
0.0
  0
LINE
  5
D1
  8
0
 62
     0
 10
2.63205
 20
1.9389000000000001
 30
0.0
 11
3.0950700000000002
 21
1.865859999999999
 31
0.0
  0
LINE
  5
D2
  8
0
 62
     0
 10
3.0950700000000002
 20
1.865859999999999
 30
0.0
 11
3.5580799999999999
 21
1.9389000000000001
 31
0.0
  0
LINE
  5
D3
  8
0
 62
     0
 10
3.5580799999999999
 20
1.9389000000000001
 30
0.0
 11
3.977009999999999
 21
2.1511200000000001
 31
0.0
  0
LINE
  5
D4
  8
0
 62
     0
 10
3.977009999999999
 20
2.1511200000000001
 30
0.0
 11
4.3091099999999987
 21
2.4832200000000002
 31
0.0
  0
LINE
  5
D5
  8
0
 62
     0
 10
4.3091099999999987
 20
2.4832200000000002
 30
0.0
 11
4.5213400000000004
 21
2.9021499999999989
 31
0.0
  0
LINE
  5
D6
  8
0
 62
     0
 10
4.5213400000000004
 20
2.9021499999999989
 30
0.0
 11
4.5943699999999987
 21
3.3651699999999991
 31
0.0
  0
LINE
  5
D7
  8
0
 62
     0
 10
4.5943699999999987
 20
3.3651699999999991
 30
0.0
 11
4.5213400000000004
 21
3.8281999999999989
 31
0.0
  0
LINE
  5
D8
  8
0
 62
     0
 10
4.5213400000000004
 20
3.8281999999999989
 30
0.0
 11
4.3091099999999987
 21
4.2471300000000003
 31
0.0
  0
LINE
  5
D9
  8
0
 62
     0
 10
4.3091099999999987
 20
4.2471300000000003
 30
0.0
 11
3.977009999999999
 21
4.579229999999999
 31
0.0
  0
LINE
  5
DA
  8
0
 62
     0
 10
3.977009999999999
 20
4.579229999999999
 30
0.0
 11
3.5580799999999999
 21
4.7914300000000001
 31
0.0
  0
LINE
  5
DB
  8
0
 62
     0
 10
3.5580799999999999
 20
4.7914300000000001
 30
0.0
 11
3.0950700000000002
 21
4.8658599999999987
 31
0.0
  0
LINE
  5
DC
  8
0
 62
     0
 10
3.0950700000000002
 20
4.8658599999999987
 30
0.0
 11
2.63205
 21
4.7914300000000001
 31
0.0
  0
LINE
  5
DD
  8
0
 62
     0
 10
120.011
 20
4.7914300000000001
 30
0.0
 11
119.593
 21
4.579229999999999
 31
0.0
  0
LINE
  5
DE
  8
0
 62
     0
 10
119.593
 20
4.579229999999999
 30
0.0
 11
119.261
 21
4.2471300000000003
 31
0.0
  0
LINE
  5
DF
  8
0
 62
     0
 10
119.261
 20
4.2471300000000003
 30
0.0
 11
119.047
 21
3.8281999999999989
 31
0.0
  0
LINE
  5
E0
  8
0
 62
     0
 10
119.047
 20
3.8281999999999989
 30
0.0
 11
118.974
 21
3.3651699999999991
 31
0.0
  0
LINE
  5
E1
  8
0
 62
     0
 10
118.974
 20
3.3651699999999991
 30
0.0
 11
119.047
 21
2.9021499999999989
 31
0.0
  0
LINE
  5
E2
  8
0
 62
     0
 10
119.047
 20
2.9021499999999989
 30
0.0
 11
119.261
 21
2.4832200000000002
 31
0.0
  0
LINE
  5
E3
  8
0
 62
     0
 10
119.261
 20
2.4832200000000002
 30
0.0
 11
119.593
 21
2.1511200000000001
 31
0.0
  0
LINE
  5
E4
  8
0
 62
     0
 10
119.593
 20
2.1511200000000001
 30
0.0
 11
120.011
 21
1.9389000000000001
 31
0.0
  0
LINE
  5
E5
  8
0
 62
     0
 10
120.011
 20
1.9389000000000001
 30
0.0
 11
120.47499999999999
 21
1.865859999999999
 31
0.0
  0
LINE
  5
E6
  8
0
 62
     0
 10
120.47499999999999
 20
1.865859999999999
 30
0.0
 11
120.938
 21
1.9389000000000001
 31
0.0
  0
LINE
  5
E7
  8
0
 62
     0
 10
120.938
 20
1.9389000000000001
 30
0.0
 11
121.357
 21
2.1511200000000001
 31
0.0
  0
LINE
  5
E8
  8
0
 62
     0
 10
121.357
 20
2.1511200000000001
 30
0.0
 11
121.68899999999999
 21
2.4832200000000002
 31
0.0
  0
LINE
  5
E9
  8
0
 62
     0
 10
121.68899999999999
 20
2.4832200000000002
 30
0.0
 11
121.901
 21
2.9021499999999989
 31
0.0
  0
LINE
  5
EA
  8
0
 62
     0
 10
121.901
 20
2.9021499999999989
 30
0.0
 11
121.974
 21
3.3651699999999991
 31
0.0
  0
LINE
  5
EB
  8
0
 62
     0
 10
121.974
 20
3.3651699999999991
 30
0.0
 11
121.901
 21
3.8281999999999989
 31
0.0
  0
LINE
  5
EC
  8
0
 62
     0
 10
121.901
 20
3.8281999999999989
 30
0.0
 11
121.68899999999999
 21
4.2471300000000003
 31
0.0
  0
LINE
  5
ED
  8
0
 62
     0
 10
121.68899999999999
 20
4.2471300000000003
 30
0.0
 11
121.357
 21
4.579229999999999
 31
0.0
  0
LINE
  5
EE
  8
0
 62
     0
 10
121.357
 20
4.579229999999999
 30
0.0
 11
120.938
 21
4.7914300000000001
 31
0.0
  0
LINE
  5
EF
  8
0
 62
     0
 10
120.938
 20
4.7914300000000001
 30
0.0
 11
120.47499999999999
 21
4.8658599999999987
 31
0.0
  0
LINE
  5
F0
  8
0
 62
     0
 10
120.47499999999999
 20
4.8658599999999987
 30
0.0
 11
120.011
 21
4.7914300000000001
 31
0.0
  0
LINE
  5
F1
  8
0
 62
     0
 10
237.39099999999999
 20
4.7914300000000001
 30
0.0
 11
236.97300000000001
 21
4.579229999999999
 31
0.0
  0
LINE
  5
F2
  8
0
 62
     0
 10
236.97300000000001
 20
4.579229999999999
 30
0.0
 11
236.64099999999999
 21
4.2471300000000003
 31
0.0
  0
LINE
  5
F3
  8
0
 62
     0
 10
236.64099999999999
 20
4.2471300000000003
 30
0.0
 11
236.42699999999999
 21
3.8281999999999989
 31
0.0
  0
LINE
  5
F4
  8
0
 62
     0
 10
236.42699999999999
 20
3.8281999999999989
 30
0.0
 11
236.35400000000001
 21
3.3651699999999991
 31
0.0
  0
LINE
  5
F5
  8
0
 62
     0
 10
236.35400000000001
 20
3.3651699999999991
 30
0.0
 11
236.42699999999999
 21
2.9021499999999989
 31
0.0
  0
LINE
  5
F6
  8
0
 62
     0
 10
236.42699999999999
 20
2.9021499999999989
 30
0.0
 11
236.64099999999999
 21
2.4832200000000002
 31
0.0
  0
LINE
  5
F7
  8
0
 62
     0
 10
236.64099999999999
 20
2.4832200000000002
 30
0.0
 11
236.97300000000001
 21
2.1511200000000001
 31
0.0
  0
LINE
  5
F8
  8
0
 62
     0
 10
236.97300000000001
 20
2.1511200000000001
 30
0.0
 11
237.39099999999999
 21
1.9389000000000001
 31
0.0
  0
LINE
  5
F9
  8
0
 62
     0
 10
237.39099999999999
 20
1.9389000000000001
 30
0.0
 11
237.85499999999999
 21
1.865859999999999
 31
0.0
  0
LINE
  5
FA
  8
0
 62
     0
 10
237.85499999999999
 20
1.865859999999999
 30
0.0
 11
238.31800000000001
 21
1.9389000000000001
 31
0.0
  0
LINE
  5
FB
  8
0
 62
     0
 10
238.31800000000001
 20
1.9389000000000001
 30
0.0
 11
238.73500000000001
 21
2.1511200000000001
 31
0.0
  0
LINE
  5
FC
  8
0
 62
     0
 10
238.73500000000001
 20
2.1511200000000001
 30
0.0
 11
239.06800000000001
 21
2.4832200000000002
 31
0.0
  0
LINE
  5
FD
  8
0
 62
     0
 10
239.06800000000001
 20
2.4832200000000002
 30
0.0
 11
239.28
 21
2.9021499999999989
 31
0.0
  0
LINE
  5
FE
  8
0
 62
     0
 10
239.28
 20
2.9021499999999989
 30
0.0
 11
239.35400000000001
 21
3.3651699999999991
 31
0.0
  0
LINE
  5
FF
  8
0
 62
     0
 10
239.35400000000001
 20
3.3651699999999991
 30
0.0
 11
239.28
 21
3.8281999999999989
 31
0.0
  0
LINE
  5
100
  8
0
 62
     0
 10
239.28
 20
3.8281999999999989
 30
0.0
 11
239.06800000000001
 21
4.2471300000000003
 31
0.0
  0
LINE
  5
101
  8
0
 62
     0
 10
239.06800000000001
 20
4.2471300000000003
 30
0.0
 11
238.73500000000001
 21
4.579229999999999
 31
0.0
  0
LINE
  5
102
  8
0
 62
     0
 10
238.73500000000001
 20
4.579229999999999
 30
0.0
 11
238.31800000000001
 21
4.7914300000000001
 31
0.0
  0
LINE
  5
103
  8
0
 62
     0
 10
238.31800000000001
 20
4.7914300000000001
 30
0.0
 11
237.85499999999999
 21
4.8658599999999987
 31
0.0
  0
LINE
  5
104
  8
0
 62
     0
 10
237.85499999999999
 20
4.8658599999999987
 30
0.0
 11
237.39099999999999
 21
4.7914300000000001
 31
0.0
  0
LINE
  5
105
  8
0
 62
     0
 10
354.767
 20
4.7914300000000001
 30
0.0
 11
354.351
 21
4.579229999999999
 31
0.0
  0
LINE
  5
106
  8
0
 62
     0
 10
354.351
 20
4.579229999999999
 30
0.0
 11
354.01999999999998
 21
4.2471300000000003
 31
0.0
  0
LINE
  5
107
  8
0
 62
     0
 10
354.01999999999998
 20
4.2471300000000003
 30
0.0
 11
353.80399999999997
 21
3.8281999999999989
 31
0.0
  0
LINE
  5
108
  8
0
 62
     0
 10
353.80399999999997
 20
3.8281999999999989
 30
0.0
 11
353.73399999999998
 21
3.3651699999999991
 31
0.0
  0
LINE
  5
109
  8
0
 62
     0
 10
353.73399999999998
 20
3.3651699999999991
 30
0.0
 11
353.80399999999997
 21
2.9021499999999989
 31
0.0
  0
LINE
  5
10A
  8
0
 62
     0
 10
353.80399999999997
 20
2.9021499999999989
 30
0.0
 11
354.01999999999998
 21
2.4832200000000002
 31
0.0
  0
LINE
  5
10B
  8
0
 62
     0
 10
354.01999999999998
 20
2.4832200000000002
 30
0.0
 11
354.351
 21
2.1511200000000001
 31
0.0
  0
LINE
  5
10C
  8
0
 62
     0
 10
354.351
 20
2.1511200000000001
 30
0.0
 11
354.767
 21
1.9389000000000001
 31
0.0
  0
LINE
  5
10D
  8
0
 62
     0
 10
354.767
 20
1.9389000000000001
 30
0.0
 11
355.233
 21
1.865859999999999
 31
0.0
  0
LINE
  5
10E
  8
0
 62
     0
 10
355.233
 20
1.865859999999999
 30
0.0
 11
355.69900000000001
 21
1.9389000000000001
 31
0.0
  0
LINE
  5
10F
  8
0
 62
     0
 10
355.69900000000001
 20
1.9389000000000001
 30
0.0
 11
356.11500000000001
 21
2.1511200000000001
 31
0.0
  0
LINE
  5
110
  8
0
 62
     0
 10
356.11500000000001
 20
2.1511200000000001
 30
0.0
 11
356.447
 21
2.4832200000000002
 31
0.0
  0
LINE
  5
111
  8
0
 62
     0
 10
356.447
 20
2.4832200000000002
 30
0.0
 11
356.66199999999998
 21
2.9021499999999989
 31
0.0
  0
LINE
  5
112
  8
0
 62
     0
 10
356.66199999999998
 20
2.9021499999999989
 30
0.0
 11
356.73200000000003
 21
3.3651699999999991
 31
0.0
  0
LINE
  5
113
  8
0
 62
     0
 10
356.73200000000003
 20
3.3651699999999991
 30
0.0
 11
356.66199999999998
 21
3.8281999999999989
 31
0.0
  0
LINE
  5
114
  8
0
 62
     0
 10
356.66199999999998
 20
3.8281999999999989
 30
0.0
 11
356.447
 21
4.2471300000000003
 31
0.0
  0
LINE
  5
115
  8
0
 62
     0
 10
356.447
 20
4.2471300000000003
 30
0.0
 11
356.11500000000001
 21
4.579229999999999
 31
0.0
  0
LINE
  5
116
  8
0
 62
     0
 10
356.11500000000001
 20
4.579229999999999
 30
0.0
 11
355.69900000000001
 21
4.7914300000000001
 31
0.0
  0
LINE
  5
117
  8
0
 62
     0
 10
355.69900000000001
 20
4.7914300000000001
 30
0.0
 11
355.233
 21
4.8658599999999987
 31
0.0
  0
LINE
  5
118
  8
0
 62
     0
 10
355.233
 20
4.8658599999999987
 30
0.0
 11
354.767
 21
4.7914300000000001
 31
0.0
  0
LINE
  5
119
  8
0
 62
     0
 10
6.0950500000000707
 20
109.616
 30
0.0
 11
352.233
 21
109.616
 31
0.0
  0
LINE
  5
11A
  8
0
 62
     0
 10
352.233
 20
109.616
 30
0.0
 11
352.233
 21
6.3651699999999991
 31
0.0
  0
LINE
  5
11B
  8
0
 62
     0
 10
352.233
 20
6.3651699999999991
 30
0.0
 11
6.0950500000000707
 21
6.3651699999999991
 31
0.0
  0
LINE
  5
11C
  8
0
 62
     0
 10
6.0950500000000707
 20
6.3651699999999991
 30
0.0
 11
6.0950500000000707
 21
109.616
 31
0.0
  0
LINE
  5
11D
  8
0
 62
     0
 10
2.63205
 20
114.042
 30
0.0
 11
2.21313
 21
113.83
 31
0.0
  0
LINE
  5
11E
  8
0
 62
     0
 10
2.21313
 20
113.83
 30
0.0
 11
1.8810199999999999
 21
113.498
 31
0.0
  0
LINE
  5
11F
  8
0
 62
     0
 10
1.8810199999999999
 20
113.498
 30
0.0
 11
1.6688000000000001
 21
113.07899999999999
 31
0.0
  0
LINE
  5
120
  8
0
 62
     0
 10
1.6688000000000001
 20
113.07899999999999
 30
0.0
 11
1.5943899999999991
 21
112.616
 31
0.0
  0
LINE
  5
121
  8
0
 62
     0
 10
1.5943899999999991
 20
112.616
 30
0.0
 11
1.6688000000000001
 21
112.15300000000001
 31
0.0
  0
LINE
  5
122
  8
0
 62
     0
 10
1.6688000000000001
 20
112.15300000000001
 30
0.0
 11
1.8810199999999999
 21
111.73399999999999
 31
0.0
  0
LINE
  5
123
  8
0
 62
     0
 10
1.8810199999999999
 20
111.73399999999999
 30
0.0
 11
2.21313
 21
111.402
 31
0.0
  0
LINE
  5
124
  8
0
 62
     0
 10
2.21313
 20
111.402
 30
0.0
 11
2.63205
 21
111.19
 31
0.0
  0
LINE
  5
125
  8
0
 62
     0
 10
2.63205
 20
111.19
 30
0.0
 11
3.0950700000000002
 21
111.11499999999999
 31
0.0
  0
LINE
  5
126
  8
0
 62
     0
 10
3.0950700000000002
 20
111.11499999999999
 30
0.0
 11
3.5580799999999999
 21
111.19
 31
0.0
  0
LINE
  5
127
  8
0
 62
     0
 10
3.5580799999999999
 20
111.19
 30
0.0
 11
3.977009999999999
 21
111.402
 31
0.0
  0
LINE
  5
128
  8
0
 62
     0
 10
3.977009999999999
 20
111.402
 30
0.0
 11
4.3091099999999987
 21
111.73399999999999
 31
0.0
  0
LINE
  5
129
  8
0
 62
     0
 10
4.3091099999999987
 20
111.73399999999999
 30
0.0
 11
4.5213400000000004
 21
112.15300000000001
 31
0.0
  0
LINE
  5
12A
  8
0
 62
     0
 10
4.5213400000000004
 20
112.15300000000001
 30
0.0
 11
4.5943699999999987
 21
112.616
 31
0.0
  0
LINE
  5
12B
  8
0
 62
     0
 10
4.5943699999999987
 20
112.616
 30
0.0
 11
4.5213400000000004
 21
113.07899999999999
 31
0.0
  0
LINE
  5
12C
  8
0
 62
     0
 10
4.5213400000000004
 20
113.07899999999999
 30
0.0
 11
4.3091099999999987
 21
113.498
 31
0.0
  0
LINE
  5
12D
  8
0
 62
     0
 10
4.3091099999999987
 20
113.498
 30
0.0
 11
3.977009999999999
 21
113.83
 31
0.0
  0
LINE
  5
12E
  8
0
 62
     0
 10
3.977009999999999
 20
113.83
 30
0.0
 11
3.5580799999999999
 21
114.042
 31
0.0
  0
LINE
  5
12F
  8
0
 62
     0
 10
3.5580799999999999
 20
114.042
 30
0.0
 11
3.0950700000000002
 21
114.11499999999999
 31
0.0
  0
LINE
  5
130
  8
0
 62
     0
 10
3.0950700000000002
 20
114.11499999999999
 30
0.0
 11
2.63205
 21
114.042
 31
0.0
  0
LINE
  5
131
  8
0
 62
     0
 10
354.767
 20
114.042
 30
0.0
 11
354.351
 21
113.83
 31
0.0
  0
LINE
  5
132
  8
0
 62
     0
 10
354.351
 20
113.83
 30
0.0
 11
354.01999999999998
 21
113.498
 31
0.0
  0
LINE
  5
133
  8
0
 62
     0
 10
354.01999999999998
 20
113.498
 30
0.0
 11
353.80399999999997
 21
113.07899999999999
 31
0.0
  0
LINE
  5
134
  8
0
 62
     0
 10
353.80399999999997
 20
113.07899999999999
 30
0.0
 11
353.73399999999998
 21
112.616
 31
0.0
  0
LINE
  5
135
  8
0
 62
     0
 10
353.73399999999998
 20
112.616
 30
0.0
 11
353.80399999999997
 21
112.15300000000001
 31
0.0
  0
LINE
  5
136
  8
0
 62
     0
 10
353.80399999999997
 20
112.15300000000001
 30
0.0
 11
354.01999999999998
 21
111.73399999999999
 31
0.0
  0
LINE
  5
137
  8
0
 62
     0
 10
354.01999999999998
 20
111.73399999999999
 30
0.0
 11
354.351
 21
111.402
 31
0.0
  0
LINE
  5
138
  8
0
 62
     0
 10
354.351
 20
111.402
 30
0.0
 11
354.767
 21
111.19
 31
0.0
  0
LINE
  5
139
  8
0
 62
     0
 10
354.767
 20
111.19
 30
0.0
 11
355.233
 21
111.11499999999999
 31
0.0
  0
LINE
  5
13A
  8
0
 62
     0
 10
355.233
 20
111.11499999999999
 30
0.0
 11
355.69900000000001
 21
111.19
 31
0.0
  0
LINE
  5
13B
  8
0
 62
     0
 10
355.69900000000001
 20
111.19
 30
0.0
 11
356.11500000000001
 21
111.402
 31
0.0
  0
LINE
  5
13C
  8
0
 62
     0
 10
356.11500000000001
 20
111.402
 30
0.0
 11
356.447
 21
111.73399999999999
 31
0.0
  0
LINE
  5
13D
  8
0
 62
     0
 10
356.447
 20
111.73399999999999
 30
0.0
 11
356.66199999999998
 21
112.15300000000001
 31
0.0
  0
LINE
  5
13E
  8
0
 62
     0
 10
356.66199999999998
 20
112.15300000000001
 30
0.0
 11
356.73200000000003
 21
112.616
 31
0.0
  0
LINE
  5
13F
  8
0
 62
     0
 10
356.73200000000003
 20
112.616
 30
0.0
 11
356.66199999999998
 21
113.07899999999999
 31
0.0
  0
LINE
  5
140
  8
0
 62
     0
 10
356.66199999999998
 20
113.07899999999999
 30
0.0
 11
356.447
 21
113.498
 31
0.0
  0
LINE
  5
141
  8
0
 62
     0
 10
356.447
 20
113.498
 30
0.0
 11
356.11500000000001
 21
113.83
 31
0.0
  0
LINE
  5
142
  8
0
 62
     0
 10
356.11500000000001
 20
113.83
 30
0.0
 11
355.69900000000001
 21
114.042
 31
0.0
  0
LINE
  5
143
  8
0
 62
     0
 10
355.69900000000001
 20
114.042
 30
0.0
 11
355.233
 21
114.11499999999999
 31
0.0
  0
LINE
  5
144
  8
0
 62
     0
 10
355.233
 20
114.11499999999999
 30
0.0
 11
354.767
 21
114.042
 31
0.0
  0
LINE
  5
145
  8
0
 62
     0
 10
237.39099999999999
 20
114.042
 30
0.0
 11
236.97300000000001
 21
113.83
 31
0.0
  0
LINE
  5
146
  8
0
 62
     0
 10
236.97300000000001
 20
113.83
 30
0.0
 11
236.64099999999999
 21
113.498
 31
0.0
  0
LINE
  5
147
  8
0
 62
     0
 10
236.64099999999999
 20
113.498
 30
0.0
 11
236.42699999999999
 21
113.07899999999999
 31
0.0
  0
LINE
  5
148
  8
0
 62
     0
 10
236.42699999999999
 20
113.07899999999999
 30
0.0
 11
236.35400000000001
 21
112.616
 31
0.0
  0
LINE
  5
149
  8
0
 62
     0
 10
236.35400000000001
 20
112.616
 30
0.0
 11
236.42699999999999
 21
112.15300000000001
 31
0.0
  0
LINE
  5
14A
  8
0
 62
     0
 10
236.42699999999999
 20
112.15300000000001
 30
0.0
 11
236.64099999999999
 21
111.73399999999999
 31
0.0
  0
LINE
  5
14B
  8
0
 62
     0
 10
236.64099999999999
 20
111.73399999999999
 30
0.0
 11
236.97300000000001
 21
111.402
 31
0.0
  0
LINE
  5
14C
  8
0
 62
     0
 10
236.97300000000001
 20
111.402
 30
0.0
 11
237.39099999999999
 21
111.19
 31
0.0
  0
LINE
  5
14D
  8
0
 62
     0
 10
237.39099999999999
 20
111.19
 30
0.0
 11
237.85499999999999
 21
111.11499999999999
 31
0.0
  0
LINE
  5
14E
  8
0
 62
     0
 10
237.85499999999999
 20
111.11499999999999
 30
0.0
 11
238.31800000000001
 21
111.19
 31
0.0
  0
LINE
  5
14F
  8
0
 62
     0
 10
238.31800000000001
 20
111.19
 30
0.0
 11
238.73500000000001
 21
111.402
 31
0.0
  0
LINE
  5
150
  8
0
 62
     0
 10
238.73500000000001
 20
111.402
 30
0.0
 11
239.06800000000001
 21
111.73399999999999
 31
0.0
  0
LINE
  5
151
  8
0
 62
     0
 10
239.06800000000001
 20
111.73399999999999
 30
0.0
 11
239.28
 21
112.15300000000001
 31
0.0
  0
LINE
  5
152
  8
0
 62
     0
 10
239.28
 20
112.15300000000001
 30
0.0
 11
239.35400000000001
 21
112.616
 31
0.0
  0
LINE
  5
153
  8
0
 62
     0
 10
239.35400000000001
 20
112.616
 30
0.0
 11
239.28
 21
113.07899999999999
 31
0.0
  0
LINE
  5
154
  8
0
 62
     0
 10
239.28
 20
113.07899999999999
 30
0.0
 11
239.06800000000001
 21
113.498
 31
0.0
  0
LINE
  5
155
  8
0
 62
     0
 10
239.06800000000001
 20
113.498
 30
0.0
 11
238.73500000000001
 21
113.83
 31
0.0
  0
LINE
  5
156
  8
0
 62
     0
 10
238.73500000000001
 20
113.83
 30
0.0
 11
238.31800000000001
 21
114.042
 31
0.0
  0
LINE
  5
157
  8
0
 62
     0
 10
238.31800000000001
 20
114.042
 30
0.0
 11
237.85499999999999
 21
114.11499999999999
 31
0.0
  0
LINE
  5
158
  8
0
 62
     0
 10
237.85499999999999
 20
114.11499999999999
 30
0.0
 11
237.39099999999999
 21
114.042
 31
0.0
  0
LINE
  5
159
  8
0
 62
     0
 10
120.011
 20
114.042
 30
0.0
 11
119.593
 21
113.83
 31
0.0
  0
LINE
  5
15A
  8
0
 62
     0
 10
119.593
 20
113.83
 30
0.0
 11
119.261
 21
113.498
 31
0.0
  0
LINE
  5
15B
  8
0
 62
     0
 10
119.261
 20
113.498
 30
0.0
 11
119.047
 21
113.07899999999999
 31
0.0
  0
LINE
  5
15C
  8
0
 62
     0
 10
119.047
 20
113.07899999999999
 30
0.0
 11
118.974
 21
112.616
 31
0.0
  0
LINE
  5
15D
  8
0
 62
     0
 10
118.974
 20
112.616
 30
0.0
 11
119.047
 21
112.15300000000001
 31
0.0
  0
LINE
  5
15E
  8
0
 62
     0
 10
119.047
 20
112.15300000000001
 30
0.0
 11
119.261
 21
111.73399999999999
 31
0.0
  0
LINE
  5
15F
  8
0
 62
     0
 10
119.261
 20
111.73399999999999
 30
0.0
 11
119.593
 21
111.402
 31
0.0
  0
LINE
  5
160
  8
0
 62
     0
 10
119.593
 20
111.402
 30
0.0
 11
120.011
 21
111.19
 31
0.0
  0
LINE
  5
161
  8
0
 62
     0
 10
120.011
 20
111.19
 30
0.0
 11
120.47499999999999
 21
111.11499999999999
 31
0.0
  0
LINE
  5
162
  8
0
 62
     0
 10
120.47499999999999
 20
111.11499999999999
 30
0.0
 11
120.938
 21
111.19
 31
0.0
  0
LINE
  5
163
  8
0
 62
     0
 10
120.938
 20
111.19
 30
0.0
 11
121.357
 21
111.402
 31
0.0
  0
LINE
  5
164
  8
0
 62
     0
 10
121.357
 20
111.402
 30
0.0
 11
121.68899999999999
 21
111.73399999999999
 31
0.0
  0
LINE
  5
165
  8
0
 62
     0
 10
121.68899999999999
 20
111.73399999999999
 30
0.0
 11
121.901
 21
112.15300000000001
 31
0.0
  0
LINE
  5
166
  8
0
 62
     0
 10
121.901
 20
112.15300000000001
 30
0.0
 11
121.974
 21
112.616
 31
0.0
  0
LINE
  5
167
  8
0
 62
     0
 10
121.974
 20
112.616
 30
0.0
 11
121.901
 21
113.07899999999999
 31
0.0
  0
LINE
  5
168
  8
0
 62
     0
 10
121.901
 20
113.07899999999999
 30
0.0
 11
121.68899999999999
 21
113.498
 31
0.0
  0
LINE
  5
169
  8
0
 62
     0
 10
121.68899999999999
 20
113.498
 30
0.0
 11
121.357
 21
113.83
 31
0.0
  0
LINE
  5
16A
  8
0
 62
     0
 10
121.357
 20
113.83
 30
0.0
 11
120.938
 21
114.042
 31
0.0
  0
LINE
  5
16B
  8
0
 62
     0
 10
120.938
 20
114.042
 30
0.0
 11
120.47499999999999
 21
114.11499999999999
 31
0.0
  0
LINE
  5
16C
  8
0
 62
     0
 10
120.47499999999999
 20
114.11499999999999
 30
0.0
 11
120.011
 21
114.042
 31
0.0
  0
POLYLINE
  5
17D
  8
0
  6
CONTINUOUS
 66
     1
 10
0.0
 20
0.0
 30
0.0
 70
     1
  0
VERTEX
  5
282
  8
0
  6
CONTINUOUS
 10
237.6154023442929
 20
111.0761882847127
 30
0.0
  0
VERTEX
  5
283
  8
0
  6
CONTINUOUS
 10
238.56200636937729
 20
111.2295258697695
 30
0.0
  0
VERTEX
  5
284
  8
0
  6
CONTINUOUS
 10
239.24052355124181
 20
111.90600546249929
 30
0.0
  0
VERTEX
  5
285
  8
0
  6
CONTINUOUS
 10
239.39247184156329
 20
112.85670895464609
 30
0.0
  0
VERTEX
  5
286
  8
0
  6
CONTINUOUS
 10
238.95716715339151
 20
113.7170517109856
 30
0.0
  0
VERTEX
  5
287
  8
0
  6
CONTINUOUS
 10
238.0989251915627
 20
114.1533761616036
 30
0.0
  0
VERTEX
  5
288
  8
0
  6
CONTINUOUS
 10
237.14653964194369
 20
114.0035396419437
 30
0.0
  0
VERTEX
  5
289
  8
0
  6
CONTINUOUS
 10
236.4653717948718
 20
113.3223717948718
 30
0.0
  0
VERTEX
  5
28A
  8
0
  6
CONTINUOUS
 10
236.3154392414533
 20
112.3714297094911
 30
0.0
  0
VERTEX
  5
28B
  8
0
  6
CONTINUOUS
 10
236.7537798172207
 20
111.5131834419837
 30
0.0
  0
SEQEND
  5
28C
  8
0
  6
CONTINUOUS
  0
POLYLINE
  5
187
  8
0
  6
CONTINUOUS
 66
     1
 10
0.0
 20
0.0
 30
0.0
 70
     1
  0
VERTEX
  5
290
  8
0
  6
CONTINUOUS
 10
361.23200000000003
 20
112.6604817440835
 30
0.0
  0
VERTEX
  5
291
  8
0
  6
CONTINUOUS
 10
361.21951333348738
 20
113.081460786506
 30
0.0
  0
VERTEX
  5
292
  8
0
  6
CONTINUOUS
 10
361.1603210531772
 20
113.5590812552156
 30
0.0
  0
VERTEX
  5
293
  8
0
  6
CONTINUOUS
 10
361.07166450546072
 20
114.01221472132291
 30
0.0
  0
VERTEX
  5
294
  8
0
  6
CONTINUOUS
 10
360.94327783133679
 20
114.46758620610591
 30
0.0
  0
VERTEX
  5
295
  8
0
  6
CONTINUOUS
 10
360.78042251884631
 20
114.91191983648091
 30
0.0
  0
VERTEX
  5
296
  8
0
  6
CONTINUOUS
 10
360.57963065783991
 20
115.3459547683532
 30
0.0
  0
VERTEX
  5
297
  8
0
  6
CONTINUOUS
 10
360.34884371658421
 20
115.7558005433424
 30
0.0
  0
VERTEX
  5
298
  8
0
  6
CONTINUOUS
 10
360.09395334534747
 20
116.137163236185
 30
0.0
  0
VERTEX
  5
299
  8
0
  6
CONTINUOUS
 10
359.79648603910471
 20
116.5193260948997
 30
0.0
  0
VERTEX
  5
29A
  8
0
  6
CONTINUOUS
 10
359.46571835087752
 20
116.8703862793365
 30
0.0
  0
VERTEX
  5
29B
  8
0
  6
CONTINUOUS
 10
359.13655965665612
 20
117.17481050520659
 30
0.0
  0
VERTEX
  5
29C
  8
0
  6
CONTINUOUS
 10
358.75950195453549
 20
117.47563249706189
 30
0.0
  0
VERTEX
  5
29D
  8
0
  6
CONTINUOUS
 10
358.36531523881098
 20
117.7344419568814
 30
0.0
  0
VERTEX
  5
29E
  8
0
  6
CONTINUOUS
 10
357.95627688275232
 20
117.9670323946403
 30
0.0
  0
VERTEX
  5
29F
  8
0
  6
CONTINUOUS
 10
357.52955249929698
 20
118.1595545583386
 30
0.0
  0
VERTEX
  5
2A0
  8
0
  6
CONTINUOUS
 10
357.09729177142452
 20
118.323379400409
 30
0.0
  0
VERTEX
  5
2A1
  8
0
  6
CONTINUOUS
 10
356.63531341845152
 20
118.4521609766803
 30
0.0
  0
VERTEX
  5
2A2
  8
0
  6
CONTINUOUS
 10
356.16584622085452
 20
118.54686036847031
 30
0.0
  0
VERTEX
  5
2A3
  8
0
  6
CONTINUOUS
 10
355.69912389557618
 20
118.598940971291
 30
0.0
  0
VERTEX
  5
2A4
  8
0
  6
CONTINUOUS
 10
355.29653081804491
 20
118.616
 30
0.0
  0
VERTEX
  5
2A5
  8
0
  6
CONTINUOUS
 10
3.0314422096960811
 20
118.616
 30
0.0
  0
VERTEX
  5
2A6
  8
0
  6
CONTINUOUS
 10
2.630106195927215
 20
118.59896825607839
 30
0.0
  0
VERTEX
  5
2A7
  8
0
  6
CONTINUOUS
 10
2.1585847779284171
 20
118.5466373692044
 30
0.0
  0
VERTEX
  5
2A8
  8
0
  6
CONTINUOUS
 10
1.693531995860039
 20
118.4516585278659
 30
0.0
  0
VERTEX
  5
2A9
  8
0
  6
CONTINUOUS
 10
1.236790723018607
 20
118.32510957813859
 30
0.0
  0
VERTEX
  5
2AA
  8
0
  6
CONTINUOUS
 10
0.7972156798095595
 20
118.1596309470321
 30
0.0
  0
VERTEX
  5
2AB
  8
0
  6
CONTINUOUS
 10
0.3767913459251734
 20
117.96870791151331
 30
0.0
  0
VERTEX
  5
2AC
  8
0
  6
CONTINUOUS
 10
-0.039476241525119
 20
117.7350986219915
 30
0.0
  0
VERTEX
  5
2AD
  8
0
  6
CONTINUOUS
 10
-0.4321754916797931
 20
117.474208891206
 30
0.0
  0
VERTEX
  5
2AE
  8
0
  6
CONTINUOUS
 10
-0.8030246352457215
 20
117.1809998856786
 30
0.0
  0
VERTEX
  5
2AF
  8
0
  6
CONTINUOUS
 10
-1.1486896993766971
 20
116.8624806254967
 30
0.0
  0
VERTEX
  5
2B0
  8
0
  6
CONTINUOUS
 10
-1.4693567533632019
 20
116.51543618824179
 30
0.0
  0
VERTEX
  5
2B1
  8
0
  6
CONTINUOUS
 10
-1.7660178609394741
 20
116.1397127051295
 30
0.0
  0
VERTEX
  5
2B2
  8
0
  6
CONTINUOUS
 10
-2.024968011387895
 20
115.74789707481899
 30
0.0
  0
VERTEX
  5
2B3
  8
0
  6
CONTINUOUS
 10
-2.254810016091457
 20
115.3388725409341
 30
0.0
  0
VERTEX
  5
2B4
  8
0
  6
CONTINUOUS
 10
-2.4487165932637698
 20
114.9147514502264
 30
0.0
  0
VERTEX
  5
2B5
  8
0
  6
CONTINUOUS
 10
-2.6137038535610788
 20
114.4737584345059
 30
0.0
  0
VERTEX
  5
2B6
  8
0
  6
CONTINUOUS
 10
-2.7404860196376002
 20
114.0197506777731
 30
0.0
  0
VERTEX
  5
2B7
  8
0
  6
CONTINUOUS
 10
-2.83553702725052
 20
113.5531480749294
 30
0.0
  0
VERTEX
  5
2B8
  8
0
  6
CONTINUOUS
 10
-2.8884405955441572
 20
113.080343775168
 30
0.0
  0
VERTEX
  5
2B9
  8
0
  6
CONTINUOUS
 10
-2.904915399999993
 20
112.6772862768681
 30
0.0
  0
VERTEX
  5
2BA
  8
0
  6
CONTINUOUS
 10
-2.904915400000021
 20
3.303792773583992
 30
0.0
  0
VERTEX
  5
2BB
  8
0
  6
CONTINUOUS
 10
-2.888438008009909
 20
2.901269819686445
 30
0.0
  0
VERTEX
  5
2BC
  8
0
  6
CONTINUOUS
 10
-2.8355922720332041
 20
2.428457609097594
 30
0.0
  0
VERTEX
  5
2BD
  8
0
  6
CONTINUOUS
 10
-2.74066038796671
 20
1.9621763788614319
 30
0.0
  0
VERTEX
  5
2BE
  8
0
  6
CONTINUOUS
 10
-2.6136255837639268
 20
1.506502395905595
 30
0.0
  0
VERTEX
  5
2BF
  8
0
  6
CONTINUOUS
 10
-2.44786002746691
 20
1.0644515564468771
 30
0.0
  0
VERTEX
  5
2C0
  8
0
  6
CONTINUOUS
 10
-2.2551945220193712
 20
0.6438523607354004
 30
0.0
  0
VERTEX
  5
2C1
  8
0
  6
CONTINUOUS
 10
-2.0256320278567208
 20
0.2339172106506222
 30
0.0
  0
VERTEX
  5
2C2
  8
0
  6
CONTINUOUS
 10
-1.764575507392425
 20
-0.1604406506729288
 30
0.0
  0
VERTEX
  5
2C3
  8
0
  6
CONTINUOUS
 10
-1.4701327103229529
 20
-0.532669271733359
 30
0.0
  0
VERTEX
  5
2C4
  8
0
  6
CONTINUOUS
 10
-1.15021567095671
 20
-0.8801628472829939
 30
0.0
  0
VERTEX
  5
2C5
  8
0
  6
CONTINUOUS
 10
-0.8027463574668473
 20
-1.2000444948746161
 30
0.0
  0
VERTEX
  5
2C6
  8
0
  6
CONTINUOUS
 10
-0.4305431720798266
 20
-1.4944732184873899
 30
0.0
  0
VERTEX
  5
2C7
  8
0
  6
CONTINUOUS
 10
-0.036184782732676
 20
-1.755530088491883
 30
0.0
  0
VERTEX
  5
2C8
  8
0
  6
CONTINUOUS
 10
0.3737472995643322
 20
-1.9850960210233799
 30
0.0
  0
VERTEX
  5
2C9
  8
0
  6
CONTINUOUS
 10
0.7943606571979743
 20
-2.1777649009434241
 30
0.0
  0
VERTEX
  5
2CA
  8
0
  6
CONTINUOUS
 10
1.2363865805183549
 20
-2.3435246221884101
 30
0.0
  0
VERTEX
  5
2CB
  8
0
  6
CONTINUOUS
 10
1.692076409546043
 20
-2.4705658481181558
 30
0.0
  0
VERTEX
  5
2CC
  8
0
  6
CONTINUOUS
 10
2.1583645722462901
 20
-2.5654971173956871
 30
0.0
  0
VERTEX
  5
2CD
  8
0
  6
CONTINUOUS
 10
2.6311868285984401
 20
-2.6183437386460571
 30
0.0
  0
VERTEX
  5
2CE
  8
0
  6
CONTINUOUS
 10
3.0336990717757231
 20
-2.6348189999999998
 30
0.0
  0
VERTEX
  5
2CF
  8
0
  6
CONTINUOUS
 10
355.29427738969753
 20
-2.6348189999999998
 30
0.0
  0
VERTEX
  5
2D0
  8
0
  6
CONTINUOUS
 10
355.69805299188101
 20
-2.618317238631068
 30
0.0
  0
VERTEX
  5
2D1
  8
0
  6
CONTINUOUS
 10
356.16608356125522
 20
-2.5657210479508481
 30
0.0
  0
VERTEX
  5
2D2
  8
0
  6
CONTINUOUS
 10
356.6367931705812
 20
-2.4710700324308998
 30
0.0
  0
VERTEX
  5
2D3
  8
0
  6
CONTINUOUS
 10
357.0976972364578
 20
-2.3417905207494809
 30
0.0
  0
VERTEX
  5
2D4
  8
0
  6
CONTINUOUS
 10
357.53237280004981
 20
-2.177685609344171
 30
0.0
  0
VERTEX
  5
2D5
  8
0
  6
CONTINUOUS
 10
357.95928027772152
 20
-1.983406965912264
 30
0.0
  0
VERTEX
  5
2D6
  8
0
  6
CONTINUOUS
 10
358.3620300302789
 20
-1.7548780695518811
 30
0.0
  0
VERTEX
  5
2D7
  8
0
  6
CONTINUOUS
 10
358.75788640473701
 20
-1.4959000325727101
 30
0.0
  0
VERTEX
  5
2D8
  8
0
  6
CONTINUOUS
 10
359.13628326083358
 20
-1.1938566317124
 30
0.0
  0
VERTEX
  5
2D9
  8
0
  6
CONTINUOUS
 10
359.46723791005479
 20
-0.8880583618972459
 30
0.0
  0
VERTEX
  5
2DA
  8
0
  6
CONTINUOUS
 10
359.7972435528045
 20
-0.5365314922615714
 30
0.0
  0
VERTEX
  5
2DB
  8
0
  6
CONTINUOUS
 10
360.09251155016642
 20
-0.1578912950893978
 30
0.0
  0
VERTEX
  5
2DC
  8
0
  6
CONTINUOUS
 10
360.34951540501982
 20
0.2260057607710618
 30
0.0
  0
VERTEX
  5
2DD
  8
0
  6
CONTINUOUS
 10
360.58002012909429
 20
0.6367612048522992
 30
0.0
  0
VERTEX
  5
2DE
  8
0
  6
CONTINUOUS
 10
360.77957231820989
 20
1.0672900136730381
 30
0.0
  0
VERTEX
  5
2DF
  8
0
  6
CONTINUOUS
 10
360.94319939404352
 20
1.5126990747910201
 30
0.0
  0
VERTEX
  5
2E0
  8
0
  6
CONTINUOUS
 10
361.07183377796241
 20
1.9697129219065099
 30
0.0
  0
VERTEX
  5
2E1
  8
0
  6
CONTINUOUS
 10
361.16037976015667
 20
2.4225370748502422
 30
0.0
  0
VERTEX
  5
2E2
  8
0
  6
CONTINUOUS
 10
361.21951124224699
 20
2.9001971091409962
 30
0.0
  0
VERTEX
  5
2E3
  8
0
  6
CONTINUOUS
 10
361.23200000000003
 20
3.320622218359063
 30
0.0
  0
SEQEND
  5
2E4
  8
0
  6
CONTINUOUS
  0
ENDSEC
  0
EOF
