  0
SECTION
  2
HEADER
  9
$ACADVER
  1
AC1009
  9
$INSBASE
 10
0.0
 20
0.0
 30
0.0
  9
$EXTMIN
 10
-2.904915400000021
 20
-2.6348190000000069
 30
0.0
  9
$EXTMAX
 10
852.23299999999995
 20
135.2901201558206
 30
0.0
  9
$LIMMIN
 10
0.0
 20
0.0
  9
$LIMMAX
 10
12.0
 20
9.0
  9
$ORTHOMODE
 70
     1
  9
$REGENMODE
 70
     1
  9
$FILLMODE
 70
     0
  9
$QTEXTMODE
 70
     0
  9
$MIRRTEXT
 70
     0
  9
$DRAGMODE
 70
     2
  9
$LTSCALE
 40
1.0
  9
$OSMODE
 70
   167
  9
$ATTMODE
 70
     1
  9
$TEXTSIZE
 40
0.2
  9
$TRACEWID
 40
0.05
  9
$TEXTSTYLE
  7
STANDARD
  9
$CLAYER
  8
0
  9
$CELTYPE
  6
CONTINUOUS
  9
$CECOLOR
 62
   256
  9
$DIMSCALE
 40
1.0
  9
$DIMASZ
 40
0.18
  9
$DIMEXO
 40
0.0625
  9
$DIMDLI
 40
0.38
  9
$DIMRND
 40
0.0
  9
$DIMDLE
 40
0.0
  9
$DIMEXE
 40
0.18
  9
$DIMTP
 40
0.0
  9
$DIMTM
 40
0.0
  9
$DIMTXT
 40
0.18
  9
$DIMCEN
 40
0.09
  9
$DIMTSZ
 40
0.0
  9
$DIMTOL
 70
     0
  9
$DIMLIM
 70
     0
  9
$DIMTIH
 70
     1
  9
$DIMTOH
 70
     1
  9
$DIMSE1
 70
     0
  9
$DIMSE2
 70
     0
  9
$DIMTAD
 70
     0
  9
$DIMZIN
 70
     0
  9
$DIMBLK
  1

  9
$DIMASO
 70
     1
  9
$DIMSHO
 70
     1
  9
$DIMPOST
  1

  9
$DIMAPOST
  1

  9
$DIMALT
 70
     0
  9
$DIMALTD
 70
     2
  9
$DIMALTF
 40
25.399999999999999
  9
$DIMLFAC
 40
1.0
  9
$DIMTOFL
 70
     0
  9
$DIMTVP
 40
0.0
  9
$DIMTIX
 70
     0
  9
$DIMSOXD
 70
     0
  9
$DIMSAH
 70
     0
  9
$DIMBLK1
  1

  9
$DIMBLK2
  1

  9
$DIMSTYLE
  2
STANDARD
  9
$DIMCLRD
 70
     0
  9
$DIMCLRE
 70
     0
  9
$DIMCLRT
 70
     0
  9
$DIMTFAC
 40
1.0
  9
$DIMGAP
 40
0.09
  9
$LUNITS
 70
     2
  9
$LUPREC
 70
     4
  9
$SKETCHINC
 40
0.1
  9
$FILLETRAD
 40
0.0
  9
$AUNITS
 70
     0
  9
$AUPREC
 70
     0
  9
$MENU
  1
.
  9
$ELEVATION
 40
0.0
  9
$PELEVATION
 40
0.0
  9
$THICKNESS
 40
0.0
  9
$LIMCHECK
 70
     0
  9
$BLIPMODE
 70
     0
  9
$CHAMFERA
 40
0.0
  9
$CHAMFERB
 40
0.0
  9
$SKPOLY
 70
     0
  9
$TDCREATE
 40
2459290.7042147689
  9
$TDUPDATE
 40
2459290.706341459
  9
$TDINDWG
 40
0.002129838
  9
$TDUSRTIMER
 40
0.002129838
  9
$USRTIMER
 70
     1
  9
$ANGBASE
 50
0.0
  9
$ANGDIR
 70
     0
  9
$PDMODE
 70
     0
  9
$PDSIZE
 40
0.0
  9
$PLINEWID
 40
0.0
  9
$COORDS
 70
     1
  9
$SPLFRAME
 70
     1
  9
$SPLINETYPE
 70
     6
  9
$SPLINESEGS
 70
     8
  9
$ATTDIA
 70
     1
  9
$ATTREQ
 70
     1
  9
$HANDLING
 70
     1
  9
$HANDSEED
  5
235
  9
$SURFTAB1
 70
     6
  9
$SURFTAB2
 70
     6
  9
$SURFTYPE
 70
     6
  9
$SURFU
 70
     6
  9
$SURFV
 70
     6
  9
$UCSNAME
  2

  9
$UCSORG
 10
0.0
 20
0.0
 30
0.0
  9
$UCSXDIR
 10
1.0
 20
0.0
 30
0.0
  9
$UCSYDIR
 10
0.0
 20
1.0
 30
0.0
  9
$PUCSNAME
  2

  9
$PUCSORG
 10
0.0
 20
0.0
 30
0.0
  9
$PUCSXDIR
 10
1.0
 20
0.0
 30
0.0
  9
$PUCSYDIR
 10
0.0
 20
1.0
 30
0.0
  9
$USERI1
 70
     0
  9
$USERI2
 70
     0
  9
$USERI3
 70
     0
  9
$USERI4
 70
     0
  9
$USERI5
 70
     0
  9
$USERR1
 40
0.0
  9
$USERR2
 40
0.0
  9
$USERR3
 40
0.0
  9
$USERR4
 40
0.0
  9
$USERR5
 40
0.0
  9
$WORLDVIEW
 70
     1
  9
$SHADEDGE
 70
     3
  9
$SHADEDIF
 70
    70
  9
$TILEMODE
 70
     1
  9
$MAXACTVP
 70
    64
  9
$PLIMCHECK
 70
     0
  9
$PEXTMIN
 10
1.0000000000000000E+020
 20
1.0000000000000000E+020
 30
1.0000000000000000E+020
  9
$PEXTMAX
 10
-1.0000000000000000E+020
 20
-1.0000000000000000E+020
 30
-1.0000000000000000E+020
  9
$PLIMMIN
 10
0.0
 20
0.0
  9
$PLIMMAX
 10
12.0
 20
9.0
  9
$UNITMODE
 70
     0
  9
$VISRETAIN
 70
     1
  9
$PLINEGEN
 70
     0
  9
$PSLTSCALE
 70
     1
  0
ENDSEC
  0
SECTION
  2
TABLES
  0
TABLE
  2
VPORT
 70
     1
  0
VPORT
  2
*ACTIVE
 70
     0
 10
0.0
 20
0.0
 11
1.0
 21
1.0
 12
154.31135398037981
 22
39.620580905140287
 13
0.0
 23
0.0
 14
1.0
 24
1.0
 15
0.0
 25
0.0
 16
0.0
 26
0.0
 36
1.0
 17
0.0
 27
0.0
 37
0.0
 40
286.9144588017121
 41
2.5847619047619039
 42
50.0
 43
0.0
 44
0.0
 50
0.0
 51
0.0
 71
     0
 72
   100
 73
     1
 74
     1
 75
     0
 76
     0
 77
     0
 78
     0
  0
ENDTAB
  0
TABLE
  2
LTYPE
 70
     2
  0
LTYPE
  2
CONTINUOUS
 70
     0
  3
Solid line
 72
    65
 73
     0
 40
0.0
  0
ENDTAB
  0
TABLE
  2
LAYER
 70
     1
  0
LAYER
  2
0
 70
     0
 62
     7
  6
CONTINUOUS
  0
ENDTAB
  0
TABLE
  2
STYLE
 70
     2
  0
STYLE
  2
STANDARD
 70
     0
 40
0.0
 41
1.0
 50
0.0
 71
     0
 42
0.2
  3
txt
  4

  0
STYLE
  2
ANNOTATIVE
 70
     0
 40
0.0
 41
1.0
 50
0.0
 71
     0
 42
0.2
  3
txt
  4

  0
ENDTAB
  0
TABLE
  2
VIEW
 70
     0
  0
ENDTAB
  0
TABLE
  2
UCS
 70
     0
  0
ENDTAB
  0
TABLE
  2
APPID
 70
     5
  0
APPID
  2
ACAD
 70
     0
  0
APPID
  2
ACADANNOTATIVE
 70
     0
  0
APPID
  2
ACAD_EXEMPT_FROM_CAD_STANDARDS
 70
     0
  0
APPID
  2
ACAD_NAV_VCDISPLAY
 70
     0
  0
APPID
  2
ACAD_MLEADERVER
 70
     0
  0
ENDTAB
  0
TABLE
  2
DIMSTYLE
 70
     3
  0
DIMSTYLE
  2
STANDARD
 70
     0
  3

  4

  5

  6

  7

 40
1.0
 41
0.18
 42
0.0625
 43
0.38
 44
0.18
 45
0.0
 46
0.0
 47
0.0
 48
0.0
140
0.18
141
0.09
142
0.0
143
25.399999999999999
144
1.0
145
0.0
146
1.0
147
0.09
 71
     0
 72
     0
 73
     1
 74
     1
 75
     0
 76
     0
 77
     0
 78
     0
170
     0
171
     2
172
     0
173
     0
174
     0
175
     0
176
     0
177
     0
178
     0
  0
DIMSTYLE
  2
ANNOTATIVE
 70
     0
  3

  4

  5

  6

  7

 40
1.0
 41
0.18
 42
0.0625
 43
0.38
 44
0.18
 45
0.0
 46
0.0
 47
0.0
 48
0.0
140
0.18
141
0.09
142
0.0
143
25.399999999999999
144
1.0
145
0.0
146
1.0
147
0.09
 71
     0
 72
     0
 73
     1
 74
     1
 75
     0
 76
     0
 77
     0
 78
     0
170
     0
171
     2
172
     0
173
     0
174
     0
175
     0
176
     0
177
     0
178
     0
  0
ENDTAB
  0
ENDSEC
  0
SECTION
  2
BLOCKS
  0
BLOCK
  8
0
  2
$MODEL_SPACE
 70
     0
 10
0.0
 20
0.0
 30
0.0
  3
$MODEL_SPACE
  1

  0
ENDBLK
  5
71
  8
0
  0
BLOCK
 67
     1
  8
0
  2
$PAPER_SPACE
 70
     0
 10
0.0
 20
0.0
 30
0.0
  3
$PAPER_SPACE
  1

  0
ENDBLK
  5
6D
 67
     1
  8
0
  0
ENDSEC
  0
SECTION
  2
ENTITIES
  0
LINE
  5
75
  8
0
 62
     0
 10
174.16300000000001
 20
109.616
 30
0.0
 11
6.0950500000000138
 21
109.616
 31
0.0
  0
LINE
  5
76
  8
0
 62
     0
 10
6.0950500000000138
 20
109.616
 30
0.0
 11
6.0950500000000138
 21
6.3651699999999991
 31
0.0
  0
LINE
  5
77
  8
0
 62
     0
 10
6.0950500000000138
 20
6.3651699999999991
 30
0.0
 11
352.233
 21
6.3651699999999991
 31
0.0
  0
LINE
  5
78
  8
0
 62
     0
 10
352.233
 20
6.3651699999999991
 30
0.0
 11
352.233
 21
109.616
 31
0.0
  0
LINE
  5
79
  8
0
 62
     0
 10
352.233
 20
109.616
 30
0.0
 11
184.16399999999999
 21
109.616
 31
0.0
  0
LINE
  5
7A
  8
0
 62
     0
 10
184.16399999999999
 20
109.616
 30
0.0
 11
184.16399999999999
 21
118.616
 31
0.0
  0
LINE
  5
D0
  8
0
 62
     0
 10
174.16300000000001
 20
118.616
 30
0.0
 11
174.16300000000001
 21
109.616
 31
0.0
  0
LINE
  5
D1
  8
0
 62
     0
 10
2.63205
 20
4.7914300000000001
 30
0.0
 11
2.21313
 21
4.579229999999999
 31
0.0
  0
LINE
  5
D2
  8
0
 62
     0
 10
2.21313
 20
4.579229999999999
 30
0.0
 11
1.8810199999999999
 21
4.2471300000000003
 31
0.0
  0
LINE
  5
D3
  8
0
 62
     0
 10
1.8810199999999999
 20
4.2471300000000003
 30
0.0
 11
1.6688000000000001
 21
3.8281999999999989
 31
0.0
  0
LINE
  5
D4
  8
0
 62
     0
 10
1.6688000000000001
 20
3.8281999999999989
 30
0.0
 11
1.5943899999999991
 21
3.3651699999999991
 31
0.0
  0
LINE
  5
D5
  8
0
 62
     0
 10
1.5943899999999991
 20
3.3651699999999991
 30
0.0
 11
1.6688000000000001
 21
2.9021499999999989
 31
0.0
  0
LINE
  5
D6
  8
0
 62
     0
 10
1.6688000000000001
 20
2.9021499999999989
 30
0.0
 11
1.8810199999999999
 21
2.4832200000000002
 31
0.0
  0
LINE
  5
D7
  8
0
 62
     0
 10
1.8810199999999999
 20
2.4832200000000002
 30
0.0
 11
2.21313
 21
2.1511200000000001
 31
0.0
  0
LINE
  5
D8
  8
0
 62
     0
 10
2.21313
 20
2.1511200000000001
 30
0.0
 11
2.63205
 21
1.9389000000000001
 31
0.0
  0
LINE
  5
D9
  8
0
 62
     0
 10
2.63205
 20
1.9389000000000001
 30
0.0
 11
3.0950700000000002
 21
1.865859999999999
 31
0.0
  0
LINE
  5
DA
  8
0
 62
     0
 10
3.0950700000000002
 20
1.865859999999999
 30
0.0
 11
3.5580799999999999
 21
1.9389000000000001
 31
0.0
  0
LINE
  5
DB
  8
0
 62
     0
 10
3.5580799999999999
 20
1.9389000000000001
 30
0.0
 11
3.977009999999999
 21
2.1511200000000001
 31
0.0
  0
LINE
  5
DC
  8
0
 62
     0
 10
3.977009999999999
 20
2.1511200000000001
 30
0.0
 11
4.3091099999999987
 21
2.4832200000000002
 31
0.0
  0
LINE
  5
DD
  8
0
 62
     0
 10
4.3091099999999987
 20
2.4832200000000002
 30
0.0
 11
4.5213400000000004
 21
2.9021499999999989
 31
0.0
  0
LINE
  5
DE
  8
0
 62
     0
 10
4.5213400000000004
 20
2.9021499999999989
 30
0.0
 11
4.5943699999999987
 21
3.3651699999999991
 31
0.0
  0
LINE
  5
DF
  8
0
 62
     0
 10
4.5943699999999987
 20
3.3651699999999991
 30
0.0
 11
4.5213400000000004
 21
3.8281999999999989
 31
0.0
  0
LINE
  5
E0
  8
0
 62
     0
 10
4.5213400000000004
 20
3.8281999999999989
 30
0.0
 11
4.3091099999999987
 21
4.2471300000000003
 31
0.0
  0
LINE
  5
E1
  8
0
 62
     0
 10
4.3091099999999987
 20
4.2471300000000003
 30
0.0
 11
3.977009999999999
 21
4.579229999999999
 31
0.0
  0
LINE
  5
E2
  8
0
 62
     0
 10
3.977009999999999
 20
4.579229999999999
 30
0.0
 11
3.5580799999999999
 21
4.7914300000000001
 31
0.0
  0
LINE
  5
E3
  8
0
 62
     0
 10
3.5580799999999999
 20
4.7914300000000001
 30
0.0
 11
3.0950700000000002
 21
4.8658599999999987
 31
0.0
  0
LINE
  5
E4
  8
0
 62
     0
 10
3.0950700000000002
 20
4.8658599999999987
 30
0.0
 11
2.63205
 21
4.7914300000000001
 31
0.0
  0
LINE
  5
E5
  8
0
 62
     0
 10
120.011
 20
4.7914300000000001
 30
0.0
 11
119.593
 21
4.579229999999999
 31
0.0
  0
LINE
  5
E6
  8
0
 62
     0
 10
119.593
 20
4.579229999999999
 30
0.0
 11
119.261
 21
4.2471300000000003
 31
0.0
  0
LINE
  5
E7
  8
0
 62
     0
 10
119.261
 20
4.2471300000000003
 30
0.0
 11
119.047
 21
3.8281999999999989
 31
0.0
  0
LINE
  5
E8
  8
0
 62
     0
 10
119.047
 20
3.8281999999999989
 30
0.0
 11
118.974
 21
3.3651699999999991
 31
0.0
  0
LINE
  5
E9
  8
0
 62
     0
 10
118.974
 20
3.3651699999999991
 30
0.0
 11
119.047
 21
2.9021499999999989
 31
0.0
  0
LINE
  5
EA
  8
0
 62
     0
 10
119.047
 20
2.9021499999999989
 30
0.0
 11
119.261
 21
2.4832200000000002
 31
0.0
  0
LINE
  5
EB
  8
0
 62
     0
 10
119.261
 20
2.4832200000000002
 30
0.0
 11
119.593
 21
2.1511200000000001
 31
0.0
  0
LINE
  5
EC
  8
0
 62
     0
 10
119.593
 20
2.1511200000000001
 30
0.0
 11
120.011
 21
1.9389000000000001
 31
0.0
  0
LINE
  5
ED
  8
0
 62
     0
 10
120.011
 20
1.9389000000000001
 30
0.0
 11
120.47499999999999
 21
1.865859999999999
 31
0.0
  0
LINE
  5
EE
  8
0
 62
     0
 10
120.47499999999999
 20
1.865859999999999
 30
0.0
 11
120.938
 21
1.9389000000000001
 31
0.0
  0
LINE
  5
EF
  8
0
 62
     0
 10
120.938
 20
1.9389000000000001
 30
0.0
 11
121.357
 21
2.1511200000000001
 31
0.0
  0
LINE
  5
F0
  8
0
 62
     0
 10
121.357
 20
2.1511200000000001
 30
0.0
 11
121.68899999999999
 21
2.4832200000000002
 31
0.0
  0
LINE
  5
F1
  8
0
 62
     0
 10
121.68899999999999
 20
2.4832200000000002
 30
0.0
 11
121.901
 21
2.9021499999999989
 31
0.0
  0
LINE
  5
F2
  8
0
 62
     0
 10
121.901
 20
2.9021499999999989
 30
0.0
 11
121.974
 21
3.3651699999999991
 31
0.0
  0
LINE
  5
F3
  8
0
 62
     0
 10
121.974
 20
3.3651699999999991
 30
0.0
 11
121.901
 21
3.8281999999999989
 31
0.0
  0
LINE
  5
F4
  8
0
 62
     0
 10
121.901
 20
3.8281999999999989
 30
0.0
 11
121.68899999999999
 21
4.2471300000000003
 31
0.0
  0
LINE
  5
F5
  8
0
 62
     0
 10
121.68899999999999
 20
4.2471300000000003
 30
0.0
 11
121.357
 21
4.579229999999999
 31
0.0
  0
LINE
  5
F6
  8
0
 62
     0
 10
121.357
 20
4.579229999999999
 30
0.0
 11
120.938
 21
4.7914300000000001
 31
0.0
  0
LINE
  5
F7
  8
0
 62
     0
 10
120.938
 20
4.7914300000000001
 30
0.0
 11
120.47499999999999
 21
4.8658599999999987
 31
0.0
  0
LINE
  5
F8
  8
0
 62
     0
 10
120.47499999999999
 20
4.8658599999999987
 30
0.0
 11
120.011
 21
4.7914300000000001
 31
0.0
  0
LINE
  5
F9
  8
0
 62
     0
 10
237.39099999999999
 20
4.7914300000000001
 30
0.0
 11
236.97300000000001
 21
4.579229999999999
 31
0.0
  0
LINE
  5
FA
  8
0
 62
     0
 10
236.97300000000001
 20
4.579229999999999
 30
0.0
 11
236.64099999999999
 21
4.2471300000000003
 31
0.0
  0
LINE
  5
FB
  8
0
 62
     0
 10
236.64099999999999
 20
4.2471300000000003
 30
0.0
 11
236.42699999999999
 21
3.8281999999999989
 31
0.0
  0
LINE
  5
FC
  8
0
 62
     0
 10
236.42699999999999
 20
3.8281999999999989
 30
0.0
 11
236.35400000000001
 21
3.3651699999999991
 31
0.0
  0
LINE
  5
FD
  8
0
 62
     0
 10
236.35400000000001
 20
3.3651699999999991
 30
0.0
 11
236.42699999999999
 21
2.9021499999999989
 31
0.0
  0
LINE
  5
FE
  8
0
 62
     0
 10
236.42699999999999
 20
2.9021499999999989
 30
0.0
 11
236.64099999999999
 21
2.4832200000000002
 31
0.0
  0
LINE
  5
FF
  8
0
 62
     0
 10
236.64099999999999
 20
2.4832200000000002
 30
0.0
 11
236.97300000000001
 21
2.1511200000000001
 31
0.0
  0
LINE
  5
100
  8
0
 62
     0
 10
236.97300000000001
 20
2.1511200000000001
 30
0.0
 11
237.39099999999999
 21
1.9389000000000001
 31
0.0
  0
LINE
  5
101
  8
0
 62
     0
 10
237.39099999999999
 20
1.9389000000000001
 30
0.0
 11
237.85499999999999
 21
1.865859999999999
 31
0.0
  0
LINE
  5
102
  8
0
 62
     0
 10
237.85499999999999
 20
1.865859999999999
 30
0.0
 11
238.31800000000001
 21
1.9389000000000001
 31
0.0
  0
LINE
  5
103
  8
0
 62
     0
 10
238.31800000000001
 20
1.9389000000000001
 30
0.0
 11
238.73500000000001
 21
2.1511200000000001
 31
0.0
  0
LINE
  5
104
  8
0
 62
     0
 10
238.73500000000001
 20
2.1511200000000001
 30
0.0
 11
239.06800000000001
 21
2.4832200000000002
 31
0.0
  0
LINE
  5
105
  8
0
 62
     0
 10
239.06800000000001
 20
2.4832200000000002
 30
0.0
 11
239.28
 21
2.9021499999999989
 31
0.0
  0
LINE
  5
106
  8
0
 62
     0
 10
239.28
 20
2.9021499999999989
 30
0.0
 11
239.35400000000001
 21
3.3651699999999991
 31
0.0
  0
LINE
  5
107
  8
0
 62
     0
 10
239.35400000000001
 20
3.3651699999999991
 30
0.0
 11
239.28
 21
3.8281999999999989
 31
0.0
  0
LINE
  5
108
  8
0
 62
     0
 10
239.28
 20
3.8281999999999989
 30
0.0
 11
239.06800000000001
 21
4.2471300000000003
 31
0.0
  0
LINE
  5
109
  8
0
 62
     0
 10
239.06800000000001
 20
4.2471300000000003
 30
0.0
 11
238.73500000000001
 21
4.579229999999999
 31
0.0
  0
LINE
  5
10A
  8
0
 62
     0
 10
238.73500000000001
 20
4.579229999999999
 30
0.0
 11
238.31800000000001
 21
4.7914300000000001
 31
0.0
  0
LINE
  5
10B
  8
0
 62
     0
 10
238.31800000000001
 20
4.7914300000000001
 30
0.0
 11
237.85499999999999
 21
4.8658599999999987
 31
0.0
  0
LINE
  5
10C
  8
0
 62
     0
 10
237.85499999999999
 20
4.8658599999999987
 30
0.0
 11
237.39099999999999
 21
4.7914300000000001
 31
0.0
  0
LINE
  5
10D
  8
0
 62
     0
 10
354.767
 20
4.7914300000000001
 30
0.0
 11
354.351
 21
4.579229999999999
 31
0.0
  0
LINE
  5
10E
  8
0
 62
     0
 10
354.351
 20
4.579229999999999
 30
0.0
 11
354.01999999999998
 21
4.2471300000000003
 31
0.0
  0
LINE
  5
10F
  8
0
 62
     0
 10
354.01999999999998
 20
4.2471300000000003
 30
0.0
 11
353.80399999999997
 21
3.8281999999999989
 31
0.0
  0
LINE
  5
110
  8
0
 62
     0
 10
353.80399999999997
 20
3.8281999999999989
 30
0.0
 11
353.73399999999998
 21
3.3651699999999991
 31
0.0
  0
LINE
  5
111
  8
0
 62
     0
 10
353.73399999999998
 20
3.3651699999999991
 30
0.0
 11
353.80399999999997
 21
2.9021499999999989
 31
0.0
  0
LINE
  5
112
  8
0
 62
     0
 10
353.80399999999997
 20
2.9021499999999989
 30
0.0
 11
354.01999999999998
 21
2.4832200000000002
 31
0.0
  0
LINE
  5
113
  8
0
 62
     0
 10
354.01999999999998
 20
2.4832200000000002
 30
0.0
 11
354.351
 21
2.1511200000000001
 31
0.0
  0
LINE
  5
114
  8
0
 62
     0
 10
354.351
 20
2.1511200000000001
 30
0.0
 11
354.767
 21
1.9389000000000001
 31
0.0
  0
LINE
  5
115
  8
0
 62
     0
 10
354.767
 20
1.9389000000000001
 30
0.0
 11
355.233
 21
1.865859999999999
 31
0.0
  0
LINE
  5
116
  8
0
 62
     0
 10
355.233
 20
1.865859999999999
 30
0.0
 11
355.69900000000001
 21
1.9389000000000001
 31
0.0
  0
LINE
  5
117
  8
0
 62
     0
 10
355.69900000000001
 20
1.9389000000000001
 30
0.0
 11
356.11500000000001
 21
2.1511200000000001
 31
0.0
  0
LINE
  5
118
  8
0
 62
     0
 10
356.11500000000001
 20
2.1511200000000001
 30
0.0
 11
356.447
 21
2.4832200000000002
 31
0.0
  0
LINE
  5
119
  8
0
 62
     0
 10
356.447
 20
2.4832200000000002
 30
0.0
 11
356.66199999999998
 21
2.9021499999999989
 31
0.0
  0
LINE
  5
11A
  8
0
 62
     0
 10
356.66199999999998
 20
2.9021499999999989
 30
0.0
 11
356.73200000000003
 21
3.3651699999999991
 31
0.0
  0
LINE
  5
11B
  8
0
 62
     0
 10
356.73200000000003
 20
3.3651699999999991
 30
0.0
 11
356.66199999999998
 21
3.8281999999999989
 31
0.0
  0
LINE
  5
11C
  8
0
 62
     0
 10
356.66199999999998
 20
3.8281999999999989
 30
0.0
 11
356.447
 21
4.2471300000000003
 31
0.0
  0
LINE
  5
11D
  8
0
 62
     0
 10
356.447
 20
4.2471300000000003
 30
0.0
 11
356.11500000000001
 21
4.579229999999999
 31
0.0
  0
LINE
  5
11E
  8
0
 62
     0
 10
356.11500000000001
 20
4.579229999999999
 30
0.0
 11
355.69900000000001
 21
4.7914300000000001
 31
0.0
  0
LINE
  5
11F
  8
0
 62
     0
 10
355.69900000000001
 20
4.7914300000000001
 30
0.0
 11
355.233
 21
4.8658599999999987
 31
0.0
  0
LINE
  5
120
  8
0
 62
     0
 10
355.233
 20
4.8658599999999987
 30
0.0
 11
354.767
 21
4.7914300000000001
 31
0.0
  0
LINE
  5
121
  8
0
 62
     0
 10
2.63205
 20
114.042
 30
0.0
 11
2.21313
 21
113.83
 31
0.0
  0
LINE
  5
122
  8
0
 62
     0
 10
2.21313
 20
113.83
 30
0.0
 11
1.8810199999999999
 21
113.498
 31
0.0
  0
LINE
  5
123
  8
0
 62
     0
 10
1.8810199999999999
 20
113.498
 30
0.0
 11
1.6688000000000001
 21
113.07899999999999
 31
0.0
  0
LINE
  5
124
  8
0
 62
     0
 10
1.6688000000000001
 20
113.07899999999999
 30
0.0
 11
1.5943899999999991
 21
112.616
 31
0.0
  0
LINE
  5
125
  8
0
 62
     0
 10
1.5943899999999991
 20
112.616
 30
0.0
 11
1.6688000000000001
 21
112.15300000000001
 31
0.0
  0
LINE
  5
126
  8
0
 62
     0
 10
1.6688000000000001
 20
112.15300000000001
 30
0.0
 11
1.8810199999999999
 21
111.73399999999999
 31
0.0
  0
LINE
  5
127
  8
0
 62
     0
 10
1.8810199999999999
 20
111.73399999999999
 30
0.0
 11
2.21313
 21
111.402
 31
0.0
  0
LINE
  5
128
  8
0
 62
     0
 10
2.21313
 20
111.402
 30
0.0
 11
2.63205
 21
111.19
 31
0.0
  0
LINE
  5
129
  8
0
 62
     0
 10
2.63205
 20
111.19
 30
0.0
 11
3.0950700000000002
 21
111.11499999999999
 31
0.0
  0
LINE
  5
12A
  8
0
 62
     0
 10
3.0950700000000002
 20
111.11499999999999
 30
0.0
 11
3.5580799999999999
 21
111.19
 31
0.0
  0
LINE
  5
12B
  8
0
 62
     0
 10
3.5580799999999999
 20
111.19
 30
0.0
 11
3.977009999999999
 21
111.402
 31
0.0
  0
LINE
  5
12C
  8
0
 62
     0
 10
3.977009999999999
 20
111.402
 30
0.0
 11
4.3091099999999987
 21
111.73399999999999
 31
0.0
  0
LINE
  5
12D
  8
0
 62
     0
 10
4.3091099999999987
 20
111.73399999999999
 30
0.0
 11
4.5213400000000004
 21
112.15300000000001
 31
0.0
  0
LINE
  5
12E
  8
0
 62
     0
 10
4.5213400000000004
 20
112.15300000000001
 30
0.0
 11
4.5943699999999987
 21
112.616
 31
0.0
  0
LINE
  5
12F
  8
0
 62
     0
 10
4.5943699999999987
 20
112.616
 30
0.0
 11
4.5213400000000004
 21
113.07899999999999
 31
0.0
  0
LINE
  5
130
  8
0
 62
     0
 10
4.5213400000000004
 20
113.07899999999999
 30
0.0
 11
4.3091099999999987
 21
113.498
 31
0.0
  0
LINE
  5
131
  8
0
 62
     0
 10
4.3091099999999987
 20
113.498
 30
0.0
 11
3.977009999999999
 21
113.83
 31
0.0
  0
LINE
  5
132
  8
0
 62
     0
 10
3.977009999999999
 20
113.83
 30
0.0
 11
3.5580799999999999
 21
114.042
 31
0.0
  0
LINE
  5
133
  8
0
 62
     0
 10
3.5580799999999999
 20
114.042
 30
0.0
 11
3.0950700000000002
 21
114.11499999999999
 31
0.0
  0
LINE
  5
134
  8
0
 62
     0
 10
3.0950700000000002
 20
114.11499999999999
 30
0.0
 11
2.63205
 21
114.042
 31
0.0
  0
LINE
  5
135
  8
0
 62
     0
 10
354.767
 20
114.042
 30
0.0
 11
354.351
 21
113.83
 31
0.0
  0
LINE
  5
136
  8
0
 62
     0
 10
354.351
 20
113.83
 30
0.0
 11
354.01999999999998
 21
113.498
 31
0.0
  0
LINE
  5
137
  8
0
 62
     0
 10
354.01999999999998
 20
113.498
 30
0.0
 11
353.80399999999997
 21
113.07899999999999
 31
0.0
  0
LINE
  5
138
  8
0
 62
     0
 10
353.80399999999997
 20
113.07899999999999
 30
0.0
 11
353.73399999999998
 21
112.616
 31
0.0
  0
LINE
  5
139
  8
0
 62
     0
 10
353.73399999999998
 20
112.616
 30
0.0
 11
353.80399999999997
 21
112.15300000000001
 31
0.0
  0
LINE
  5
13A
  8
0
 62
     0
 10
353.80399999999997
 20
112.15300000000001
 30
0.0
 11
354.01999999999998
 21
111.73399999999999
 31
0.0
  0
LINE
  5
13B
  8
0
 62
     0
 10
354.01999999999998
 20
111.73399999999999
 30
0.0
 11
354.351
 21
111.402
 31
0.0
  0
LINE
  5
13C
  8
0
 62
     0
 10
354.351
 20
111.402
 30
0.0
 11
354.767
 21
111.19
 31
0.0
  0
LINE
  5
13D
  8
0
 62
     0
 10
354.767
 20
111.19
 30
0.0
 11
355.233
 21
111.11499999999999
 31
0.0
  0
LINE
  5
13E
  8
0
 62
     0
 10
355.233
 20
111.11499999999999
 30
0.0
 11
355.69900000000001
 21
111.19
 31
0.0
  0
LINE
  5
13F
  8
0
 62
     0
 10
355.69900000000001
 20
111.19
 30
0.0
 11
356.11500000000001
 21
111.402
 31
0.0
  0
LINE
  5
140
  8
0
 62
     0
 10
356.11500000000001
 20
111.402
 30
0.0
 11
356.447
 21
111.73399999999999
 31
0.0
  0
LINE
  5
141
  8
0
 62
     0
 10
356.447
 20
111.73399999999999
 30
0.0
 11
356.66199999999998
 21
112.15300000000001
 31
0.0
  0
LINE
  5
142
  8
0
 62
     0
 10
356.66199999999998
 20
112.15300000000001
 30
0.0
 11
356.73200000000003
 21
112.616
 31
0.0
  0
LINE
  5
143
  8
0
 62
     0
 10
356.73200000000003
 20
112.616
 30
0.0
 11
356.66199999999998
 21
113.07899999999999
 31
0.0
  0
LINE
  5
144
  8
0
 62
     0
 10
356.66199999999998
 20
113.07899999999999
 30
0.0
 11
356.447
 21
113.498
 31
0.0
  0
LINE
  5
145
  8
0
 62
     0
 10
356.447
 20
113.498
 30
0.0
 11
356.11500000000001
 21
113.83
 31
0.0
  0
LINE
  5
146
  8
0
 62
     0
 10
356.11500000000001
 20
113.83
 30
0.0
 11
355.69900000000001
 21
114.042
 31
0.0
  0
LINE
  5
147
  8
0
 62
     0
 10
355.69900000000001
 20
114.042
 30
0.0
 11
355.233
 21
114.11499999999999
 31
0.0
  0
LINE
  5
148
  8
0
 62
     0
 10
355.233
 20
114.11499999999999
 30
0.0
 11
354.767
 21
114.042
 31
0.0
  0
LINE
  5
149
  8
0
 62
     0
 10
237.39099999999999
 20
114.042
 30
0.0
 11
236.97300000000001
 21
113.83
 31
0.0
  0
LINE
  5
14A
  8
0
 62
     0
 10
236.97300000000001
 20
113.83
 30
0.0
 11
236.64099999999999
 21
113.498
 31
0.0
  0
LINE
  5
14B
  8
0
 62
     0
 10
236.64099999999999
 20
113.498
 30
0.0
 11
236.42699999999999
 21
113.07899999999999
 31
0.0
  0
LINE
  5
14C
  8
0
 62
     0
 10
236.42699999999999
 20
113.07899999999999
 30
0.0
 11
236.35400000000001
 21
112.616
 31
0.0
  0
LINE
  5
14D
  8
0
 62
     0
 10
236.35400000000001
 20
112.616
 30
0.0
 11
236.42699999999999
 21
112.15300000000001
 31
0.0
  0
LINE
  5
14E
  8
0
 62
     0
 10
236.42699999999999
 20
112.15300000000001
 30
0.0
 11
236.64099999999999
 21
111.73399999999999
 31
0.0
  0
LINE
  5
14F
  8
0
 62
     0
 10
236.64099999999999
 20
111.73399999999999
 30
0.0
 11
236.97300000000001
 21
111.402
 31
0.0
  0
LINE
  5
150
  8
0
 62
     0
 10
236.97300000000001
 20
111.402
 30
0.0
 11
237.39099999999999
 21
111.19
 31
0.0
  0
LINE
  5
151
  8
0
 62
     0
 10
237.39099999999999
 20
111.19
 30
0.0
 11
237.85499999999999
 21
111.11499999999999
 31
0.0
  0
LINE
  5
152
  8
0
 62
     0
 10
237.85499999999999
 20
111.11499999999999
 30
0.0
 11
238.31800000000001
 21
111.19
 31
0.0
  0
LINE
  5
153
  8
0
 62
     0
 10
238.31800000000001
 20
111.19
 30
0.0
 11
238.73500000000001
 21
111.402
 31
0.0
  0
LINE
  5
154
  8
0
 62
     0
 10
238.73500000000001
 20
111.402
 30
0.0
 11
239.06800000000001
 21
111.73399999999999
 31
0.0
  0
LINE
  5
155
  8
0
 62
     0
 10
239.06800000000001
 20
111.73399999999999
 30
0.0
 11
239.28
 21
112.15300000000001
 31
0.0
  0
LINE
  5
156
  8
0
 62
     0
 10
239.28
 20
112.15300000000001
 30
0.0
 11
239.35400000000001
 21
112.616
 31
0.0
  0
LINE
  5
157
  8
0
 62
     0
 10
239.35400000000001
 20
112.616
 30
0.0
 11
239.28
 21
113.07899999999999
 31
0.0
  0
LINE
  5
158
  8
0
 62
     0
 10
239.28
 20
113.07899999999999
 30
0.0
 11
239.06800000000001
 21
113.498
 31
0.0
  0
LINE
  5
159
  8
0
 62
     0
 10
239.06800000000001
 20
113.498
 30
0.0
 11
238.73500000000001
 21
113.83
 31
0.0
  0
LINE
  5
15A
  8
0
 62
     0
 10
238.73500000000001
 20
113.83
 30
0.0
 11
238.31800000000001
 21
114.042
 31
0.0
  0
LINE
  5
15B
  8
0
 62
     0
 10
238.31800000000001
 20
114.042
 30
0.0
 11
237.85499999999999
 21
114.11499999999999
 31
0.0
  0
LINE
  5
15C
  8
0
 62
     0
 10
237.85499999999999
 20
114.11499999999999
 30
0.0
 11
237.39099999999999
 21
114.042
 31
0.0
  0
LINE
  5
15D
  8
0
 62
     0
 10
120.011
 20
114.042
 30
0.0
 11
119.593
 21
113.83
 31
0.0
  0
LINE
  5
15E
  8
0
 62
     0
 10
119.593
 20
113.83
 30
0.0
 11
119.261
 21
113.498
 31
0.0
  0
LINE
  5
15F
  8
0
 62
     0
 10
119.261
 20
113.498
 30
0.0
 11
119.047
 21
113.07899999999999
 31
0.0
  0
LINE
  5
160
  8
0
 62
     0
 10
119.047
 20
113.07899999999999
 30
0.0
 11
118.974
 21
112.616
 31
0.0
  0
LINE
  5
161
  8
0
 62
     0
 10
118.974
 20
112.616
 30
0.0
 11
119.047
 21
112.15300000000001
 31
0.0
  0
LINE
  5
162
  8
0
 62
     0
 10
119.047
 20
112.15300000000001
 30
0.0
 11
119.261
 21
111.73399999999999
 31
0.0
  0
LINE
  5
163
  8
0
 62
     0
 10
119.261
 20
111.73399999999999
 30
0.0
 11
119.593
 21
111.402
 31
0.0
  0
LINE
  5
164
  8
0
 62
     0
 10
119.593
 20
111.402
 30
0.0
 11
120.011
 21
111.19
 31
0.0
  0
LINE
  5
165
  8
0
 62
     0
 10
120.011
 20
111.19
 30
0.0
 11
120.47499999999999
 21
111.11499999999999
 31
0.0
  0
LINE
  5
166
  8
0
 62
     0
 10
120.47499999999999
 20
111.11499999999999
 30
0.0
 11
120.938
 21
111.19
 31
0.0
  0
LINE
  5
167
  8
0
 62
     0
 10
120.938
 20
111.19
 30
0.0
 11
121.357
 21
111.402
 31
0.0
  0
LINE
  5
168
  8
0
 62
     0
 10
121.357
 20
111.402
 30
0.0
 11
121.68899999999999
 21
111.73399999999999
 31
0.0
  0
LINE
  5
169
  8
0
 62
     0
 10
121.68899999999999
 20
111.73399999999999
 30
0.0
 11
121.901
 21
112.15300000000001
 31
0.0
  0
LINE
  5
16A
  8
0
 62
     0
 10
121.901
 20
112.15300000000001
 30
0.0
 11
121.974
 21
112.616
 31
0.0
  0
LINE
  5
16B
  8
0
 62
     0
 10
121.974
 20
112.616
 30
0.0
 11
121.901
 21
113.07899999999999
 31
0.0
  0
LINE
  5
16C
  8
0
 62
     0
 10
121.901
 20
113.07899999999999
 30
0.0
 11
121.68899999999999
 21
113.498
 31
0.0
  0
LINE
  5
16D
  8
0
 62
     0
 10
121.68899999999999
 20
113.498
 30
0.0
 11
121.357
 21
113.83
 31
0.0
  0
LINE
  5
16E
  8
0
 62
     0
 10
121.357
 20
113.83
 30
0.0
 11
120.938
 21
114.042
 31
0.0
  0
LINE
  5
16F
  8
0
 62
     0
 10
120.938
 20
114.042
 30
0.0
 11
120.47499999999999
 21
114.11499999999999
 31
0.0
  0
LINE
  5
170
  8
0
 62
     0
 10
120.47499999999999
 20
114.11499999999999
 30
0.0
 11
120.011
 21
114.042
 31
0.0
  0
POLYLINE
  5
185
  8
0
  6
CONTINUOUS
 66
     1
 10
0.0
 20
0.0
 30
0.0
  0
VERTEX
  5
1DE
  8
0
  6
CONTINUOUS
 10
174.1629999999999
 20
118.616
 30
0.0
  0
VERTEX
  5
1DF
  8
0
  6
CONTINUOUS
 10
3.031442209695995
 20
118.616
 30
0.0
  0
VERTEX
  5
1E0
  8
0
  6
CONTINUOUS
 10
2.6301061959275152
 20
118.59896825607839
 30
0.0
  0
VERTEX
  5
1E1
  8
0
  6
CONTINUOUS
 10
2.158584777928144
 20
118.5466373692043
 30
0.0
  0
VERTEX
  5
1E2
  8
0
  6
CONTINUOUS
 10
1.6935319958594011
 20
118.4516585278657
 30
0.0
  0
VERTEX
  5
1E3
  8
0
  6
CONTINUOUS
 10
1.236790723018971
 20
118.32510957813869
 30
0.0
  0
VERTEX
  5
1E4
  8
0
  6
CONTINUOUS
 10
0.7972156798104118
 20
118.1596309470325
 30
0.0
  0
VERTEX
  5
1E5
  8
0
  6
CONTINUOUS
 10
0.3767913459231527
 20
117.96870791151269
 30
0.0
  0
VERTEX
  5
1E6
  8
0
  6
CONTINUOUS
 10
-0.0394762415258627
 20
117.7350986219907
 30
0.0
  0
VERTEX
  5
1E7
  8
0
  6
CONTINUOUS
 10
-0.4321754916779455
 20
117.4742088912073
 30
0.0
  0
VERTEX
  5
1E8
  8
0
  6
CONTINUOUS
 10
-0.8030246352457815
 20
117.1809998856788
 30
0.0
  0
VERTEX
  5
1E9
  8
0
  6
CONTINUOUS
 10
-1.14868969937667
 20
116.8624806254966
 30
0.0
  0
VERTEX
  5
1EA
  8
0
  6
CONTINUOUS
 10
-1.4693567533617209
 20
116.5154361882434
 30
0.0
  0
VERTEX
  5
1EB
  8
0
  6
CONTINUOUS
 10
-1.7660178609380359
 20
116.1397127051317
 30
0.0
  0
VERTEX
  5
1EC
  8
0
  6
CONTINUOUS
 10
-2.0249680113884119
 20
115.74789707481889
 30
0.0
  0
VERTEX
  5
1ED
  8
0
  6
CONTINUOUS
 10
-2.2548100160918798
 20
115.3388725409331
 30
0.0
  0
VERTEX
  5
1EE
  8
0
  6
CONTINUOUS
 10
-2.4487165932629931
 20
114.91475145022829
 30
0.0
  0
VERTEX
  5
1EF
  8
0
  6
CONTINUOUS
 10
-2.6137038535612449
 20
114.47375843450639
 30
0.0
  0
VERTEX
  5
1F0
  8
0
  6
CONTINUOUS
 10
-2.740486019637737
 20
114.019750677772
 30
0.0
  0
VERTEX
  5
1F1
  8
0
  6
CONTINUOUS
 10
-2.8355370272506191
 20
113.5531480749293
 30
0.0
  0
VERTEX
  5
1F2
  8
0
  6
CONTINUOUS
 10
-2.8884405955441039
 20
113.0803437751683
 30
0.0
  0
VERTEX
  5
1F3
  8
0
  6
CONTINUOUS
 10
-2.904915400000021
 20
112.6772862768687
 30
0.0
  0
VERTEX
  5
1F4
  8
0
  6
CONTINUOUS
 10
-2.904915400000021
 20
3.3037927735849162
 30
0.0
  0
VERTEX
  5
1F5
  8
0
  6
CONTINUOUS
 10
-2.8884380080100298
 20
2.9012698196880198
 30
0.0
  0
VERTEX
  5
1F6
  8
0
  6
CONTINUOUS
 10
-2.8355922720333009
 20
2.4284576090972498
 30
0.0
  0
VERTEX
  5
1F7
  8
0
  6
CONTINUOUS
 10
-2.7406603879667268
 20
1.9621763788618221
 30
0.0
  0
VERTEX
  5
1F8
  8
0
  6
CONTINUOUS
 10
-2.6136255837634561
 20
1.5065023959030159
 30
0.0
  0
VERTEX
  5
1F9
  8
0
  6
CONTINUOUS
 10
-2.447860027466028
 20
1.064451556446194
 30
0.0
  0
VERTEX
  5
1FA
  8
0
  6
CONTINUOUS
 10
-2.255194522020854
 20
0.643852360738729
 30
0.0
  0
VERTEX
  5
1FB
  8
0
  6
CONTINUOUS
 10
-2.0256320278572542
 20
0.2339172106514149
 30
0.0
  0
VERTEX
  5
1FC
  8
0
  6
CONTINUOUS
 10
-1.764575507391678
 20
-0.1604406506739488
 30
0.0
  0
VERTEX
  5
1FD
  8
0
  6
CONTINUOUS
 10
-1.4701327103217039
 20
-0.532669271734789
 30
0.0
  0
VERTEX
  5
1FE
  8
0
  6
CONTINUOUS
 10
-1.150215670957377
 20
-0.8801628472818432
 30
0.0
  0
VERTEX
  5
1FF
  8
0
  6
CONTINUOUS
 10
-0.8027463574669264
 20
-1.2000444948752651
 30
0.0
  0
VERTEX
  5
200
  8
0
  6
CONTINUOUS
 10
-0.4305431720773211
 20
-1.4944732184889431
 30
0.0
  0
VERTEX
  5
201
  8
0
  6
CONTINUOUS
 10
-0.0361847827316239
 20
-1.7555300884924461
 30
0.0
  0
VERTEX
  5
202
  8
0
  6
CONTINUOUS
 10
0.3737472995649847
 20
-1.9850960210233679
 30
0.0
  0
VERTEX
  5
203
  8
0
  6
CONTINUOUS
 10
0.7943606571972188
 20
-2.1777649009430542
 30
0.0
  0
VERTEX
  5
204
  8
0
  6
CONTINUOUS
 10
1.2363865805181531
 20
-2.3435246221883328
 30
0.0
  0
VERTEX
  5
205
  8
0
  6
CONTINUOUS
 10
1.6920764095459651
 20
-2.4705658481181851
 30
0.0
  0
VERTEX
  5
206
  8
0
  6
CONTINUOUS
 10
2.1583645722465512
 20
-2.5654971173957422
 30
0.0
  0
VERTEX
  5
207
  8
0
  6
CONTINUOUS
 10
2.6311868285984699
 20
-2.6183437386460411
 30
0.0
  0
VERTEX
  5
208
  8
0
  6
CONTINUOUS
 10
3.0336990717758461
 20
-2.6348190000000069
 30
0.0
  0
VERTEX
  5
209
  8
0
  6
CONTINUOUS
 10
355.2942773896973
 20
-2.6348190000000069
 30
0.0
  0
VERTEX
  5
20A
  8
0
  6
CONTINUOUS
 10
355.69805299188101
 20
-2.618317238631076
 30
0.0
  0
VERTEX
  5
20B
  8
0
  6
CONTINUOUS
 10
356.16608356125522
 20
-2.5657210479508401
 30
0.0
  0
VERTEX
  5
20C
  8
0
  6
CONTINUOUS
 10
356.63679317058092
 20
-2.4710700324309518
 30
0.0
  0
VERTEX
  5
20D
  8
0
  6
CONTINUOUS
 10
357.09769723645678
 20
-2.3417905207498579
 30
0.0
  0
VERTEX
  5
20E
  8
0
  6
CONTINUOUS
 10
357.53237280004998
 20
-2.1776856093441901
 30
0.0
  0
VERTEX
  5
20F
  8
0
  6
CONTINUOUS
 10
357.9592802777226
 20
-1.9834069659117031
 30
0.0
  0
VERTEX
  5
210
  8
0
  6
CONTINUOUS
 10
358.3620300302785
 20
-1.754878069551993
 30
0.0
  0
VERTEX
  5
211
  8
0
  6
CONTINUOUS
 10
358.75788640473678
 20
-1.495900032573046
 30
0.0
  0
VERTEX
  5
212
  8
0
  6
CONTINUOUS
 10
359.13628326083358
 20
-1.193856631712531
 30
0.0
  0
VERTEX
  5
213
  8
0
  6
CONTINUOUS
 10
359.46723791005479
 20
-0.8880583618974899
 30
0.0
  0
VERTEX
  5
214
  8
0
  6
CONTINUOUS
 10
359.7972435528045
 20
-0.536531492261527
 30
0.0
  0
VERTEX
  5
215
  8
0
  6
CONTINUOUS
 10
360.09251155016568
 20
-0.1578912950903946
 30
0.0
  0
VERTEX
  5
216
  8
0
  6
CONTINUOUS
 10
360.34951540502072
 20
0.2260057607721456
 30
0.0
  0
VERTEX
  5
217
  8
0
  6
CONTINUOUS
 10
360.58002012909441
 20
0.6367612048525512
 30
0.0
  0
VERTEX
  5
218
  8
0
  6
CONTINUOUS
 10
360.7795723182096
 20
1.0672900136723491
 30
0.0
  0
VERTEX
  5
219
  8
0
  6
CONTINUOUS
 10
360.94319939404431
 20
1.5126990747925411
 30
0.0
  0
VERTEX
  5
21A
  8
0
  6
CONTINUOUS
 10
361.07183377796201
 20
1.96971292190587
 30
0.0
  0
VERTEX
  5
21B
  8
0
  6
CONTINUOUS
 10
361.16037976015667
 20
2.422537074848985
 30
0.0
  0
VERTEX
  5
21C
  8
0
  6
CONTINUOUS
 10
361.21951124224699
 20
2.9001971091420762
 30
0.0
  0
VERTEX
  5
21D
  8
0
  6
CONTINUOUS
 10
361.23200000000003
 20
3.3206222183572631
 30
0.0
  0
VERTEX
  5
21E
  8
0
  6
CONTINUOUS
 10
361.23200000000003
 20
112.6604817440822
 30
0.0
  0
VERTEX
  5
21F
  8
0
  6
CONTINUOUS
 10
361.2195133334875
 20
113.081460786506
 30
0.0
  0
VERTEX
  5
220
  8
0
  6
CONTINUOUS
 10
361.16032105317731
 20
113.55908125521491
 30
0.0
  0
VERTEX
  5
221
  8
0
  6
CONTINUOUS
 10
361.07166450546072
 20
114.0122147213235
 30
0.0
  0
VERTEX
  5
222
  8
0
  6
CONTINUOUS
 10
360.9432778313365
 20
114.4675862061069
 30
0.0
  0
VERTEX
  5
223
  8
0
  6
CONTINUOUS
 10
360.78042251884602
 20
114.9119198364822
 30
0.0
  0
VERTEX
  5
224
  8
0
  6
CONTINUOUS
 10
360.57963065783849
 20
115.34595476835599
 30
0.0
  0
VERTEX
  5
225
  8
0
  6
CONTINUOUS
 10
360.3488437165841
 20
115.7558005433422
 30
0.0
  0
VERTEX
  5
226
  8
0
  6
CONTINUOUS
 10
360.09395334534821
 20
116.13716323618431
 30
0.0
  0
VERTEX
  5
227
  8
0
  6
CONTINUOUS
 10
359.79648603910499
 20
116.5193260948995
 30
0.0
  0
VERTEX
  5
228
  8
0
  6
CONTINUOUS
 10
359.46571835087673
 20
116.8703862793375
 30
0.0
  0
VERTEX
  5
229
  8
0
  6
CONTINUOUS
 10
359.13655965665669
 20
117.1748105052057
 30
0.0
  0
VERTEX
  5
22A
  8
0
  6
CONTINUOUS
 10
358.75950195453538
 20
117.47563249706261
 30
0.0
  0
VERTEX
  5
22B
  8
0
  6
CONTINUOUS
 10
358.36531523880973
 20
117.73444195688189
 30
0.0
  0
VERTEX
  5
22C
  8
0
  6
CONTINUOUS
 10
357.95627688275312
 20
117.9670323946399
 30
0.0
  0
VERTEX
  5
22D
  8
0
  6
CONTINUOUS
 10
357.52955249929801
 20
118.1595545583382
 30
0.0
  0
VERTEX
  5
22E
  8
0
  6
CONTINUOUS
 10
357.09729177142509
 20
118.3233794004091
 30
0.0
  0
VERTEX
  5
22F
  8
0
  6
CONTINUOUS
 10
356.63531341845061
 20
118.4521609766805
 30
0.0
  0
VERTEX
  5
230
  8
0
  6
CONTINUOUS
 10
356.16584622085378
 20
118.54686036847031
 30
0.0
  0
VERTEX
  5
231
  8
0
  6
CONTINUOUS
 10
355.69912389557629
 20
118.598940971291
 30
0.0
  0
VERTEX
  5
232
  8
0
  6
CONTINUOUS
 10
355.29653081804491
 20
118.616
 30
0.0
  0
VERTEX
  5
233
  8
0
  6
CONTINUOUS
 10
184.16399999999999
 20
118.616
 30
0.0
  0
SEQEND
  5
234
  8
0
  6
CONTINUOUS
  0
ENDSEC
  0
EOF
