  0
SECTION
  2
HEADER
  9
$ACADVER
  1
AC1009
  9
$INSBASE
 10
0.0
 20
0.0
 30
0.0
  9
$EXTMIN
 10
-2.9049154000000059
 20
-2.6348189999999998
 30
0.0
  9
$EXTMAX
 10
361.23200000000003
 20
118.616
 30
0.0
  9
$LIMMIN
 10
0.0
 20
0.0
  9
$LIMMAX
 10
12.0
 20
9.0
  9
$ORTHOMODE
 70
     0
  9
$REGENMODE
 70
     1
  9
$FILLMODE
 70
     0
  9
$QTEXTMODE
 70
     0
  9
$MIRRTEXT
 70
     0
  9
$DRAGMODE
 70
     2
  9
$LTSCALE
 40
1.0
  9
$OSMODE
 70
   167
  9
$ATTMODE
 70
     1
  9
$TEXTSIZE
 40
0.2
  9
$TRACEWID
 40
0.05
  9
$TEXTSTYLE
  7
STANDARD
  9
$CLAYER
  8
0
  9
$CELTYPE
  6
CONTINUOUS
  9
$CECOLOR
 62
   256
  9
$DIMSCALE
 40
1.0
  9
$DIMASZ
 40
0.18
  9
$DIMEXO
 40
0.0625
  9
$DIMDLI
 40
0.38
  9
$DIMRND
 40
0.0
  9
$DIMDLE
 40
0.0
  9
$DIMEXE
 40
0.18
  9
$DIMTP
 40
0.0
  9
$DIMTM
 40
0.0
  9
$DIMTXT
 40
0.18
  9
$DIMCEN
 40
0.09
  9
$DIMTSZ
 40
0.0
  9
$DIMTOL
 70
     0
  9
$DIMLIM
 70
     0
  9
$DIMTIH
 70
     1
  9
$DIMTOH
 70
     1
  9
$DIMSE1
 70
     0
  9
$DIMSE2
 70
     0
  9
$DIMTAD
 70
     0
  9
$DIMZIN
 70
     0
  9
$DIMBLK
  1

  9
$DIMASO
 70
     1
  9
$DIMSHO
 70
     1
  9
$DIMPOST
  1

  9
$DIMAPOST
  1

  9
$DIMALT
 70
     0
  9
$DIMALTD
 70
     2
  9
$DIMALTF
 40
25.399999999999999
  9
$DIMLFAC
 40
1.0
  9
$DIMTOFL
 70
     0
  9
$DIMTVP
 40
0.0
  9
$DIMTIX
 70
     0
  9
$DIMSOXD
 70
     0
  9
$DIMSAH
 70
     0
  9
$DIMBLK1
  1

  9
$DIMBLK2
  1

  9
$DIMSTYLE
  2
STANDARD
  9
$DIMCLRD
 70
     0
  9
$DIMCLRE
 70
     0
  9
$DIMCLRT
 70
     0
  9
$DIMTFAC
 40
1.0
  9
$DIMGAP
 40
0.09
  9
$LUNITS
 70
     2
  9
$LUPREC
 70
     4
  9
$SKETCHINC
 40
0.1
  9
$FILLETRAD
 40
0.0
  9
$AUNITS
 70
     0
  9
$AUPREC
 70
     0
  9
$MENU
  1
.
  9
$ELEVATION
 40
0.0
  9
$PELEVATION
 40
0.0
  9
$THICKNESS
 40
0.0
  9
$LIMCHECK
 70
     0
  9
$BLIPMODE
 70
     0
  9
$CHAMFERA
 40
0.0
  9
$CHAMFERB
 40
0.0
  9
$SKPOLY
 70
     0
  9
$TDCREATE
 40
2459290.7070841901
  9
$TDUPDATE
 40
2459290.7096472448
  9
$TDINDWG
 40
0.0025662269
  9
$TDUSRTIMER
 40
0.0025662269
  9
$USRTIMER
 70
     1
  9
$ANGBASE
 50
0.0
  9
$ANGDIR
 70
     0
  9
$PDMODE
 70
     0
  9
$PDSIZE
 40
0.0
  9
$PLINEWID
 40
0.0
  9
$COORDS
 70
     1
  9
$SPLFRAME
 70
     1
  9
$SPLINETYPE
 70
     6
  9
$SPLINESEGS
 70
     8
  9
$ATTDIA
 70
     1
  9
$ATTREQ
 70
     1
  9
$HANDLING
 70
     1
  9
$HANDSEED
  5
420
  9
$SURFTAB1
 70
     6
  9
$SURFTAB2
 70
     6
  9
$SURFTYPE
 70
     6
  9
$SURFU
 70
     6
  9
$SURFV
 70
     6
  9
$UCSNAME
  2

  9
$UCSORG
 10
0.0
 20
0.0
 30
0.0
  9
$UCSXDIR
 10
1.0
 20
0.0
 30
0.0
  9
$UCSYDIR
 10
0.0
 20
1.0
 30
0.0
  9
$PUCSNAME
  2

  9
$PUCSORG
 10
0.0
 20
0.0
 30
0.0
  9
$PUCSXDIR
 10
1.0
 20
0.0
 30
0.0
  9
$PUCSYDIR
 10
0.0
 20
1.0
 30
0.0
  9
$USERI1
 70
     0
  9
$USERI2
 70
     0
  9
$USERI3
 70
     0
  9
$USERI4
 70
     0
  9
$USERI5
 70
     0
  9
$USERR1
 40
0.0
  9
$USERR2
 40
0.0
  9
$USERR3
 40
0.0
  9
$USERR4
 40
0.0
  9
$USERR5
 40
0.0
  9
$WORLDVIEW
 70
     1
  9
$SHADEDGE
 70
     3
  9
$SHADEDIF
 70
    70
  9
$TILEMODE
 70
     1
  9
$MAXACTVP
 70
    64
  9
$PLIMCHECK
 70
     0
  9
$PEXTMIN
 10
1.0000000000000000E+020
 20
1.0000000000000000E+020
 30
1.0000000000000000E+020
  9
$PEXTMAX
 10
-1.0000000000000000E+020
 20
-1.0000000000000000E+020
 30
-1.0000000000000000E+020
  9
$PLIMMIN
 10
0.0
 20
0.0
  9
$PLIMMAX
 10
12.0
 20
9.0
  9
$UNITMODE
 70
     0
  9
$VISRETAIN
 70
     1
  9
$PLINEGEN
 70
     0
  9
$PSLTSCALE
 70
     1
  0
ENDSEC
  0
SECTION
  2
TABLES
  0
TABLE
  2
VPORT
 70
     1
  0
VPORT
  2
*ACTIVE
 70
     0
 10
0.0
 20
0.0
 11
1.0
 21
1.0
 12
298.95441327222301
 22
51.770242227255977
 13
0.0
 23
0.0
 14
1.0
 24
1.0
 15
0.0
 25
0.0
 16
0.0
 26
0.0
 36
1.0
 17
0.0
 27
0.0
 37
0.0
 40
416.29661195798559
 41
2.5847619047619039
 42
50.0
 43
0.0
 44
0.0
 50
0.0
 51
0.0
 71
     0
 72
   100
 73
     1
 74
     1
 75
     0
 76
     0
 77
     0
 78
     0
  0
ENDTAB
  0
TABLE
  2
LTYPE
 70
     2
  0
LTYPE
  2
CONTINUOUS
 70
     0
  3
Solid line
 72
    65
 73
     0
 40
0.0
  0
ENDTAB
  0
TABLE
  2
LAYER
 70
     1
  0
LAYER
  2
0
 70
     0
 62
     7
  6
CONTINUOUS
  0
ENDTAB
  0
TABLE
  2
STYLE
 70
     2
  0
STYLE
  2
STANDARD
 70
     0
 40
0.0
 41
1.0
 50
0.0
 71
     0
 42
0.2
  3
txt
  4

  0
STYLE
  2
ANNOTATIVE
 70
     0
 40
0.0
 41
1.0
 50
0.0
 71
     0
 42
0.2
  3
txt
  4

  0
ENDTAB
  0
TABLE
  2
VIEW
 70
     0
  0
ENDTAB
  0
TABLE
  2
UCS
 70
     0
  0
ENDTAB
  0
TABLE
  2
APPID
 70
     5
  0
APPID
  2
ACAD
 70
     0
  0
APPID
  2
ACADANNOTATIVE
 70
     0
  0
APPID
  2
ACAD_EXEMPT_FROM_CAD_STANDARDS
 70
     0
  0
APPID
  2
ACAD_NAV_VCDISPLAY
 70
     0
  0
APPID
  2
ACAD_MLEADERVER
 70
     0
  0
ENDTAB
  0
TABLE
  2
DIMSTYLE
 70
     3
  0
DIMSTYLE
  2
STANDARD
 70
     0
  3

  4

  5

  6

  7

 40
1.0
 41
0.18
 42
0.0625
 43
0.38
 44
0.18
 45
0.0
 46
0.0
 47
0.0
 48
0.0
140
0.18
141
0.09
142
0.0
143
25.399999999999999
144
1.0
145
0.0
146
1.0
147
0.09
 71
     0
 72
     0
 73
     1
 74
     1
 75
     0
 76
     0
 77
     0
 78
     0
170
     0
171
     2
172
     0
173
     0
174
     0
175
     0
176
     0
177
     0
178
     0
  0
DIMSTYLE
  2
ANNOTATIVE
 70
     0
  3

  4

  5

  6

  7

 40
1.0
 41
0.18
 42
0.0625
 43
0.38
 44
0.18
 45
0.0
 46
0.0
 47
0.0
 48
0.0
140
0.18
141
0.09
142
0.0
143
25.399999999999999
144
1.0
145
0.0
146
1.0
147
0.09
 71
     0
 72
     0
 73
     1
 74
     1
 75
     0
 76
     0
 77
     0
 78
     0
170
     0
171
     2
172
     0
173
     0
174
     0
175
     0
176
     0
177
     0
178
     0
  0
ENDTAB
  0
ENDSEC
  0
SECTION
  2
BLOCKS
  0
BLOCK
  8
0
  2
$MODEL_SPACE
 70
     0
 10
0.0
 20
0.0
 30
0.0
  3
$MODEL_SPACE
  1

  0
ENDBLK
  5
71
  8
0
  0
BLOCK
 67
     1
  8
0
  2
$PAPER_SPACE
 70
     0
 10
0.0
 20
0.0
 30
0.0
  3
$PAPER_SPACE
  1

  0
ENDBLK
  5
6D
 67
     1
  8
0
  0
ENDSEC
  0
SECTION
  2
ENTITIES
  0
LINE
  5
C9
  8
0
 62
     0
 10
2.63205
 20
4.7914300000000001
 30
0.0
 11
2.21313
 21
4.579229999999999
 31
0.0
  0
LINE
  5
CA
  8
0
 62
     0
 10
2.21313
 20
4.579229999999999
 30
0.0
 11
1.8810199999999999
 21
4.2471300000000003
 31
0.0
  0
LINE
  5
CB
  8
0
 62
     0
 10
1.8810199999999999
 20
4.2471300000000003
 30
0.0
 11
1.6688000000000001
 21
3.8281999999999989
 31
0.0
  0
LINE
  5
CC
  8
0
 62
     0
 10
1.6688000000000001
 20
3.8281999999999989
 30
0.0
 11
1.5943899999999991
 21
3.3651699999999991
 31
0.0
  0
LINE
  5
CD
  8
0
 62
     0
 10
1.5943899999999991
 20
3.3651699999999991
 30
0.0
 11
1.6688000000000001
 21
2.9021499999999989
 31
0.0
  0
LINE
  5
CE
  8
0
 62
     0
 10
1.6688000000000001
 20
2.9021499999999989
 30
0.0
 11
1.8810199999999999
 21
2.4832200000000002
 31
0.0
  0
LINE
  5
CF
  8
0
 62
     0
 10
1.8810199999999999
 20
2.4832200000000002
 30
0.0
 11
2.21313
 21
2.1511200000000001
 31
0.0
  0
LINE
  5
D0
  8
0
 62
     0
 10
2.21313
 20
2.1511200000000001
 30
0.0
 11
2.63205
 21
1.9389000000000001
 31
0.0
  0
LINE
  5
D1
  8
0
 62
     0
 10
2.63205
 20
1.9389000000000001
 30
0.0
 11
3.0950700000000002
 21
1.865859999999999
 31
0.0
  0
LINE
  5
D2
  8
0
 62
     0
 10
3.0950700000000002
 20
1.865859999999999
 30
0.0
 11
3.5580799999999999
 21
1.9389000000000001
 31
0.0
  0
LINE
  5
D3
  8
0
 62
     0
 10
3.5580799999999999
 20
1.9389000000000001
 30
0.0
 11
3.977009999999999
 21
2.1511200000000001
 31
0.0
  0
LINE
  5
D4
  8
0
 62
     0
 10
3.977009999999999
 20
2.1511200000000001
 30
0.0
 11
4.3091099999999987
 21
2.4832200000000002
 31
0.0
  0
LINE
  5
D5
  8
0
 62
     0
 10
4.3091099999999987
 20
2.4832200000000002
 30
0.0
 11
4.5213400000000004
 21
2.9021499999999989
 31
0.0
  0
LINE
  5
D6
  8
0
 62
     0
 10
4.5213400000000004
 20
2.9021499999999989
 30
0.0
 11
4.5943699999999987
 21
3.3651699999999991
 31
0.0
  0
LINE
  5
D7
  8
0
 62
     0
 10
4.5943699999999987
 20
3.3651699999999991
 30
0.0
 11
4.5213400000000004
 21
3.8281999999999989
 31
0.0
  0
LINE
  5
D8
  8
0
 62
     0
 10
4.5213400000000004
 20
3.8281999999999989
 30
0.0
 11
4.3091099999999987
 21
4.2471300000000003
 31
0.0
  0
LINE
  5
D9
  8
0
 62
     0
 10
4.3091099999999987
 20
4.2471300000000003
 30
0.0
 11
3.977009999999999
 21
4.579229999999999
 31
0.0
  0
LINE
  5
DA
  8
0
 62
     0
 10
3.977009999999999
 20
4.579229999999999
 30
0.0
 11
3.5580799999999999
 21
4.7914300000000001
 31
0.0
  0
LINE
  5
DB
  8
0
 62
     0
 10
3.5580799999999999
 20
4.7914300000000001
 30
0.0
 11
3.0950700000000002
 21
4.8658599999999987
 31
0.0
  0
LINE
  5
DC
  8
0
 62
     0
 10
3.0950700000000002
 20
4.8658599999999987
 30
0.0
 11
2.63205
 21
4.7914300000000001
 31
0.0
  0
LINE
  5
DD
  8
0
 62
     0
 10
120.011
 20
4.7914300000000001
 30
0.0
 11
119.593
 21
4.579229999999999
 31
0.0
  0
LINE
  5
DE
  8
0
 62
     0
 10
119.593
 20
4.579229999999999
 30
0.0
 11
119.261
 21
4.2471300000000003
 31
0.0
  0
LINE
  5
DF
  8
0
 62
     0
 10
119.261
 20
4.2471300000000003
 30
0.0
 11
119.047
 21
3.8281999999999989
 31
0.0
  0
LINE
  5
E0
  8
0
 62
     0
 10
119.047
 20
3.8281999999999989
 30
0.0
 11
118.974
 21
3.3651699999999991
 31
0.0
  0
LINE
  5
E1
  8
0
 62
     0
 10
118.974
 20
3.3651699999999991
 30
0.0
 11
119.047
 21
2.9021499999999989
 31
0.0
  0
LINE
  5
E2
  8
0
 62
     0
 10
119.047
 20
2.9021499999999989
 30
0.0
 11
119.261
 21
2.4832200000000002
 31
0.0
  0
LINE
  5
E3
  8
0
 62
     0
 10
119.261
 20
2.4832200000000002
 30
0.0
 11
119.593
 21
2.1511200000000001
 31
0.0
  0
LINE
  5
E4
  8
0
 62
     0
 10
119.593
 20
2.1511200000000001
 30
0.0
 11
120.011
 21
1.9389000000000001
 31
0.0
  0
LINE
  5
E5
  8
0
 62
     0
 10
120.011
 20
1.9389000000000001
 30
0.0
 11
120.47499999999999
 21
1.865859999999999
 31
0.0
  0
LINE
  5
E6
  8
0
 62
     0
 10
120.47499999999999
 20
1.865859999999999
 30
0.0
 11
120.938
 21
1.9389000000000001
 31
0.0
  0
LINE
  5
E7
  8
0
 62
     0
 10
120.938
 20
1.9389000000000001
 30
0.0
 11
121.357
 21
2.1511200000000001
 31
0.0
  0
LINE
  5
E8
  8
0
 62
     0
 10
121.357
 20
2.1511200000000001
 30
0.0
 11
121.68899999999999
 21
2.4832200000000002
 31
0.0
  0
LINE
  5
E9
  8
0
 62
     0
 10
121.68899999999999
 20
2.4832200000000002
 30
0.0
 11
121.901
 21
2.9021499999999989
 31
0.0
  0
LINE
  5
EA
  8
0
 62
     0
 10
121.901
 20
2.9021499999999989
 30
0.0
 11
121.974
 21
3.3651699999999991
 31
0.0
  0
LINE
  5
EB
  8
0
 62
     0
 10
121.974
 20
3.3651699999999991
 30
0.0
 11
121.901
 21
3.8281999999999989
 31
0.0
  0
LINE
  5
EC
  8
0
 62
     0
 10
121.901
 20
3.8281999999999989
 30
0.0
 11
121.68899999999999
 21
4.2471300000000003
 31
0.0
  0
LINE
  5
ED
  8
0
 62
     0
 10
121.68899999999999
 20
4.2471300000000003
 30
0.0
 11
121.357
 21
4.579229999999999
 31
0.0
  0
LINE
  5
EE
  8
0
 62
     0
 10
121.357
 20
4.579229999999999
 30
0.0
 11
120.938
 21
4.7914300000000001
 31
0.0
  0
LINE
  5
EF
  8
0
 62
     0
 10
120.938
 20
4.7914300000000001
 30
0.0
 11
120.47499999999999
 21
4.8658599999999987
 31
0.0
  0
LINE
  5
F0
  8
0
 62
     0
 10
120.47499999999999
 20
4.8658599999999987
 30
0.0
 11
120.011
 21
4.7914300000000001
 31
0.0
  0
LINE
  5
F1
  8
0
 62
     0
 10
237.39099999999999
 20
4.7914300000000001
 30
0.0
 11
236.97300000000001
 21
4.579229999999999
 31
0.0
  0
LINE
  5
F2
  8
0
 62
     0
 10
236.97300000000001
 20
4.579229999999999
 30
0.0
 11
236.64099999999999
 21
4.2471300000000003
 31
0.0
  0
LINE
  5
F3
  8
0
 62
     0
 10
236.64099999999999
 20
4.2471300000000003
 30
0.0
 11
236.42699999999999
 21
3.8281999999999989
 31
0.0
  0
LINE
  5
F4
  8
0
 62
     0
 10
236.42699999999999
 20
3.8281999999999989
 30
0.0
 11
236.35400000000001
 21
3.3651699999999991
 31
0.0
  0
LINE
  5
F5
  8
0
 62
     0
 10
236.35400000000001
 20
3.3651699999999991
 30
0.0
 11
236.42699999999999
 21
2.9021499999999989
 31
0.0
  0
LINE
  5
F6
  8
0
 62
     0
 10
236.42699999999999
 20
2.9021499999999989
 30
0.0
 11
236.64099999999999
 21
2.4832200000000002
 31
0.0
  0
LINE
  5
F7
  8
0
 62
     0
 10
236.64099999999999
 20
2.4832200000000002
 30
0.0
 11
236.97300000000001
 21
2.1511200000000001
 31
0.0
  0
LINE
  5
F8
  8
0
 62
     0
 10
236.97300000000001
 20
2.1511200000000001
 30
0.0
 11
237.39099999999999
 21
1.9389000000000001
 31
0.0
  0
LINE
  5
F9
  8
0
 62
     0
 10
237.39099999999999
 20
1.9389000000000001
 30
0.0
 11
237.85499999999999
 21
1.865859999999999
 31
0.0
  0
LINE
  5
FA
  8
0
 62
     0
 10
237.85499999999999
 20
1.865859999999999
 30
0.0
 11
238.31800000000001
 21
1.9389000000000001
 31
0.0
  0
LINE
  5
FB
  8
0
 62
     0
 10
238.31800000000001
 20
1.9389000000000001
 30
0.0
 11
238.73500000000001
 21
2.1511200000000001
 31
0.0
  0
LINE
  5
FC
  8
0
 62
     0
 10
238.73500000000001
 20
2.1511200000000001
 30
0.0
 11
239.06800000000001
 21
2.4832200000000002
 31
0.0
  0
LINE
  5
FD
  8
0
 62
     0
 10
239.06800000000001
 20
2.4832200000000002
 30
0.0
 11
239.28
 21
2.9021499999999989
 31
0.0
  0
LINE
  5
FE
  8
0
 62
     0
 10
239.28
 20
2.9021499999999989
 30
0.0
 11
239.35400000000001
 21
3.3651699999999991
 31
0.0
  0
LINE
  5
FF
  8
0
 62
     0
 10
239.35400000000001
 20
3.3651699999999991
 30
0.0
 11
239.28
 21
3.8281999999999989
 31
0.0
  0
LINE
  5
100
  8
0
 62
     0
 10
239.28
 20
3.8281999999999989
 30
0.0
 11
239.06800000000001
 21
4.2471300000000003
 31
0.0
  0
LINE
  5
101
  8
0
 62
     0
 10
239.06800000000001
 20
4.2471300000000003
 30
0.0
 11
238.73500000000001
 21
4.579229999999999
 31
0.0
  0
LINE
  5
102
  8
0
 62
     0
 10
238.73500000000001
 20
4.579229999999999
 30
0.0
 11
238.31800000000001
 21
4.7914300000000001
 31
0.0
  0
LINE
  5
103
  8
0
 62
     0
 10
238.31800000000001
 20
4.7914300000000001
 30
0.0
 11
237.85499999999999
 21
4.8658599999999987
 31
0.0
  0
LINE
  5
104
  8
0
 62
     0
 10
237.85499999999999
 20
4.8658599999999987
 30
0.0
 11
237.39099999999999
 21
4.7914300000000001
 31
0.0
  0
LINE
  5
105
  8
0
 62
     0
 10
354.767
 20
4.7914300000000001
 30
0.0
 11
354.351
 21
4.579229999999999
 31
0.0
  0
LINE
  5
106
  8
0
 62
     0
 10
354.351
 20
4.579229999999999
 30
0.0
 11
354.01999999999998
 21
4.2471300000000003
 31
0.0
  0
LINE
  5
107
  8
0
 62
     0
 10
354.01999999999998
 20
4.2471300000000003
 30
0.0
 11
353.80399999999997
 21
3.8281999999999989
 31
0.0
  0
LINE
  5
108
  8
0
 62
     0
 10
353.80399999999997
 20
3.8281999999999989
 30
0.0
 11
353.73399999999998
 21
3.3651699999999991
 31
0.0
  0
LINE
  5
109
  8
0
 62
     0
 10
353.73399999999998
 20
3.3651699999999991
 30
0.0
 11
353.80399999999997
 21
2.9021499999999989
 31
0.0
  0
LINE
  5
10A
  8
0
 62
     0
 10
353.80399999999997
 20
2.9021499999999989
 30
0.0
 11
354.01999999999998
 21
2.4832200000000002
 31
0.0
  0
LINE
  5
10B
  8
0
 62
     0
 10
354.01999999999998
 20
2.4832200000000002
 30
0.0
 11
354.351
 21
2.1511200000000001
 31
0.0
  0
LINE
  5
10C
  8
0
 62
     0
 10
354.351
 20
2.1511200000000001
 30
0.0
 11
354.767
 21
1.9389000000000001
 31
0.0
  0
LINE
  5
10D
  8
0
 62
     0
 10
354.767
 20
1.9389000000000001
 30
0.0
 11
355.233
 21
1.865859999999999
 31
0.0
  0
LINE
  5
10E
  8
0
 62
     0
 10
355.233
 20
1.865859999999999
 30
0.0
 11
355.69900000000001
 21
1.9389000000000001
 31
0.0
  0
LINE
  5
10F
  8
0
 62
     0
 10
355.69900000000001
 20
1.9389000000000001
 30
0.0
 11
356.11500000000001
 21
2.1511200000000001
 31
0.0
  0
LINE
  5
110
  8
0
 62
     0
 10
356.11500000000001
 20
2.1511200000000001
 30
0.0
 11
356.447
 21
2.4832200000000002
 31
0.0
  0
LINE
  5
111
  8
0
 62
     0
 10
356.447
 20
2.4832200000000002
 30
0.0
 11
356.66199999999998
 21
2.9021499999999989
 31
0.0
  0
LINE
  5
112
  8
0
 62
     0
 10
356.66199999999998
 20
2.9021499999999989
 30
0.0
 11
356.73200000000003
 21
3.3651699999999991
 31
0.0
  0
LINE
  5
113
  8
0
 62
     0
 10
356.73200000000003
 20
3.3651699999999991
 30
0.0
 11
356.66199999999998
 21
3.8281999999999989
 31
0.0
  0
LINE
  5
114
  8
0
 62
     0
 10
356.66199999999998
 20
3.8281999999999989
 30
0.0
 11
356.447
 21
4.2471300000000003
 31
0.0
  0
LINE
  5
115
  8
0
 62
     0
 10
356.447
 20
4.2471300000000003
 30
0.0
 11
356.11500000000001
 21
4.579229999999999
 31
0.0
  0
LINE
  5
116
  8
0
 62
     0
 10
356.11500000000001
 20
4.579229999999999
 30
0.0
 11
355.69900000000001
 21
4.7914300000000001
 31
0.0
  0
LINE
  5
117
  8
0
 62
     0
 10
355.69900000000001
 20
4.7914300000000001
 30
0.0
 11
355.233
 21
4.8658599999999987
 31
0.0
  0
LINE
  5
118
  8
0
 62
     0
 10
355.233
 20
4.8658599999999987
 30
0.0
 11
354.767
 21
4.7914300000000001
 31
0.0
  0
LINE
  5
119
  8
0
 62
     0
 10
167.4009999999999
 20
26.891100000000002
 30
0.0
 11
167.4009999999999
 21
22.1905
 31
0.0
  0
LINE
  5
11A
  8
0
 62
     0
 10
167.4009999999999
 20
22.1905
 30
0.0
 11
127.776
 21
22.1905
 31
0.0
  0
LINE
  5
11B
  8
0
 62
     0
 10
127.776
 20
22.1905
 30
0.0
 11
127.776
 21
25.4207
 31
0.0
  0
LINE
  5
11C
  8
0
 62
     0
 10
127.776
 20
25.4207
 30
0.0
 11
121.026
 21
25.4207
 31
0.0
  0
LINE
  5
11D
  8
0
 62
     0
 10
121.026
 20
25.4207
 30
0.0
 11
121.026
 21
22.1905
 31
0.0
  0
LINE
  5
11E
  8
0
 62
     0
 10
121.026
 20
22.1905
 30
0.0
 11
120.202
 21
22.1905
 31
0.0
  0
LINE
  5
11F
  8
0
 62
     0
 10
120.202
 20
22.1905
 30
0.0
 11
120.202
 21
19.3904
 31
0.0
  0
LINE
  5
120
  8
0
 62
     0
 10
120.202
 20
19.3904
 30
0.0
 11
121.026
 21
19.3904
 31
0.0
  0
LINE
  5
121
  8
0
 62
     0
 10
121.026
 20
19.3904
 30
0.0
 11
121.026
 21
13.121700000000001
 31
0.0
  0
LINE
  5
122
  8
0
 62
     0
 10
121.026
 20
13.121700000000001
 30
0.0
 11
122.751
 21
13.121700000000001
 31
0.0
  0
LINE
  5
123
  8
0
 62
     0
 10
122.751
 20
13.121700000000001
 30
0.0
 11
122.751
 21
11.92
 31
0.0
  0
LINE
  5
124
  8
0
 62
     0
 10
122.751
 20
11.92
 30
0.0
 11
126.051
 21
11.92
 31
0.0
  0
LINE
  5
125
  8
0
 62
     0
 10
126.051
 20
11.92
 30
0.0
 11
126.051
 21
13.121700000000001
 31
0.0
  0
LINE
  5
126
  8
0
 62
     0
 10
126.051
 20
13.121700000000001
 30
0.0
 11
127.776
 21
13.121700000000001
 31
0.0
  0
LINE
  5
127
  8
0
 62
     0
 10
127.776
 20
13.121700000000001
 30
0.0
 11
127.776
 21
17.591999999999999
 31
0.0
  0
LINE
  5
128
  8
0
 62
     0
 10
127.776
 20
17.591999999999999
 30
0.0
 11
167.4009999999999
 21
17.591999999999999
 31
0.0
  0
LINE
  5
129
  8
0
 62
     0
 10
167.4009999999999
 20
17.591999999999999
 30
0.0
 11
167.4009999999999
 21
12.8902
 31
0.0
  0
LINE
  5
12A
  8
0
 62
     0
 10
167.4009999999999
 20
12.8902
 30
0.0
 11
181.40100000000001
 21
12.8902
 31
0.0
  0
LINE
  5
12B
  8
0
 62
     0
 10
181.40100000000001
 20
12.8902
 30
0.0
 11
181.40100000000001
 21
17.591999999999999
 31
0.0
  0
LINE
  5
12C
  8
0
 62
     0
 10
181.40100000000001
 20
17.591999999999999
 30
0.0
 11
221.02600000000001
 21
17.591999999999999
 31
0.0
  0
LINE
  5
12D
  8
0
 62
     0
 10
221.02600000000001
 20
17.591999999999999
 30
0.0
 11
221.02600000000001
 21
13.121700000000001
 31
0.0
  0
LINE
  5
12E
  8
0
 62
     0
 10
221.02600000000001
 20
13.121700000000001
 30
0.0
 11
222.75200000000001
 21
13.121700000000001
 31
0.0
  0
LINE
  5
12F
  8
0
 62
     0
 10
222.75200000000001
 20
13.121700000000001
 30
0.0
 11
222.75200000000001
 21
11.92
 31
0.0
  0
LINE
  5
130
  8
0
 62
     0
 10
222.75200000000001
 20
11.92
 30
0.0
 11
226.05199999999999
 21
11.92
 31
0.0
  0
LINE
  5
131
  8
0
 62
     0
 10
226.05199999999999
 20
11.92
 30
0.0
 11
226.05199999999999
 21
13.121700000000001
 31
0.0
  0
LINE
  5
132
  8
0
 62
     0
 10
226.05199999999999
 20
13.121700000000001
 30
0.0
 11
227.77600000000001
 21
13.121700000000001
 31
0.0
  0
LINE
  5
133
  8
0
 62
     0
 10
227.77600000000001
 20
13.121700000000001
 30
0.0
 11
227.77600000000001
 21
19.3904
 31
0.0
  0
LINE
  5
134
  8
0
 62
     0
 10
227.77600000000001
 20
19.3904
 30
0.0
 11
228.601
 21
19.3904
 31
0.0
  0
LINE
  5
135
  8
0
 62
     0
 10
228.601
 20
19.3904
 30
0.0
 11
228.601
 21
22.1905
 31
0.0
  0
LINE
  5
136
  8
0
 62
     0
 10
228.601
 20
22.1905
 30
0.0
 11
227.77600000000001
 21
22.1905
 31
0.0
  0
LINE
  5
137
  8
0
 62
     0
 10
227.77600000000001
 20
22.1905
 30
0.0
 11
227.77600000000001
 21
25.4207
 31
0.0
  0
LINE
  5
138
  8
0
 62
     0
 10
227.77600000000001
 20
25.4207
 30
0.0
 11
221.02600000000001
 21
25.4207
 31
0.0
  0
LINE
  5
139
  8
0
 62
     0
 10
221.02600000000001
 20
25.4207
 30
0.0
 11
221.02600000000001
 21
22.1905
 31
0.0
  0
LINE
  5
13A
  8
0
 62
     0
 10
221.02600000000001
 20
22.1905
 30
0.0
 11
181.40100000000001
 21
22.1905
 31
0.0
  0
LINE
  5
13B
  8
0
 62
     0
 10
181.40100000000001
 20
22.1905
 30
0.0
 11
181.40100000000001
 21
26.891100000000002
 31
0.0
  0
LINE
  5
13C
  8
0
 62
     0
 10
181.40100000000001
 20
26.891100000000002
 30
0.0
 11
167.4009999999999
 21
26.891100000000002
 31
0.0
  0
LINE
  5
13D
  8
0
 62
     0
 10
331.70699999999999
 20
26.891100000000002
 30
0.0
 11
345.70699999999999
 21
26.891100000000002
 31
0.0
  0
LINE
  5
13E
  8
0
 62
     0
 10
345.70699999999999
 20
26.891100000000002
 30
0.0
 11
345.70699999999999
 21
12.8902
 31
0.0
  0
LINE
  5
13F
  8
0
 62
     0
 10
345.70699999999999
 20
12.8902
 30
0.0
 11
331.70699999999999
 21
12.8902
 31
0.0
  0
LINE
  5
140
  8
0
 62
     0
 10
331.70699999999999
 20
12.8902
 30
0.0
 11
331.70699999999999
 21
26.891100000000002
 31
0.0
  0
LINE
  5
141
  8
0
 62
     0
 10
312.65699999999998
 20
26.891100000000002
 30
0.0
 11
326.65699999999998
 21
26.891100000000002
 31
0.0
  0
LINE
  5
142
  8
0
 62
     0
 10
326.65699999999998
 20
26.891100000000002
 30
0.0
 11
326.65699999999998
 21
12.8902
 31
0.0
  0
LINE
  5
143
  8
0
 62
     0
 10
326.65699999999998
 20
12.8902
 30
0.0
 11
312.65699999999998
 21
12.8902
 31
0.0
  0
LINE
  5
144
  8
0
 62
     0
 10
312.65699999999998
 20
12.8902
 30
0.0
 11
312.65699999999998
 21
26.891100000000002
 31
0.0
  0
LINE
  5
145
  8
0
 62
     0
 10
293.60700000000003
 20
26.891100000000002
 30
0.0
 11
307.60700000000003
 21
26.891100000000002
 31
0.0
  0
LINE
  5
146
  8
0
 62
     0
 10
307.60700000000003
 20
26.891100000000002
 30
0.0
 11
307.60700000000003
 21
12.8902
 31
0.0
  0
LINE
  5
147
  8
0
 62
     0
 10
307.60700000000003
 20
12.8902
 30
0.0
 11
293.60700000000003
 21
12.8902
 31
0.0
  0
LINE
  5
148
  8
0
 62
     0
 10
293.60700000000003
 20
12.8902
 30
0.0
 11
293.60700000000003
 21
26.891100000000002
 31
0.0
  0
LINE
  5
149
  8
0
 62
     0
 10
274.55700000000002
 20
26.891100000000002
 30
0.0
 11
288.55700000000002
 21
26.891100000000002
 31
0.0
  0
LINE
  5
14A
  8
0
 62
     0
 10
288.55700000000002
 20
26.891100000000002
 30
0.0
 11
288.55700000000002
 21
12.8902
 31
0.0
  0
LINE
  5
14B
  8
0
 62
     0
 10
288.55700000000002
 20
12.8902
 30
0.0
 11
274.55700000000002
 21
12.8902
 31
0.0
  0
LINE
  5
14C
  8
0
 62
     0
 10
274.55700000000002
 20
12.8902
 30
0.0
 11
274.55700000000002
 21
26.891100000000002
 31
0.0
  0
LINE
  5
14D
  8
0
 62
     0
 10
255.506
 20
26.891100000000002
 30
0.0
 11
269.50700000000001
 21
26.891100000000002
 31
0.0
  0
LINE
  5
14E
  8
0
 62
     0
 10
269.50700000000001
 20
26.891100000000002
 30
0.0
 11
269.50700000000001
 21
12.8902
 31
0.0
  0
LINE
  5
14F
  8
0
 62
     0
 10
269.50700000000001
 20
12.8902
 30
0.0
 11
255.506
 21
12.8902
 31
0.0
  0
LINE
  5
150
  8
0
 62
     0
 10
255.506
 20
12.8902
 30
0.0
 11
255.506
 21
26.891100000000002
 31
0.0
  0
LINE
  5
151
  8
0
 62
     0
 10
236.45699999999999
 20
26.891100000000002
 30
0.0
 11
250.45699999999999
 21
26.891100000000002
 31
0.0
  0
LINE
  5
152
  8
0
 62
     0
 10
250.45699999999999
 20
26.891100000000002
 30
0.0
 11
250.45699999999999
 21
12.8902
 31
0.0
  0
LINE
  5
154
  8
0
 62
     0
 10
236.45699999999999
 20
12.8902
 30
0.0
 11
236.45699999999999
 21
26.891100000000002
 31
0.0
  0
LINE
  5
155
  8
0
 62
     0
 10
95.963700000000003
 20
26.891100000000002
 30
0.0
 11
109.96299999999999
 21
26.891100000000002
 31
0.0
  0
LINE
  5
156
  8
0
 62
     0
 10
109.96299999999999
 20
26.891100000000002
 30
0.0
 11
109.96299999999999
 21
12.8902
 31
0.0
  0
LINE
  5
157
  8
0
 62
     0
 10
109.96299999999999
 20
12.8902
 30
0.0
 11
95.963700000000003
 21
12.8902
 31
0.0
  0
LINE
  5
158
  8
0
 62
     0
 10
95.963700000000003
 20
12.8902
 30
0.0
 11
95.963700000000003
 21
26.891100000000002
 31
0.0
  0
LINE
  5
159
  8
0
 62
     0
 10
72.151200000000003
 20
26.891100000000002
 30
0.0
 11
86.150800000000004
 21
26.891100000000002
 31
0.0
  0
LINE
  5
15A
  8
0
 62
     0
 10
86.150800000000004
 20
26.891100000000002
 30
0.0
 11
86.150800000000004
 21
12.8902
 31
0.0
  0
LINE
  5
15B
  8
0
 62
     0
 10
86.150800000000004
 20
12.8902
 30
0.0
 11
72.151200000000003
 21
12.8902
 31
0.0
  0
LINE
  5
15C
  8
0
 62
     0
 10
72.151200000000003
 20
12.8902
 30
0.0
 11
72.151200000000003
 21
26.891100000000002
 31
0.0
  0
LINE
  5
15D
  8
0
 62
     0
 10
48.338700000000003
 20
26.891100000000002
 30
0.0
 11
62.338299999999997
 21
26.891100000000002
 31
0.0
  0
LINE
  5
15E
  8
0
 62
     0
 10
62.338299999999997
 20
26.891100000000002
 30
0.0
 11
62.338299999999997
 21
12.8902
 31
0.0
  0
LINE
  5
15F
  8
0
 62
     0
 10
62.338299999999997
 20
12.8902
 30
0.0
 11
48.338700000000003
 21
12.8902
 31
0.0
  0
LINE
  5
160
  8
0
 62
     0
 10
48.338700000000003
 20
12.8902
 30
0.0
 11
48.338700000000003
 21
26.891100000000002
 31
0.0
  0
LINE
  5
161
  8
0
 62
     0
 10
12.620100000000001
 20
26.891100000000002
 30
0.0
 11
26.620899999999999
 21
26.891100000000002
 31
0.0
  0
LINE
  5
162
  8
0
 62
     0
 10
26.620899999999999
 20
26.891100000000002
 30
0.0
 11
26.620899999999999
 21
12.8902
 31
0.0
  0
LINE
  5
163
  8
0
 62
     0
 10
26.620899999999999
 20
12.8902
 30
0.0
 11
12.620100000000001
 21
12.8902
 31
0.0
  0
LINE
  5
164
  8
0
 62
     0
 10
12.620100000000001
 20
12.8902
 30
0.0
 11
12.620100000000001
 21
26.891100000000002
 31
0.0
  0
LINE
  5
165
  8
0
 62
     0
 10
57.863700000000001
 20
45.941200000000002
 30
0.0
 11
57.863700000000001
 21
41.240399999999987
 31
0.0
  0
LINE
  5
166
  8
0
 62
     0
 10
57.863700000000001
 20
41.240399999999987
 30
0.0
 11
56.33829999999999
 21
41.240399999999987
 31
0.0
  0
LINE
  5
167
  8
0
 62
     0
 10
56.33829999999999
 20
41.240399999999987
 30
0.0
 11
56.33829999999999
 21
44.47079999999999
 31
0.0
  0
LINE
  5
168
  8
0
 62
     0
 10
56.33829999999999
 20
44.47079999999999
 30
0.0
 11
49.5886
 21
44.47079999999999
 31
0.0
  0
LINE
  5
169
  8
0
 62
     0
 10
49.5886
 20
44.47079999999999
 30
0.0
 11
49.5886
 21
41.240399999999987
 31
0.0
  0
LINE
  5
16A
  8
0
 62
     0
 10
49.5886
 20
41.240399999999987
 30
0.0
 11
48.76339999999999
 21
41.240399999999987
 31
0.0
  0
LINE
  5
16B
  8
0
 62
     0
 10
48.76339999999999
 20
41.240399999999987
 30
0.0
 11
48.76339999999999
 21
38.440399999999997
 31
0.0
  0
LINE
  5
16C
  8
0
 62
     0
 10
48.76339999999999
 20
38.440399999999997
 30
0.0
 11
49.5886
 21
38.440399999999997
 31
0.0
  0
LINE
  5
16D
  8
0
 62
     0
 10
49.5886
 20
38.440399999999997
 30
0.0
 11
49.5886
 21
32.170299999999997
 31
0.0
  0
LINE
  5
16E
  8
0
 62
     0
 10
49.5886
 20
32.170299999999997
 30
0.0
 11
51.313999999999993
 21
32.170299999999997
 31
0.0
  0
LINE
  5
16F
  8
0
 62
     0
 10
51.313999999999993
 20
32.170299999999997
 30
0.0
 11
51.313999999999993
 21
30.969999999999999
 31
0.0
  0
LINE
  5
170
  8
0
 62
     0
 10
51.313999999999993
 20
30.969999999999999
 30
0.0
 11
54.613199999999999
 21
30.969999999999999
 31
0.0
  0
LINE
  5
171
  8
0
 62
     0
 10
54.613199999999999
 20
30.969999999999999
 30
0.0
 11
54.613199999999999
 21
32.170299999999997
 31
0.0
  0
LINE
  5
172
  8
0
 62
     0
 10
54.613199999999999
 20
32.170299999999997
 30
0.0
 11
56.33829999999999
 21
32.170299999999997
 31
0.0
  0
LINE
  5
173
  8
0
 62
     0
 10
56.33829999999999
 20
32.170299999999997
 30
0.0
 11
56.33829999999999
 21
36.640599999999999
 31
0.0
  0
LINE
  5
174
  8
0
 62
     0
 10
56.33829999999999
 20
36.640599999999999
 30
0.0
 11
57.863700000000001
 21
36.640599999999999
 31
0.0
  0
LINE
  5
175
  8
0
 62
     0
 10
57.863700000000001
 20
36.640599999999999
 30
0.0
 11
57.863700000000001
 21
31.940200000000001
 31
0.0
  0
LINE
  5
176
  8
0
 62
     0
 10
57.863700000000001
 20
31.940200000000001
 30
0.0
 11
71.863299999999995
 21
31.940200000000001
 31
0.0
  0
LINE
  5
177
  8
0
 62
     0
 10
71.863299999999995
 20
31.940200000000001
 30
0.0
 11
71.863299999999995
 21
36.640599999999999
 31
0.0
  0
LINE
  5
178
  8
0
 62
     0
 10
71.863299999999995
 20
36.640599999999999
 30
0.0
 11
73.3887
 21
36.640599999999999
 31
0.0
  0
LINE
  5
179
  8
0
 62
     0
 10
73.3887
 20
36.640599999999999
 30
0.0
 11
73.3887
 21
32.170299999999997
 31
0.0
  0
LINE
  5
17A
  8
0
 62
     0
 10
73.3887
 20
32.170299999999997
 30
0.0
 11
75.114099999999993
 21
32.170299999999997
 31
0.0
  0
LINE
  5
17B
  8
0
 62
     0
 10
75.114099999999993
 20
32.170299999999997
 30
0.0
 11
75.114099999999993
 21
30.969999999999999
 31
0.0
  0
LINE
  5
17C
  8
0
 62
     0
 10
75.114099999999993
 20
30.969999999999999
 30
0.0
 11
78.412999999999997
 21
30.969999999999999
 31
0.0
  0
LINE
  5
17D
  8
0
 62
     0
 10
78.412999999999997
 20
30.969999999999999
 30
0.0
 11
78.412999999999997
 21
32.170299999999997
 31
0.0
  0
LINE
  5
17E
  8
0
 62
     0
 10
78.412999999999997
 20
32.170299999999997
 30
0.0
 11
80.138400000000004
 21
32.170299999999997
 31
0.0
  0
LINE
  5
17F
  8
0
 62
     0
 10
80.138400000000004
 20
32.170299999999997
 30
0.0
 11
80.138400000000004
 21
38.440399999999997
 31
0.0
  0
LINE
  5
180
  8
0
 62
     0
 10
80.138400000000004
 20
38.440399999999997
 30
0.0
 11
80.963899999999995
 21
38.440399999999997
 31
0.0
  0
LINE
  5
181
  8
0
 62
     0
 10
80.963899999999995
 20
38.440399999999997
 30
0.0
 11
80.963899999999995
 21
41.240399999999987
 31
0.0
  0
LINE
  5
182
  8
0
 62
     0
 10
80.963899999999995
 20
41.240399999999987
 30
0.0
 11
80.138400000000004
 21
41.240399999999987
 31
0.0
  0
LINE
  5
183
  8
0
 62
     0
 10
80.138400000000004
 20
41.240399999999987
 30
0.0
 11
80.138400000000004
 21
44.47079999999999
 31
0.0
  0
LINE
  5
184
  8
0
 62
     0
 10
80.138400000000004
 20
44.47079999999999
 30
0.0
 11
73.3887
 21
44.47079999999999
 31
0.0
  0
LINE
  5
185
  8
0
 62
     0
 10
73.3887
 20
44.47079999999999
 30
0.0
 11
73.3887
 21
41.240399999999987
 31
0.0
  0
LINE
  5
186
  8
0
 62
     0
 10
73.3887
 20
41.240399999999987
 30
0.0
 11
71.863299999999995
 21
41.240399999999987
 31
0.0
  0
LINE
  5
187
  8
0
 62
     0
 10
71.863299999999995
 20
41.240399999999987
 30
0.0
 11
71.863299999999995
 21
45.941200000000002
 31
0.0
  0
LINE
  5
188
  8
0
 62
     0
 10
71.863299999999995
 20
45.941200000000002
 30
0.0
 11
57.863700000000001
 21
45.941200000000002
 31
0.0
  0
LINE
  5
189
  8
0
 62
     0
 10
331.70699999999999
 20
45.941200000000002
 30
0.0
 11
345.70699999999999
 21
45.941200000000002
 31
0.0
  0
LINE
  5
18A
  8
0
 62
     0
 10
345.70699999999999
 20
45.941200000000002
 30
0.0
 11
345.70699999999999
 21
31.940200000000001
 31
0.0
  0
LINE
  5
18B
  8
0
 62
     0
 10
345.70699999999999
 20
31.940200000000001
 30
0.0
 11
331.70699999999999
 21
31.940200000000001
 31
0.0
  0
LINE
  5
18C
  8
0
 62
     0
 10
331.70699999999999
 20
31.940200000000001
 30
0.0
 11
331.70699999999999
 21
45.941200000000002
 31
0.0
  0
LINE
  5
18D
  8
0
 62
     0
 10
312.65699999999998
 20
45.941200000000002
 30
0.0
 11
326.65699999999998
 21
45.941200000000002
 31
0.0
  0
LINE
  5
18E
  8
0
 62
     0
 10
326.65699999999998
 20
45.941200000000002
 30
0.0
 11
326.65699999999998
 21
31.940200000000001
 31
0.0
  0
LINE
  5
18F
  8
0
 62
     0
 10
326.65699999999998
 20
31.940200000000001
 30
0.0
 11
312.65699999999998
 21
31.940200000000001
 31
0.0
  0
LINE
  5
190
  8
0
 62
     0
 10
312.65699999999998
 20
31.940200000000001
 30
0.0
 11
312.65699999999998
 21
45.941200000000002
 31
0.0
  0
LINE
  5
191
  8
0
 62
     0
 10
286.464
 20
45.941200000000002
 30
0.0
 11
300.46300000000002
 21
45.941200000000002
 31
0.0
  0
LINE
  5
192
  8
0
 62
     0
 10
300.46300000000002
 20
45.941200000000002
 30
0.0
 11
300.46300000000002
 21
31.940200000000001
 31
0.0
  0
LINE
  5
193
  8
0
 62
     0
 10
300.46300000000002
 20
31.940200000000001
 30
0.0
 11
286.464
 21
31.940200000000001
 31
0.0
  0
LINE
  5
194
  8
0
 62
     0
 10
286.464
 20
31.940200000000001
 30
0.0
 11
286.464
 21
45.941200000000002
 31
0.0
  0
LINE
  5
195
  8
0
 62
     0
 10
260.26999999999998
 20
45.941200000000002
 30
0.0
 11
274.27100000000002
 21
45.941200000000002
 31
0.0
  0
LINE
  5
196
  8
0
 62
     0
 10
274.27100000000002
 20
45.941200000000002
 30
0.0
 11
274.27100000000002
 21
31.940200000000001
 31
0.0
  0
LINE
  5
197
  8
0
 62
     0
 10
274.27100000000002
 20
31.940200000000001
 30
0.0
 11
260.26999999999998
 21
31.940200000000001
 31
0.0
  0
LINE
  5
198
  8
0
 62
     0
 10
260.26999999999998
 20
31.940200000000001
 30
0.0
 11
260.26999999999998
 21
45.941200000000002
 31
0.0
  0
LINE
  5
199
  8
0
 62
     0
 10
241.22
 20
45.941200000000002
 30
0.0
 11
255.221
 21
45.941200000000002
 31
0.0
  0
LINE
  5
19A
  8
0
 62
     0
 10
255.221
 20
45.941200000000002
 30
0.0
 11
255.221
 21
31.940200000000001
 31
0.0
  0
LINE
  5
19B
  8
0
 62
     0
 10
255.221
 20
31.940200000000001
 30
0.0
 11
241.22
 21
31.940200000000001
 31
0.0
  0
LINE
  5
19C
  8
0
 62
     0
 10
241.22
 20
31.940200000000001
 30
0.0
 11
241.22
 21
45.941200000000002
 31
0.0
  0
LINE
  5
19D
  8
0
 62
     0
 10
222.16999999999999
 20
45.941200000000002
 30
0.0
 11
236.17099999999999
 21
45.941200000000002
 31
0.0
  0
LINE
  5
19E
  8
0
 62
     0
 10
236.17099999999999
 20
45.941200000000002
 30
0.0
 11
236.17099999999999
 21
31.940200000000001
 31
0.0
  0
LINE
  5
19F
  8
0
 62
     0
 10
236.17099999999999
 20
31.940200000000001
 30
0.0
 11
222.16999999999999
 21
31.940200000000001
 31
0.0
  0
LINE
  5
1A0
  8
0
 62
     0
 10
222.16999999999999
 20
31.940200000000001
 30
0.0
 11
222.16999999999999
 21
45.941200000000002
 31
0.0
  0
LINE
  5
1A1
  8
0
 62
     0
 10
203.12
 20
45.941200000000002
 30
0.0
 11
217.12100000000001
 21
45.941200000000002
 31
0.0
  0
LINE
  5
1A2
  8
0
 62
     0
 10
217.12100000000001
 20
45.941200000000002
 30
0.0
 11
217.12100000000001
 21
31.940200000000001
 31
0.0
  0
LINE
  5
1A3
  8
0
 62
     0
 10
217.12100000000001
 20
31.940200000000001
 30
0.0
 11
203.12
 21
31.940200000000001
 31
0.0
  0
LINE
  5
1A4
  8
0
 62
     0
 10
203.12
 20
31.940200000000001
 30
0.0
 11
203.12
 21
45.941200000000002
 31
0.0
  0
LINE
  5
1A5
  8
0
 62
     0
 10
184.06999999999999
 20
45.941200000000002
 30
0.0
 11
198.071
 21
45.941200000000002
 31
0.0
  0
LINE
  5
1A6
  8
0
 62
     0
 10
198.071
 20
45.941200000000002
 30
0.0
 11
198.071
 21
31.940200000000001
 31
0.0
  0
LINE
  5
1A7
  8
0
 62
     0
 10
198.071
 20
31.940200000000001
 30
0.0
 11
184.06999999999999
 21
31.940200000000001
 31
0.0
  0
LINE
  5
1A8
  8
0
 62
     0
 10
184.06999999999999
 20
31.940200000000001
 30
0.0
 11
184.06999999999999
 21
45.941200000000002
 31
0.0
  0
LINE
  5
1A9
  8
0
 62
     0
 10
165.02000000000001
 20
45.941200000000002
 30
0.0
 11
179.02099999999999
 21
45.941200000000002
 31
0.0
  0
LINE
  5
1AA
  8
0
 62
     0
 10
179.02099999999999
 20
45.941200000000002
 30
0.0
 11
179.02099999999999
 21
31.940200000000001
 31
0.0
  0
LINE
  5
1AB
  8
0
 62
     0
 10
179.02099999999999
 20
31.940200000000001
 30
0.0
 11
165.02000000000001
 21
31.940200000000001
 31
0.0
  0
LINE
  5
1AC
  8
0
 62
     0
 10
165.02000000000001
 20
31.940200000000001
 30
0.0
 11
165.02000000000001
 21
45.941200000000002
 31
0.0
  0
LINE
  5
1AD
  8
0
 62
     0
 10
145.97
 20
45.941200000000002
 30
0.0
 11
159.971
 21
45.941200000000002
 31
0.0
  0
LINE
  5
1AE
  8
0
 62
     0
 10
159.971
 20
45.941200000000002
 30
0.0
 11
159.971
 21
31.940200000000001
 31
0.0
  0
LINE
  5
1AF
  8
0
 62
     0
 10
159.971
 20
31.940200000000001
 30
0.0
 11
145.97
 21
31.940200000000001
 31
0.0
  0
LINE
  5
1B0
  8
0
 62
     0
 10
145.97
 20
31.940200000000001
 30
0.0
 11
145.97
 21
45.941200000000002
 31
0.0
  0
LINE
  5
1B1
  8
0
 62
     0
 10
126.92
 20
45.941200000000002
 30
0.0
 11
140.92099999999999
 21
45.941200000000002
 31
0.0
  0
LINE
  5
1B2
  8
0
 62
     0
 10
140.92099999999999
 20
45.941200000000002
 30
0.0
 11
140.92099999999999
 21
31.940200000000001
 31
0.0
  0
LINE
  5
1B3
  8
0
 62
     0
 10
140.92099999999999
 20
31.940200000000001
 30
0.0
 11
126.92
 21
31.940200000000001
 31
0.0
  0
LINE
  5
1B4
  8
0
 62
     0
 10
126.92
 20
31.940200000000001
 30
0.0
 11
126.92
 21
45.941200000000002
 31
0.0
  0
LINE
  5
1B5
  8
0
 62
     0
 10
107.87
 20
45.941200000000002
 30
0.0
 11
121.871
 21
45.941200000000002
 31
0.0
  0
LINE
  5
1B6
  8
0
 62
     0
 10
121.871
 20
45.941200000000002
 30
0.0
 11
121.871
 21
31.940200000000001
 31
0.0
  0
LINE
  5
1B7
  8
0
 62
     0
 10
121.871
 20
31.940200000000001
 30
0.0
 11
107.87
 21
31.940200000000001
 31
0.0
  0
LINE
  5
1B8
  8
0
 62
     0
 10
107.87
 20
31.940200000000001
 30
0.0
 11
107.87
 21
45.941200000000002
 31
0.0
  0
LINE
  5
1B9
  8
0
 62
     0
 10
88.819900000000004
 20
45.941200000000002
 30
0.0
 11
102.821
 21
45.941200000000002
 31
0.0
  0
LINE
  5
1BA
  8
0
 62
     0
 10
102.821
 20
45.941200000000002
 30
0.0
 11
102.821
 21
31.940200000000001
 31
0.0
  0
LINE
  5
1BB
  8
0
 62
     0
 10
102.821
 20
31.940200000000001
 30
0.0
 11
88.819900000000004
 21
31.940200000000001
 31
0.0
  0
LINE
  5
1BC
  8
0
 62
     0
 10
88.819900000000004
 20
31.940200000000001
 30
0.0
 11
88.819900000000004
 21
45.941200000000002
 31
0.0
  0
LINE
  5
1BD
  8
0
 62
     0
 10
12.620100000000001
 20
45.941200000000002
 30
0.0
 11
26.620899999999999
 21
45.941200000000002
 31
0.0
  0
LINE
  5
1BE
  8
0
 62
     0
 10
26.620899999999999
 20
45.941200000000002
 30
0.0
 11
26.620899999999999
 21
31.940200000000001
 31
0.0
  0
LINE
  5
1BF
  8
0
 62
     0
 10
26.620899999999999
 20
31.940200000000001
 30
0.0
 11
12.620100000000001
 21
31.940200000000001
 31
0.0
  0
LINE
  5
1C0
  8
0
 62
     0
 10
12.620100000000001
 20
31.940200000000001
 30
0.0
 11
12.620100000000001
 21
45.941200000000002
 31
0.0
  0
LINE
  5
1C1
  8
0
 62
     0
 10
300.75099999999998
 20
64.991200000000006
 30
0.0
 11
300.75099999999998
 21
60.290399999999998
 31
0.0
  0
LINE
  5
1C2
  8
0
 62
     0
 10
300.75099999999998
 20
60.290399999999998
 30
0.0
 11
299.226
 21
60.290399999999998
 31
0.0
  0
LINE
  5
1C3
  8
0
 62
     0
 10
299.226
 20
60.290399999999998
 30
0.0
 11
299.226
 21
63.520800000000001
 31
0.0
  0
LINE
  5
1C4
  8
0
 62
     0
 10
299.226
 20
63.520800000000001
 30
0.0
 11
292.476
 21
63.520800000000001
 31
0.0
  0
LINE
  5
1C5
  8
0
 62
     0
 10
292.476
 20
63.520800000000001
 30
0.0
 11
292.476
 21
60.290399999999998
 31
0.0
  0
LINE
  5
1C6
  8
0
 62
     0
 10
292.476
 20
60.290399999999998
 30
0.0
 11
291.65199999999999
 21
60.290399999999998
 31
0.0
  0
LINE
  5
1C7
  8
0
 62
     0
 10
291.65199999999999
 20
60.290399999999998
 30
0.0
 11
291.65199999999999
 21
57.490400000000001
 31
0.0
  0
LINE
  5
1C8
  8
0
 62
     0
 10
291.65199999999999
 20
57.490400000000001
 30
0.0
 11
292.476
 21
57.490400000000001
 31
0.0
  0
LINE
  5
1C9
  8
0
 62
     0
 10
292.476
 20
57.490400000000001
 30
0.0
 11
292.476
 21
51.220199999999998
 31
0.0
  0
LINE
  5
1CA
  8
0
 62
     0
 10
292.476
 20
51.220199999999998
 30
0.0
 11
294.20100000000002
 21
51.220199999999998
 31
0.0
  0
LINE
  5
1CB
  8
0
 62
     0
 10
294.20100000000002
 20
51.220199999999998
 30
0.0
 11
294.20100000000002
 21
50.020000000000003
 31
0.0
  0
LINE
  5
1CC
  8
0
 62
     0
 10
294.20100000000002
 20
50.020000000000003
 30
0.0
 11
297.50200000000001
 21
50.020000000000003
 31
0.0
  0
LINE
  5
1CD
  8
0
 62
     0
 10
297.50200000000001
 20
50.020000000000003
 30
0.0
 11
297.50200000000001
 21
51.220199999999998
 31
0.0
  0
LINE
  5
1CE
  8
0
 62
     0
 10
297.50200000000001
 20
51.220199999999998
 30
0.0
 11
299.226
 21
51.220199999999998
 31
0.0
  0
LINE
  5
1CF
  8
0
 62
     0
 10
299.226
 20
51.220199999999998
 30
0.0
 11
299.226
 21
55.690600000000003
 31
0.0
  0
LINE
  5
1D0
  8
0
 62
     0
 10
299.226
 20
55.690600000000003
 30
0.0
 11
300.75099999999998
 21
55.690600000000003
 31
0.0
  0
LINE
  5
1D1
  8
0
 62
     0
 10
300.75099999999998
 20
55.690600000000003
 30
0.0
 11
300.75099999999998
 21
50.990099999999991
 31
0.0
  0
LINE
  5
1D2
  8
0
 62
     0
 10
300.75099999999998
 20
50.990099999999991
 30
0.0
 11
314.75099999999998
 21
50.990099999999991
 31
0.0
  0
LINE
  5
1D3
  8
0
 62
     0
 10
314.75099999999998
 20
50.990099999999991
 30
0.0
 11
314.75099999999998
 21
55.690600000000003
 31
0.0
  0
LINE
  5
1D4
  8
0
 62
     0
 10
314.75099999999998
 20
55.690600000000003
 30
0.0
 11
316.27600000000001
 21
55.690600000000003
 31
0.0
  0
LINE
  5
1D5
  8
0
 62
     0
 10
316.27600000000001
 20
55.690600000000003
 30
0.0
 11
316.27600000000001
 21
51.220199999999998
 31
0.0
  0
LINE
  5
1D6
  8
0
 62
     0
 10
316.27600000000001
 20
51.220199999999998
 30
0.0
 11
318.00200000000001
 21
51.220199999999998
 31
0.0
  0
LINE
  5
1D7
  8
0
 62
     0
 10
318.00200000000001
 20
51.220199999999998
 30
0.0
 11
318.00200000000001
 21
50.020000000000003
 31
0.0
  0
LINE
  5
1D8
  8
0
 62
     0
 10
318.00200000000001
 20
50.020000000000003
 30
0.0
 11
321.30200000000002
 21
50.020000000000003
 31
0.0
  0
LINE
  5
1D9
  8
0
 62
     0
 10
321.30200000000002
 20
50.020000000000003
 30
0.0
 11
321.30200000000002
 21
51.220199999999998
 31
0.0
  0
LINE
  5
1DA
  8
0
 62
     0
 10
321.30200000000002
 20
51.220199999999998
 30
0.0
 11
323.02600000000001
 21
51.220199999999998
 31
0.0
  0
LINE
  5
1DB
  8
0
 62
     0
 10
323.02600000000001
 20
51.220199999999998
 30
0.0
 11
323.02600000000001
 21
57.490400000000001
 31
0.0
  0
LINE
  5
1DC
  8
0
 62
     0
 10
323.02600000000001
 20
57.490400000000001
 30
0.0
 11
323.851
 21
57.490400000000001
 31
0.0
  0
LINE
  5
1DD
  8
0
 62
     0
 10
323.851
 20
57.490400000000001
 30
0.0
 11
323.851
 21
60.290399999999998
 31
0.0
  0
LINE
  5
1DE
  8
0
 62
     0
 10
323.851
 20
60.290399999999998
 30
0.0
 11
323.02600000000001
 21
60.290399999999998
 31
0.0
  0
LINE
  5
1DF
  8
0
 62
     0
 10
323.02600000000001
 20
60.290399999999998
 30
0.0
 11
323.02600000000001
 21
63.520800000000001
 31
0.0
  0
LINE
  5
1E0
  8
0
 62
     0
 10
323.02600000000001
 20
63.520800000000001
 30
0.0
 11
316.27600000000001
 21
63.520800000000001
 31
0.0
  0
LINE
  5
1E1
  8
0
 62
     0
 10
316.27600000000001
 20
63.520800000000001
 30
0.0
 11
316.27600000000001
 21
60.290399999999998
 31
0.0
  0
LINE
  5
1E2
  8
0
 62
     0
 10
316.27600000000001
 20
60.290399999999998
 30
0.0
 11
314.75099999999998
 21
60.290399999999998
 31
0.0
  0
LINE
  5
1E3
  8
0
 62
     0
 10
314.75099999999998
 20
60.290399999999998
 30
0.0
 11
314.75099999999998
 21
64.991200000000006
 31
0.0
  0
LINE
  5
1E4
  8
0
 62
     0
 10
314.75099999999998
 20
64.991200000000006
 30
0.0
 11
300.75099999999998
 21
64.991200000000006
 31
0.0
  0
LINE
  5
1E5
  8
0
 62
     0
 10
331.70699999999999
 20
64.991200000000006
 30
0.0
 11
345.70699999999999
 21
64.991200000000006
 31
0.0
  0
LINE
  5
1E6
  8
0
 62
     0
 10
345.70699999999999
 20
64.991200000000006
 30
0.0
 11
345.70699999999999
 21
50.990099999999991
 31
0.0
  0
LINE
  5
1E7
  8
0
 62
     0
 10
345.70699999999999
 20
50.990099999999991
 30
0.0
 11
331.70699999999999
 21
50.990099999999991
 31
0.0
  0
LINE
  5
1E8
  8
0
 62
     0
 10
331.70699999999999
 20
50.990099999999991
 30
0.0
 11
331.70699999999999
 21
64.991200000000006
 31
0.0
  0
LINE
  5
1E9
  8
0
 62
     0
 10
269.79500000000002
 20
64.991200000000006
 30
0.0
 11
283.79599999999999
 21
64.991200000000006
 31
0.0
  0
LINE
  5
1EA
  8
0
 62
     0
 10
283.79599999999999
 20
64.991200000000006
 30
0.0
 11
283.79599999999999
 21
50.990099999999991
 31
0.0
  0
LINE
  5
1EB
  8
0
 62
     0
 10
283.79599999999999
 20
50.990099999999991
 30
0.0
 11
269.79500000000002
 21
50.990099999999991
 31
0.0
  0
LINE
  5
1EC
  8
0
 62
     0
 10
269.79500000000002
 20
50.990099999999991
 30
0.0
 11
269.79500000000002
 21
64.991200000000006
 31
0.0
  0
LINE
  5
1ED
  8
0
 62
     0
 10
250.745
 20
64.991200000000006
 30
0.0
 11
264.74599999999998
 21
64.991200000000006
 31
0.0
  0
LINE
  5
1EE
  8
0
 62
     0
 10
264.74599999999998
 20
64.991200000000006
 30
0.0
 11
264.74599999999998
 21
50.990099999999991
 31
0.0
  0
LINE
  5
1EF
  8
0
 62
     0
 10
264.74599999999998
 20
50.990099999999991
 30
0.0
 11
250.745
 21
50.990099999999991
 31
0.0
  0
LINE
  5
1F0
  8
0
 62
     0
 10
250.745
 20
50.990099999999991
 30
0.0
 11
250.745
 21
64.991200000000006
 31
0.0
  0
LINE
  5
1F1
  8
0
 62
     0
 10
231.69499999999999
 20
64.991200000000006
 30
0.0
 11
245.696
 21
64.991200000000006
 31
0.0
  0
LINE
  5
1F2
  8
0
 62
     0
 10
245.696
 20
64.991200000000006
 30
0.0
 11
245.696
 21
50.990099999999991
 31
0.0
  0
LINE
  5
1F3
  8
0
 62
     0
 10
245.696
 20
50.990099999999991
 30
0.0
 11
231.69499999999999
 21
50.990099999999991
 31
0.0
  0
LINE
  5
1F4
  8
0
 62
     0
 10
231.69499999999999
 20
50.990099999999991
 30
0.0
 11
231.69499999999999
 21
64.991200000000006
 31
0.0
  0
LINE
  5
1F5
  8
0
 62
     0
 10
212.64500000000001
 20
64.991200000000006
 30
0.0
 11
226.64599999999999
 21
64.991200000000006
 31
0.0
  0
LINE
  5
1F6
  8
0
 62
     0
 10
226.64599999999999
 20
64.991200000000006
 30
0.0
 11
226.64599999999999
 21
50.990099999999991
 31
0.0
  0
LINE
  5
1F7
  8
0
 62
     0
 10
226.64599999999999
 20
50.990099999999991
 30
0.0
 11
212.64500000000001
 21
50.990099999999991
 31
0.0
  0
LINE
  5
1F8
  8
0
 62
     0
 10
212.64500000000001
 20
50.990099999999991
 30
0.0
 11
212.64500000000001
 21
64.991200000000006
 31
0.0
  0
LINE
  5
1F9
  8
0
 62
     0
 10
193.595
 20
64.991200000000006
 30
0.0
 11
207.596
 21
64.991200000000006
 31
0.0
  0
LINE
  5
1FA
  8
0
 62
     0
 10
207.596
 20
64.991200000000006
 30
0.0
 11
207.596
 21
50.990099999999991
 31
0.0
  0
LINE
  5
1FB
  8
0
 62
     0
 10
207.596
 20
50.990099999999991
 30
0.0
 11
193.595
 21
50.990099999999991
 31
0.0
  0
LINE
  5
1FC
  8
0
 62
     0
 10
193.595
 20
50.990099999999991
 30
0.0
 11
193.595
 21
64.991200000000006
 31
0.0
  0
LINE
  5
1FD
  8
0
 62
     0
 10
174.54499999999999
 20
64.991200000000006
 30
0.0
 11
188.54599999999999
 21
64.991200000000006
 31
0.0
  0
LINE
  5
1FE
  8
0
 62
     0
 10
188.54599999999999
 20
64.991200000000006
 30
0.0
 11
188.54599999999999
 21
50.990099999999991
 31
0.0
  0
LINE
  5
1FF
  8
0
 62
     0
 10
188.54599999999999
 20
50.990099999999991
 30
0.0
 11
174.54499999999999
 21
50.990099999999991
 31
0.0
  0
LINE
  5
200
  8
0
 62
     0
 10
174.54499999999999
 20
50.990099999999991
 30
0.0
 11
174.54499999999999
 21
64.991200000000006
 31
0.0
  0
LINE
  5
201
  8
0
 62
     0
 10
155.495
 20
64.991200000000006
 30
0.0
 11
169.49600000000001
 21
64.991200000000006
 31
0.0
  0
LINE
  5
202
  8
0
 62
     0
 10
169.49600000000001
 20
64.991200000000006
 30
0.0
 11
169.49600000000001
 21
50.990099999999991
 31
0.0
  0
LINE
  5
203
  8
0
 62
     0
 10
169.49600000000001
 20
50.990099999999991
 30
0.0
 11
155.495
 21
50.990099999999991
 31
0.0
  0
LINE
  5
204
  8
0
 62
     0
 10
155.495
 20
50.990099999999991
 30
0.0
 11
155.495
 21
64.991200000000006
 31
0.0
  0
LINE
  5
205
  8
0
 62
     0
 10
136.44499999999999
 20
64.991200000000006
 30
0.0
 11
150.446
 21
64.991200000000006
 31
0.0
  0
LINE
  5
206
  8
0
 62
     0
 10
150.446
 20
64.991200000000006
 30
0.0
 11
150.446
 21
50.990099999999991
 31
0.0
  0
LINE
  5
207
  8
0
 62
     0
 10
150.446
 20
50.990099999999991
 30
0.0
 11
136.44499999999999
 21
50.990099999999991
 31
0.0
  0
LINE
  5
208
  8
0
 62
     0
 10
136.44499999999999
 20
50.990099999999991
 30
0.0
 11
136.44499999999999
 21
64.991200000000006
 31
0.0
  0
LINE
  5
209
  8
0
 62
     0
 10
117.395
 20
64.991200000000006
 30
0.0
 11
131.39500000000001
 21
64.991200000000006
 31
0.0
  0
LINE
  5
20A
  8
0
 62
     0
 10
131.39500000000001
 20
64.991200000000006
 30
0.0
 11
131.39500000000001
 21
50.990099999999991
 31
0.0
  0
LINE
  5
20B
  8
0
 62
     0
 10
131.39500000000001
 20
50.990099999999991
 30
0.0
 11
117.395
 21
50.990099999999991
 31
0.0
  0
LINE
  5
20C
  8
0
 62
     0
 10
117.395
 20
50.990099999999991
 30
0.0
 11
117.395
 21
64.991200000000006
 31
0.0
  0
LINE
  5
20D
  8
0
 62
     0
 10
98.344899999999996
 20
64.991200000000006
 30
0.0
 11
112.345
 21
64.991200000000006
 31
0.0
  0
LINE
  5
20E
  8
0
 62
     0
 10
112.345
 20
64.991200000000006
 30
0.0
 11
112.345
 21
50.990099999999991
 31
0.0
  0
LINE
  5
20F
  8
0
 62
     0
 10
112.345
 20
50.990099999999991
 30
0.0
 11
98.344899999999996
 21
50.990099999999991
 31
0.0
  0
LINE
  5
210
  8
0
 62
     0
 10
98.344899999999996
 20
50.990099999999991
 30
0.0
 11
98.344899999999996
 21
64.991200000000006
 31
0.0
  0
LINE
  5
211
  8
0
 62
     0
 10
79.294899999999998
 20
64.991200000000006
 30
0.0
 11
93.294600000000003
 21
64.991200000000006
 31
0.0
  0
LINE
  5
212
  8
0
 62
     0
 10
93.294600000000003
 20
64.991200000000006
 30
0.0
 11
93.294600000000003
 21
50.990099999999991
 31
0.0
  0
LINE
  5
213
  8
0
 62
     0
 10
93.294600000000003
 20
50.990099999999991
 30
0.0
 11
79.294899999999998
 21
50.990099999999991
 31
0.0
  0
LINE
  5
214
  8
0
 62
     0
 10
79.294899999999998
 20
50.990099999999991
 30
0.0
 11
79.294899999999998
 21
64.991200000000006
 31
0.0
  0
LINE
  5
215
  8
0
 62
     0
 10
53.101199999999999
 20
64.991200000000006
 30
0.0
 11
67.100800000000007
 21
64.991200000000006
 31
0.0
  0
LINE
  5
216
  8
0
 62
     0
 10
67.100800000000007
 20
64.991200000000006
 30
0.0
 11
67.100800000000007
 21
50.990099999999991
 31
0.0
  0
LINE
  5
217
  8
0
 62
     0
 10
67.100800000000007
 20
50.990099999999991
 30
0.0
 11
53.101199999999999
 21
50.990099999999991
 31
0.0
  0
LINE
  5
218
  8
0
 62
     0
 10
53.101199999999999
 20
50.990099999999991
 30
0.0
 11
53.101199999999999
 21
64.991200000000006
 31
0.0
  0
LINE
  5
219
  8
0
 62
     0
 10
12.620100000000001
 20
64.991200000000006
 30
0.0
 11
26.620899999999999
 21
64.991200000000006
 31
0.0
  0
LINE
  5
21A
  8
0
 62
     0
 10
26.620899999999999
 20
64.991200000000006
 30
0.0
 11
26.620899999999999
 21
50.990099999999991
 31
0.0
  0
LINE
  5
21B
  8
0
 62
     0
 10
26.620899999999999
 20
50.990099999999991
 30
0.0
 11
12.620100000000001
 21
50.990099999999991
 31
0.0
  0
LINE
  5
21C
  8
0
 62
     0
 10
12.620100000000001
 20
50.990099999999991
 30
0.0
 11
12.620100000000001
 21
64.991200000000006
 31
0.0
  0
LINE
  5
21D
  8
0
 62
     0
 10
331.70699999999999
 20
84.041200000000003
 30
0.0
 11
345.70699999999999
 21
84.041200000000003
 31
0.0
  0
LINE
  5
21E
  8
0
 62
     0
 10
345.70699999999999
 20
84.041200000000003
 30
0.0
 11
345.70699999999999
 21
70.040099999999995
 31
0.0
  0
LINE
  5
21F
  8
0
 62
     0
 10
345.70699999999999
 20
70.040099999999995
 30
0.0
 11
331.70699999999999
 21
70.040099999999995
 31
0.0
  0
LINE
  5
220
  8
0
 62
     0
 10
331.70699999999999
 20
70.040099999999995
 30
0.0
 11
331.70699999999999
 21
84.041200000000003
 31
0.0
  0
LINE
  5
221
  8
0
 62
     0
 10
307.89499999999998
 20
84.041200000000003
 30
0.0
 11
321.89600000000002
 21
84.041200000000003
 31
0.0
  0
LINE
  5
222
  8
0
 62
     0
 10
321.89600000000002
 20
84.041200000000003
 30
0.0
 11
321.89600000000002
 21
70.040099999999995
 31
0.0
  0
LINE
  5
223
  8
0
 62
     0
 10
321.89600000000002
 20
70.040099999999995
 30
0.0
 11
307.89499999999998
 21
70.040099999999995
 31
0.0
  0
LINE
  5
224
  8
0
 62
     0
 10
307.89499999999998
 20
70.040099999999995
 30
0.0
 11
307.89499999999998
 21
84.041200000000003
 31
0.0
  0
LINE
  5
225
  8
0
 62
     0
 10
284.08199999999999
 20
84.041200000000003
 30
0.0
 11
298.08199999999999
 21
84.041200000000003
 31
0.0
  0
LINE
  5
226
  8
0
 62
     0
 10
298.08199999999999
 20
84.041200000000003
 30
0.0
 11
298.08199999999999
 21
70.040099999999995
 31
0.0
  0
LINE
  5
227
  8
0
 62
     0
 10
298.08199999999999
 20
70.040099999999995
 30
0.0
 11
284.08199999999999
 21
70.040099999999995
 31
0.0
  0
LINE
  5
228
  8
0
 62
     0
 10
284.08199999999999
 20
70.040099999999995
 30
0.0
 11
284.08199999999999
 21
84.041200000000003
 31
0.0
  0
LINE
  5
229
  8
0
 62
     0
 10
265.03199999999998
 20
84.041200000000003
 30
0.0
 11
279.03199999999998
 21
84.041200000000003
 31
0.0
  0
LINE
  5
22A
  8
0
 62
     0
 10
279.03199999999998
 20
84.041200000000003
 30
0.0
 11
279.03199999999998
 21
70.040099999999995
 31
0.0
  0
LINE
  5
22B
  8
0
 62
     0
 10
279.03199999999998
 20
70.040099999999995
 30
0.0
 11
265.03199999999998
 21
70.040099999999995
 31
0.0
  0
LINE
  5
22C
  8
0
 62
     0
 10
265.03199999999998
 20
70.040099999999995
 30
0.0
 11
265.03199999999998
 21
84.041200000000003
 31
0.0
  0
LINE
  5
22D
  8
0
 62
     0
 10
245.982
 20
84.041200000000003
 30
0.0
 11
259.98200000000003
 21
84.041200000000003
 31
0.0
  0
LINE
  5
22E
  8
0
 62
     0
 10
259.98200000000003
 20
84.041200000000003
 30
0.0
 11
259.98200000000003
 21
70.040099999999995
 31
0.0
  0
LINE
  5
22F
  8
0
 62
     0
 10
259.98200000000003
 20
70.040099999999995
 30
0.0
 11
245.982
 21
70.040099999999995
 31
0.0
  0
LINE
  5
230
  8
0
 62
     0
 10
245.982
 20
70.040099999999995
 30
0.0
 11
245.982
 21
84.041200000000003
 31
0.0
  0
LINE
  5
231
  8
0
 62
     0
 10
226.93199999999999
 20
84.041200000000003
 30
0.0
 11
240.93199999999999
 21
84.041200000000003
 31
0.0
  0
LINE
  5
232
  8
0
 62
     0
 10
240.93199999999999
 20
84.041200000000003
 30
0.0
 11
240.93199999999999
 21
70.040099999999995
 31
0.0
  0
LINE
  5
233
  8
0
 62
     0
 10
240.93199999999999
 20
70.040099999999995
 30
0.0
 11
226.93199999999999
 21
70.040099999999995
 31
0.0
  0
LINE
  5
234
  8
0
 62
     0
 10
226.93199999999999
 20
70.040099999999995
 30
0.0
 11
226.93199999999999
 21
84.041200000000003
 31
0.0
  0
LINE
  5
235
  8
0
 62
     0
 10
207.88200000000001
 20
84.041200000000003
 30
0.0
 11
221.88200000000001
 21
84.041200000000003
 31
0.0
  0
LINE
  5
236
  8
0
 62
     0
 10
221.88200000000001
 20
84.041200000000003
 30
0.0
 11
221.88200000000001
 21
70.040099999999995
 31
0.0
  0
LINE
  5
237
  8
0
 62
     0
 10
221.88200000000001
 20
70.040099999999995
 30
0.0
 11
207.88200000000001
 21
70.040099999999995
 31
0.0
  0
LINE
  5
238
  8
0
 62
     0
 10
207.88200000000001
 20
70.040099999999995
 30
0.0
 11
207.88200000000001
 21
84.041200000000003
 31
0.0
  0
LINE
  5
239
  8
0
 62
     0
 10
188.83199999999999
 20
84.041200000000003
 30
0.0
 11
202.83199999999999
 21
84.041200000000003
 31
0.0
  0
LINE
  5
23A
  8
0
 62
     0
 10
202.83199999999999
 20
84.041200000000003
 30
0.0
 11
202.83199999999999
 21
70.040099999999995
 31
0.0
  0
LINE
  5
23B
  8
0
 62
     0
 10
202.83199999999999
 20
70.040099999999995
 30
0.0
 11
188.83199999999999
 21
70.040099999999995
 31
0.0
  0
LINE
  5
23C
  8
0
 62
     0
 10
188.83199999999999
 20
70.040099999999995
 30
0.0
 11
188.83199999999999
 21
84.041200000000003
 31
0.0
  0
LINE
  5
23D
  8
0
 62
     0
 10
169.78200000000001
 20
84.041200000000003
 30
0.0
 11
183.78200000000001
 21
84.041200000000003
 31
0.0
  0
LINE
  5
23E
  8
0
 62
     0
 10
183.78200000000001
 20
84.041200000000003
 30
0.0
 11
183.78200000000001
 21
70.040099999999995
 31
0.0
  0
LINE
  5
23F
  8
0
 62
     0
 10
183.78200000000001
 20
70.040099999999995
 30
0.0
 11
169.78200000000001
 21
70.040099999999995
 31
0.0
  0
LINE
  5
240
  8
0
 62
     0
 10
169.78200000000001
 20
70.040099999999995
 30
0.0
 11
169.78200000000001
 21
84.041200000000003
 31
0.0
  0
LINE
  5
241
  8
0
 62
     0
 10
150.732
 20
84.041200000000003
 30
0.0
 11
164.732
 21
84.041200000000003
 31
0.0
  0
LINE
  5
242
  8
0
 62
     0
 10
164.732
 20
84.041200000000003
 30
0.0
 11
164.732
 21
70.040099999999995
 31
0.0
  0
LINE
  5
243
  8
0
 62
     0
 10
164.732
 20
70.040099999999995
 30
0.0
 11
150.732
 21
70.040099999999995
 31
0.0
  0
LINE
  5
244
  8
0
 62
     0
 10
150.732
 20
70.040099999999995
 30
0.0
 11
150.732
 21
84.041200000000003
 31
0.0
  0
LINE
  5
245
  8
0
 62
     0
 10
131.68199999999999
 20
84.041200000000003
 30
0.0
 11
145.68199999999999
 21
84.041200000000003
 31
0.0
  0
LINE
  5
246
  8
0
 62
     0
 10
145.68199999999999
 20
84.041200000000003
 30
0.0
 11
145.68199999999999
 21
70.040099999999995
 31
0.0
  0
LINE
  5
247
  8
0
 62
     0
 10
145.68199999999999
 20
70.040099999999995
 30
0.0
 11
131.68199999999999
 21
70.040099999999995
 31
0.0
  0
LINE
  5
248
  8
0
 62
     0
 10
131.68199999999999
 20
70.040099999999995
 30
0.0
 11
131.68199999999999
 21
84.041200000000003
 31
0.0
  0
LINE
  5
249
  8
0
 62
     0
 10
112.63200000000001
 20
84.041200000000003
 30
0.0
 11
126.63200000000001
 21
84.041200000000003
 31
0.0
  0
LINE
  5
24A
  8
0
 62
     0
 10
126.63200000000001
 20
84.041200000000003
 30
0.0
 11
126.63200000000001
 21
70.040099999999995
 31
0.0
  0
LINE
  5
24B
  8
0
 62
     0
 10
126.63200000000001
 20
70.040099999999995
 30
0.0
 11
112.63200000000001
 21
70.040099999999995
 31
0.0
  0
LINE
  5
24C
  8
0
 62
     0
 10
112.63200000000001
 20
70.040099999999995
 30
0.0
 11
112.63200000000001
 21
84.041200000000003
 31
0.0
  0
LINE
  5
24D
  8
0
 62
     0
 10
93.582400000000007
 20
84.041200000000003
 30
0.0
 11
107.58199999999999
 21
84.041200000000003
 31
0.0
  0
LINE
  5
24E
  8
0
 62
     0
 10
107.58199999999999
 20
84.041200000000003
 30
0.0
 11
107.58199999999999
 21
70.040099999999995
 31
0.0
  0
LINE
  5
24F
  8
0
 62
     0
 10
107.58199999999999
 20
70.040099999999995
 30
0.0
 11
93.582400000000007
 21
70.040099999999995
 31
0.0
  0
LINE
  5
250
  8
0
 62
     0
 10
93.582400000000007
 20
70.040099999999995
 30
0.0
 11
93.582400000000007
 21
84.041200000000003
 31
0.0
  0
LINE
  5
251
  8
0
 62
     0
 10
74.532399999999996
 20
84.041200000000003
 30
0.0
 11
88.5321
 21
84.041200000000003
 31
0.0
  0
LINE
  5
252
  8
0
 62
     0
 10
88.5321
 20
84.041200000000003
 30
0.0
 11
88.5321
 21
70.040099999999995
 31
0.0
  0
LINE
  5
253
  8
0
 62
     0
 10
88.5321
 20
70.040099999999995
 30
0.0
 11
74.532399999999996
 21
70.040099999999995
 31
0.0
  0
LINE
  5
254
  8
0
 62
     0
 10
74.532399999999996
 20
70.040099999999995
 30
0.0
 11
74.532399999999996
 21
84.041200000000003
 31
0.0
  0
LINE
  5
255
  8
0
 62
     0
 10
50.719900000000003
 20
84.041200000000003
 30
0.0
 11
64.721000000000004
 21
84.041200000000003
 31
0.0
  0
LINE
  5
256
  8
0
 62
     0
 10
64.721000000000004
 20
84.041200000000003
 30
0.0
 11
64.721000000000004
 21
70.040099999999995
 31
0.0
  0
LINE
  5
257
  8
0
 62
     0
 10
64.721000000000004
 20
70.040099999999995
 30
0.0
 11
50.719900000000003
 21
70.040099999999995
 31
0.0
  0
LINE
  5
258
  8
0
 62
     0
 10
50.719900000000003
 20
70.040099999999995
 30
0.0
 11
50.719900000000003
 21
84.041200000000003
 31
0.0
  0
LINE
  5
259
  8
0
 62
     0
 10
12.620100000000001
 20
84.041200000000003
 30
0.0
 11
26.620899999999999
 21
84.041200000000003
 31
0.0
  0
LINE
  5
25A
  8
0
 62
     0
 10
26.620899999999999
 20
84.041200000000003
 30
0.0
 11
26.620899999999999
 21
70.040099999999995
 31
0.0
  0
LINE
  5
25B
  8
0
 62
     0
 10
26.620899999999999
 20
70.040099999999995
 30
0.0
 11
12.620100000000001
 21
70.040099999999995
 31
0.0
  0
LINE
  5
25C
  8
0
 62
     0
 10
12.620100000000001
 20
70.040099999999995
 30
0.0
 11
12.620100000000001
 21
84.041200000000003
 31
0.0
  0
LINE
  5
25D
  8
0
 62
     0
 10
303.13200000000001
 20
103.09099999999999
 30
0.0
 11
303.13200000000001
 21
98.391800000000003
 31
0.0
  0
LINE
  5
25E
  8
0
 62
     0
 10
303.13200000000001
 20
98.391800000000003
 30
0.0
 11
301.60700000000003
 21
98.391800000000003
 31
0.0
  0
LINE
  5
25F
  8
0
 62
     0
 10
301.60700000000003
 20
98.391800000000003
 30
0.0
 11
301.60700000000003
 21
101.622
 31
0.0
  0
LINE
  5
260
  8
0
 62
     0
 10
301.60700000000003
 20
101.622
 30
0.0
 11
294.85700000000003
 21
101.622
 31
0.0
  0
LINE
  5
261
  8
0
 62
     0
 10
294.85700000000003
 20
101.622
 30
0.0
 11
294.85700000000003
 21
98.391800000000003
 31
0.0
  0
LINE
  5
262
  8
0
 62
     0
 10
294.85700000000003
 20
98.391800000000003
 30
0.0
 11
294.03199999999998
 21
98.391800000000003
 31
0.0
  0
LINE
  5
263
  8
0
 62
     0
 10
294.03199999999998
 20
98.391800000000003
 30
0.0
 11
294.03199999999998
 21
95.590400000000017
 31
0.0
  0
LINE
  5
264
  8
0
 62
     0
 10
294.03199999999998
 20
95.590400000000017
 30
0.0
 11
294.85700000000003
 21
95.590400000000017
 31
0.0
  0
LINE
  5
265
  8
0
 62
     0
 10
294.85700000000003
 20
95.590400000000017
 30
0.0
 11
294.85700000000003
 21
89.321600000000004
 31
0.0
  0
LINE
  5
266
  8
0
 62
     0
 10
294.85700000000003
 20
89.321600000000004
 30
0.0
 11
296.58300000000003
 21
89.321600000000004
 31
0.0
  0
LINE
  5
267
  8
0
 62
     0
 10
296.58300000000003
 20
89.321600000000004
 30
0.0
 11
296.58300000000003
 21
88.121399999999994
 31
0.0
  0
LINE
  5
268
  8
0
 62
     0
 10
296.58300000000003
 20
88.121399999999994
 30
0.0
 11
299.88299999999998
 21
88.121399999999994
 31
0.0
  0
LINE
  5
269
  8
0
 62
     0
 10
299.88299999999998
 20
88.121399999999994
 30
0.0
 11
299.88299999999998
 21
89.321600000000004
 31
0.0
  0
LINE
  5
26A
  8
0
 62
     0
 10
299.88299999999998
 20
89.321600000000004
 30
0.0
 11
301.60700000000003
 21
89.321600000000004
 31
0.0
  0
LINE
  5
26B
  8
0
 62
     0
 10
301.60700000000003
 20
89.321600000000004
 30
0.0
 11
301.60700000000003
 21
93.790599999999998
 31
0.0
  0
LINE
  5
26C
  8
0
 62
     0
 10
301.60700000000003
 20
93.790599999999998
 30
0.0
 11
303.13200000000001
 21
93.790599999999998
 31
0.0
  0
LINE
  5
26D
  8
0
 62
     0
 10
303.13200000000001
 20
93.790599999999998
 30
0.0
 11
303.13200000000001
 21
89.090100000000007
 31
0.0
  0
LINE
  5
26E
  8
0
 62
     0
 10
303.13200000000001
 20
89.090100000000007
 30
0.0
 11
317.13200000000001
 21
89.090100000000007
 31
0.0
  0
LINE
  5
26F
  8
0
 62
     0
 10
317.13200000000001
 20
89.090100000000007
 30
0.0
 11
317.13200000000001
 21
93.790599999999998
 31
0.0
  0
LINE
  5
270
  8
0
 62
     0
 10
317.13200000000001
 20
93.790599999999998
 30
0.0
 11
318.65699999999998
 21
93.790599999999998
 31
0.0
  0
LINE
  5
271
  8
0
 62
     0
 10
318.65699999999998
 20
93.790599999999998
 30
0.0
 11
318.65699999999998
 21
89.321600000000004
 31
0.0
  0
LINE
  5
272
  8
0
 62
     0
 10
318.65699999999998
 20
89.321600000000004
 30
0.0
 11
320.38299999999998
 21
89.321600000000004
 31
0.0
  0
LINE
  5
273
  8
0
 62
     0
 10
320.38299999999998
 20
89.321600000000004
 30
0.0
 11
320.38299999999998
 21
88.121399999999994
 31
0.0
  0
LINE
  5
274
  8
0
 62
     0
 10
320.38299999999998
 20
88.121399999999994
 30
0.0
 11
323.68200000000002
 21
88.121399999999994
 31
0.0
  0
LINE
  5
275
  8
0
 62
     0
 10
323.68200000000002
 20
88.121399999999994
 30
0.0
 11
323.68200000000002
 21
89.321600000000004
 31
0.0
  0
LINE
  5
276
  8
0
 62
     0
 10
323.68200000000002
 20
89.321600000000004
 30
0.0
 11
325.40699999999998
 21
89.321600000000004
 31
0.0
  0
LINE
  5
277
  8
0
 62
     0
 10
325.40699999999998
 20
89.321600000000004
 30
0.0
 11
325.40699999999998
 21
95.590400000000017
 31
0.0
  0
LINE
  5
278
  8
0
 62
     0
 10
325.40699999999998
 20
95.590400000000017
 30
0.0
 11
326.233
 21
95.590400000000017
 31
0.0
  0
LINE
  5
279
  8
0
 62
     0
 10
326.233
 20
95.590400000000017
 30
0.0
 11
326.233
 21
98.391800000000003
 31
0.0
  0
LINE
  5
27A
  8
0
 62
     0
 10
326.233
 20
98.391800000000003
 30
0.0
 11
325.40699999999998
 21
98.391800000000003
 31
0.0
  0
LINE
  5
27B
  8
0
 62
     0
 10
325.40699999999998
 20
98.391800000000003
 30
0.0
 11
325.40699999999998
 21
101.622
 31
0.0
  0
LINE
  5
27C
  8
0
 62
     0
 10
325.40699999999998
 20
101.622
 30
0.0
 11
318.65699999999998
 21
101.622
 31
0.0
  0
LINE
  5
27D
  8
0
 62
     0
 10
318.65699999999998
 20
101.622
 30
0.0
 11
318.65699999999998
 21
98.391800000000003
 31
0.0
  0
LINE
  5
27E
  8
0
 62
     0
 10
318.65699999999998
 20
98.391800000000003
 30
0.0
 11
317.13200000000001
 21
98.391800000000003
 31
0.0
  0
LINE
  5
27F
  8
0
 62
     0
 10
317.13200000000001
 20
98.391800000000003
 30
0.0
 11
317.13200000000001
 21
103.09099999999999
 31
0.0
  0
LINE
  5
280
  8
0
 62
     0
 10
317.13200000000001
 20
103.09099999999999
 30
0.0
 11
303.13200000000001
 21
103.09099999999999
 31
0.0
  0
LINE
  5
281
  8
0
 62
     0
 10
331.70699999999999
 20
103.09099999999999
 30
0.0
 11
345.70699999999999
 21
103.09099999999999
 31
0.0
  0
LINE
  5
282
  8
0
 62
     0
 10
345.70699999999999
 20
103.09099999999999
 30
0.0
 11
345.70699999999999
 21
89.090100000000007
 31
0.0
  0
LINE
  5
283
  8
0
 62
     0
 10
345.70699999999999
 20
89.090100000000007
 30
0.0
 11
331.70699999999999
 21
89.090100000000007
 31
0.0
  0
LINE
  5
284
  8
0
 62
     0
 10
331.70699999999999
 20
89.090100000000007
 30
0.0
 11
331.70699999999999
 21
103.09099999999999
 31
0.0
  0
LINE
  5
285
  8
0
 62
     0
 10
274.55700000000002
 20
103.09099999999999
 30
0.0
 11
288.55700000000002
 21
103.09099999999999
 31
0.0
  0
LINE
  5
286
  8
0
 62
     0
 10
288.55700000000002
 20
103.09099999999999
 30
0.0
 11
288.55700000000002
 21
89.090100000000007
 31
0.0
  0
LINE
  5
287
  8
0
 62
     0
 10
288.55700000000002
 20
89.090100000000007
 30
0.0
 11
274.55700000000002
 21
89.090100000000007
 31
0.0
  0
LINE
  5
288
  8
0
 62
     0
 10
274.55700000000002
 20
89.090100000000007
 30
0.0
 11
274.55700000000002
 21
103.09099999999999
 31
0.0
  0
LINE
  5
289
  8
0
 62
     0
 10
255.506
 20
103.09099999999999
 30
0.0
 11
269.50700000000001
 21
103.09099999999999
 31
0.0
  0
LINE
  5
28A
  8
0
 62
     0
 10
269.50700000000001
 20
103.09099999999999
 30
0.0
 11
269.50700000000001
 21
89.090100000000007
 31
0.0
  0
LINE
  5
28B
  8
0
 62
     0
 10
269.50700000000001
 20
89.090100000000007
 30
0.0
 11
255.506
 21
89.090100000000007
 31
0.0
  0
LINE
  5
28C
  8
0
 62
     0
 10
255.506
 20
89.090100000000007
 30
0.0
 11
255.506
 21
103.09099999999999
 31
0.0
  0
LINE
  5
28D
  8
0
 62
     0
 10
236.45699999999999
 20
103.09099999999999
 30
0.0
 11
250.45699999999999
 21
103.09099999999999
 31
0.0
  0
LINE
  5
28E
  8
0
 62
     0
 10
250.45699999999999
 20
103.09099999999999
 30
0.0
 11
250.45699999999999
 21
89.090100000000007
 31
0.0
  0
LINE
  5
28F
  8
0
 62
     0
 10
250.45699999999999
 20
89.090100000000007
 30
0.0
 11
236.45699999999999
 21
89.090100000000007
 31
0.0
  0
LINE
  5
290
  8
0
 62
     0
 10
236.45699999999999
 20
89.090100000000007
 30
0.0
 11
236.45699999999999
 21
103.09099999999999
 31
0.0
  0
LINE
  5
291
  8
0
 62
     0
 10
217.40700000000001
 20
103.09099999999999
 30
0.0
 11
231.40700000000001
 21
103.09099999999999
 31
0.0
  0
LINE
  5
292
  8
0
 62
     0
 10
231.40700000000001
 20
103.09099999999999
 30
0.0
 11
231.40700000000001
 21
89.090100000000007
 31
0.0
  0
LINE
  5
293
  8
0
 62
     0
 10
231.40700000000001
 20
89.090100000000007
 30
0.0
 11
217.40700000000001
 21
89.090100000000007
 31
0.0
  0
LINE
  5
294
  8
0
 62
     0
 10
217.40700000000001
 20
89.090100000000007
 30
0.0
 11
217.40700000000001
 21
103.09099999999999
 31
0.0
  0
LINE
  5
295
  8
0
 62
     0
 10
198.357
 20
103.09099999999999
 30
0.0
 11
212.357
 21
103.09099999999999
 31
0.0
  0
LINE
  5
296
  8
0
 62
     0
 10
212.357
 20
103.09099999999999
 30
0.0
 11
212.357
 21
89.090100000000007
 31
0.0
  0
LINE
  5
297
  8
0
 62
     0
 10
212.357
 20
89.090100000000007
 30
0.0
 11
198.357
 21
89.090100000000007
 31
0.0
  0
LINE
  5
298
  8
0
 62
     0
 10
198.357
 20
89.090100000000007
 30
0.0
 11
198.357
 21
103.09099999999999
 31
0.0
  0
LINE
  5
299
  8
0
 62
     0
 10
179.30699999999999
 20
103.09099999999999
 30
0.0
 11
193.30699999999999
 21
103.09099999999999
 31
0.0
  0
LINE
  5
29A
  8
0
 62
     0
 10
193.30699999999999
 20
103.09099999999999
 30
0.0
 11
193.30699999999999
 21
89.090100000000007
 31
0.0
  0
LINE
  5
29B
  8
0
 62
     0
 10
193.30699999999999
 20
89.090100000000007
 30
0.0
 11
179.30699999999999
 21
89.090100000000007
 31
0.0
  0
LINE
  5
29C
  8
0
 62
     0
 10
179.30699999999999
 20
89.090100000000007
 30
0.0
 11
179.30699999999999
 21
103.09099999999999
 31
0.0
  0
LINE
  5
29D
  8
0
 62
     0
 10
160.25700000000001
 20
103.09099999999999
 30
0.0
 11
174.25700000000001
 21
103.09099999999999
 31
0.0
  0
LINE
  5
29E
  8
0
 62
     0
 10
174.25700000000001
 20
103.09099999999999
 30
0.0
 11
174.25700000000001
 21
89.090100000000007
 31
0.0
  0
LINE
  5
29F
  8
0
 62
     0
 10
174.25700000000001
 20
89.090100000000007
 30
0.0
 11
160.25700000000001
 21
89.090100000000007
 31
0.0
  0
LINE
  5
2A0
  8
0
 62
     0
 10
160.25700000000001
 20
89.090100000000007
 30
0.0
 11
160.25700000000001
 21
103.09099999999999
 31
0.0
  0
LINE
  5
2A1
  8
0
 62
     0
 10
141.20699999999999
 20
103.09099999999999
 30
0.0
 11
155.20699999999999
 21
103.09099999999999
 31
0.0
  0
LINE
  5
2A2
  8
0
 62
     0
 10
155.20699999999999
 20
103.09099999999999
 30
0.0
 11
155.20699999999999
 21
89.090100000000007
 31
0.0
  0
LINE
  5
2A3
  8
0
 62
     0
 10
155.20699999999999
 20
89.090100000000007
 30
0.0
 11
141.20699999999999
 21
89.090100000000007
 31
0.0
  0
LINE
  5
2A4
  8
0
 62
     0
 10
141.20699999999999
 20
89.090100000000007
 30
0.0
 11
141.20699999999999
 21
103.09099999999999
 31
0.0
  0
LINE
  5
2A5
  8
0
 62
     0
 10
122.157
 20
103.09099999999999
 30
0.0
 11
136.15700000000001
 21
103.09099999999999
 31
0.0
  0
LINE
  5
2A6
  8
0
 62
     0
 10
136.15700000000001
 20
103.09099999999999
 30
0.0
 11
136.15700000000001
 21
89.090100000000007
 31
0.0
  0
LINE
  5
2A7
  8
0
 62
     0
 10
136.15700000000001
 20
89.090100000000007
 30
0.0
 11
122.157
 21
89.090100000000007
 31
0.0
  0
LINE
  5
2A8
  8
0
 62
     0
 10
122.157
 20
89.090100000000007
 30
0.0
 11
122.157
 21
103.09099999999999
 31
0.0
  0
LINE
  5
2A9
  8
0
 62
     0
 10
103.107
 20
103.09099999999999
 30
0.0
 11
117.107
 21
103.09099999999999
 31
0.0
  0
LINE
  5
2AA
  8
0
 62
     0
 10
117.107
 20
103.09099999999999
 30
0.0
 11
117.107
 21
89.090100000000007
 31
0.0
  0
LINE
  5
2AB
  8
0
 62
     0
 10
117.107
 20
89.090100000000007
 30
0.0
 11
103.107
 21
89.090100000000007
 31
0.0
  0
LINE
  5
2AC
  8
0
 62
     0
 10
103.107
 20
89.090100000000007
 30
0.0
 11
103.107
 21
103.09099999999999
 31
0.0
  0
LINE
  5
2AD
  8
0
 62
     0
 10
84.057399999999987
 20
103.09099999999999
 30
0.0
 11
98.057100000000005
 21
103.09099999999999
 31
0.0
  0
LINE
  5
2AE
  8
0
 62
     0
 10
98.057100000000005
 20
103.09099999999999
 30
0.0
 11
98.057100000000005
 21
89.090100000000007
 31
0.0
  0
LINE
  5
2AF
  8
0
 62
     0
 10
98.057100000000005
 20
89.090100000000007
 30
0.0
 11
84.057399999999987
 21
89.090100000000007
 31
0.0
  0
LINE
  5
2B0
  8
0
 62
     0
 10
84.057399999999987
 20
89.090100000000007
 30
0.0
 11
84.057399999999987
 21
103.09099999999999
 31
0.0
  0
LINE
  5
2B1
  8
0
 62
     0
 10
65.007400000000004
 20
103.09099999999999
 30
0.0
 11
79.007099999999994
 21
103.09099999999999
 31
0.0
  0
LINE
  5
2B2
  8
0
 62
     0
 10
79.007099999999994
 20
103.09099999999999
 30
0.0
 11
79.007099999999994
 21
89.090100000000007
 31
0.0
  0
LINE
  5
2B3
  8
0
 62
     0
 10
79.007099999999994
 20
89.090100000000007
 30
0.0
 11
65.007400000000004
 21
89.090100000000007
 31
0.0
  0
LINE
  5
2B4
  8
0
 62
     0
 10
65.007400000000004
 20
89.090100000000007
 30
0.0
 11
65.007400000000004
 21
103.09099999999999
 31
0.0
  0
LINE
  5
2B5
  8
0
 62
     0
 10
45.9574
 20
103.09099999999999
 30
0.0
 11
59.95709999999999
 21
103.09099999999999
 31
0.0
  0
LINE
  5
2B6
  8
0
 62
     0
 10
59.95709999999999
 20
103.09099999999999
 30
0.0
 11
59.95709999999999
 21
89.090100000000007
 31
0.0
  0
LINE
  5
2B7
  8
0
 62
     0
 10
59.95709999999999
 20
89.090100000000007
 30
0.0
 11
45.9574
 21
89.090100000000007
 31
0.0
  0
LINE
  5
2B8
  8
0
 62
     0
 10
45.9574
 20
89.090100000000007
 30
0.0
 11
45.9574
 21
103.09099999999999
 31
0.0
  0
LINE
  5
2BA
  8
0
 62
     0
 10
26.620899999999999
 20
103.09099999999999
 30
0.0
 11
26.620899999999999
 21
89.090100000000007
 31
0.0
  0
LINE
  5
2BB
  8
0
 62
     0
 10
26.620899999999999
 20
89.090100000000007
 30
0.0
 11
12.620100000000001
 21
89.090100000000007
 31
0.0
  0
LINE
  5
2BC
  8
0
 62
     0
 10
12.620100000000001
 20
89.090100000000007
 30
0.0
 11
12.620100000000001
 21
103.09099999999999
 31
0.0
  0
LINE
  5
2BD
  8
0
 62
     0
 10
2.63205
 20
114.042
 30
0.0
 11
2.21313
 21
113.83
 31
0.0
  0
LINE
  5
2BE
  8
0
 62
     0
 10
2.21313
 20
113.83
 30
0.0
 11
1.8810199999999999
 21
113.498
 31
0.0
  0
LINE
  5
2BF
  8
0
 62
     0
 10
1.8810199999999999
 20
113.498
 30
0.0
 11
1.6688000000000001
 21
113.07899999999999
 31
0.0
  0
LINE
  5
2C0
  8
0
 62
     0
 10
1.6688000000000001
 20
113.07899999999999
 30
0.0
 11
1.5943899999999991
 21
112.616
 31
0.0
  0
LINE
  5
2C1
  8
0
 62
     0
 10
1.5943899999999991
 20
112.616
 30
0.0
 11
1.6688000000000001
 21
112.15300000000001
 31
0.0
  0
LINE
  5
2C2
  8
0
 62
     0
 10
1.6688000000000001
 20
112.15300000000001
 30
0.0
 11
1.8810199999999999
 21
111.73399999999999
 31
0.0
  0
LINE
  5
2C3
  8
0
 62
     0
 10
1.8810199999999999
 20
111.73399999999999
 30
0.0
 11
2.21313
 21
111.402
 31
0.0
  0
LINE
  5
2C4
  8
0
 62
     0
 10
2.21313
 20
111.402
 30
0.0
 11
2.63205
 21
111.19
 31
0.0
  0
LINE
  5
2C5
  8
0
 62
     0
 10
2.63205
 20
111.19
 30
0.0
 11
3.0950700000000002
 21
111.11499999999999
 31
0.0
  0
LINE
  5
2C6
  8
0
 62
     0
 10
3.0950700000000002
 20
111.11499999999999
 30
0.0
 11
3.5580799999999999
 21
111.19
 31
0.0
  0
LINE
  5
2C7
  8
0
 62
     0
 10
3.5580799999999999
 20
111.19
 30
0.0
 11
3.977009999999999
 21
111.402
 31
0.0
  0
LINE
  5
2C8
  8
0
 62
     0
 10
3.977009999999999
 20
111.402
 30
0.0
 11
4.3091099999999987
 21
111.73399999999999
 31
0.0
  0
LINE
  5
2C9
  8
0
 62
     0
 10
4.3091099999999987
 20
111.73399999999999
 30
0.0
 11
4.5213400000000004
 21
112.15300000000001
 31
0.0
  0
LINE
  5
2CA
  8
0
 62
     0
 10
4.5213400000000004
 20
112.15300000000001
 30
0.0
 11
4.5943699999999987
 21
112.616
 31
0.0
  0
LINE
  5
2CB
  8
0
 62
     0
 10
4.5943699999999987
 20
112.616
 30
0.0
 11
4.5213400000000004
 21
113.07899999999999
 31
0.0
  0
LINE
  5
2CC
  8
0
 62
     0
 10
4.5213400000000004
 20
113.07899999999999
 30
0.0
 11
4.3091099999999987
 21
113.498
 31
0.0
  0
LINE
  5
2CD
  8
0
 62
     0
 10
4.3091099999999987
 20
113.498
 30
0.0
 11
3.977009999999999
 21
113.83
 31
0.0
  0
LINE
  5
2CE
  8
0
 62
     0
 10
3.977009999999999
 20
113.83
 30
0.0
 11
3.5580799999999999
 21
114.042
 31
0.0
  0
LINE
  5
2CF
  8
0
 62
     0
 10
3.5580799999999999
 20
114.042
 30
0.0
 11
3.0950700000000002
 21
114.11499999999999
 31
0.0
  0
LINE
  5
2D0
  8
0
 62
     0
 10
3.0950700000000002
 20
114.11499999999999
 30
0.0
 11
2.63205
 21
114.042
 31
0.0
  0
LINE
  5
2D1
  8
0
 62
     0
 10
354.767
 20
114.042
 30
0.0
 11
354.351
 21
113.83
 31
0.0
  0
LINE
  5
2D2
  8
0
 62
     0
 10
354.351
 20
113.83
 30
0.0
 11
354.01999999999998
 21
113.498
 31
0.0
  0
LINE
  5
2D3
  8
0
 62
     0
 10
354.01999999999998
 20
113.498
 30
0.0
 11
353.80399999999997
 21
113.07899999999999
 31
0.0
  0
LINE
  5
2D4
  8
0
 62
     0
 10
353.80399999999997
 20
113.07899999999999
 30
0.0
 11
353.73399999999998
 21
112.616
 31
0.0
  0
LINE
  5
2D5
  8
0
 62
     0
 10
353.73399999999998
 20
112.616
 30
0.0
 11
353.80399999999997
 21
112.15300000000001
 31
0.0
  0
LINE
  5
2D6
  8
0
 62
     0
 10
353.80399999999997
 20
112.15300000000001
 30
0.0
 11
354.01999999999998
 21
111.73399999999999
 31
0.0
  0
LINE
  5
2D7
  8
0
 62
     0
 10
354.01999999999998
 20
111.73399999999999
 30
0.0
 11
354.351
 21
111.402
 31
0.0
  0
LINE
  5
2D8
  8
0
 62
     0
 10
354.351
 20
111.402
 30
0.0
 11
354.767
 21
111.19
 31
0.0
  0
LINE
  5
2D9
  8
0
 62
     0
 10
354.767
 20
111.19
 30
0.0
 11
355.233
 21
111.11499999999999
 31
0.0
  0
LINE
  5
2DA
  8
0
 62
     0
 10
355.233
 20
111.11499999999999
 30
0.0
 11
355.69900000000001
 21
111.19
 31
0.0
  0
LINE
  5
2DB
  8
0
 62
     0
 10
355.69900000000001
 20
111.19
 30
0.0
 11
356.11500000000001
 21
111.402
 31
0.0
  0
LINE
  5
2DC
  8
0
 62
     0
 10
356.11500000000001
 20
111.402
 30
0.0
 11
356.447
 21
111.73399999999999
 31
0.0
  0
LINE
  5
2DD
  8
0
 62
     0
 10
356.447
 20
111.73399999999999
 30
0.0
 11
356.66199999999998
 21
112.15300000000001
 31
0.0
  0
LINE
  5
2DE
  8
0
 62
     0
 10
356.66199999999998
 20
112.15300000000001
 30
0.0
 11
356.73200000000003
 21
112.616
 31
0.0
  0
LINE
  5
2DF
  8
0
 62
     0
 10
356.73200000000003
 20
112.616
 30
0.0
 11
356.66199999999998
 21
113.07899999999999
 31
0.0
  0
LINE
  5
2E0
  8
0
 62
     0
 10
356.66199999999998
 20
113.07899999999999
 30
0.0
 11
356.447
 21
113.498
 31
0.0
  0
LINE
  5
2E1
  8
0
 62
     0
 10
356.447
 20
113.498
 30
0.0
 11
356.11500000000001
 21
113.83
 31
0.0
  0
LINE
  5
2E2
  8
0
 62
     0
 10
356.11500000000001
 20
113.83
 30
0.0
 11
355.69900000000001
 21
114.042
 31
0.0
  0
LINE
  5
2E3
  8
0
 62
     0
 10
355.69900000000001
 20
114.042
 30
0.0
 11
355.233
 21
114.11499999999999
 31
0.0
  0
LINE
  5
2E4
  8
0
 62
     0
 10
355.233
 20
114.11499999999999
 30
0.0
 11
354.767
 21
114.042
 31
0.0
  0
LINE
  5
2E5
  8
0
 62
     0
 10
237.39099999999999
 20
114.042
 30
0.0
 11
236.97300000000001
 21
113.83
 31
0.0
  0
LINE
  5
2E6
  8
0
 62
     0
 10
236.97300000000001
 20
113.83
 30
0.0
 11
236.64099999999999
 21
113.498
 31
0.0
  0
LINE
  5
2E7
  8
0
 62
     0
 10
236.64099999999999
 20
113.498
 30
0.0
 11
236.42699999999999
 21
113.07899999999999
 31
0.0
  0
LINE
  5
2E8
  8
0
 62
     0
 10
236.42699999999999
 20
113.07899999999999
 30
0.0
 11
236.35400000000001
 21
112.616
 31
0.0
  0
LINE
  5
2E9
  8
0
 62
     0
 10
236.35400000000001
 20
112.616
 30
0.0
 11
236.42699999999999
 21
112.15300000000001
 31
0.0
  0
LINE
  5
2EA
  8
0
 62
     0
 10
236.42699999999999
 20
112.15300000000001
 30
0.0
 11
236.64099999999999
 21
111.73399999999999
 31
0.0
  0
LINE
  5
2EB
  8
0
 62
     0
 10
236.64099999999999
 20
111.73399999999999
 30
0.0
 11
236.97300000000001
 21
111.402
 31
0.0
  0
LINE
  5
2EC
  8
0
 62
     0
 10
236.97300000000001
 20
111.402
 30
0.0
 11
237.39099999999999
 21
111.19
 31
0.0
  0
LINE
  5
2ED
  8
0
 62
     0
 10
237.39099999999999
 20
111.19
 30
0.0
 11
237.85499999999999
 21
111.11499999999999
 31
0.0
  0
LINE
  5
2EE
  8
0
 62
     0
 10
237.85499999999999
 20
111.11499999999999
 30
0.0
 11
238.31800000000001
 21
111.19
 31
0.0
  0
LINE
  5
2EF
  8
0
 62
     0
 10
238.31800000000001
 20
111.19
 30
0.0
 11
238.73500000000001
 21
111.402
 31
0.0
  0
LINE
  5
2F0
  8
0
 62
     0
 10
238.73500000000001
 20
111.402
 30
0.0
 11
239.06800000000001
 21
111.73399999999999
 31
0.0
  0
LINE
  5
2F1
  8
0
 62
     0
 10
239.06800000000001
 20
111.73399999999999
 30
0.0
 11
239.28
 21
112.15300000000001
 31
0.0
  0
LINE
  5
2F2
  8
0
 62
     0
 10
239.28
 20
112.15300000000001
 30
0.0
 11
239.35400000000001
 21
112.616
 31
0.0
  0
LINE
  5
2F3
  8
0
 62
     0
 10
239.35400000000001
 20
112.616
 30
0.0
 11
239.28
 21
113.07899999999999
 31
0.0
  0
LINE
  5
2F4
  8
0
 62
     0
 10
239.28
 20
113.07899999999999
 30
0.0
 11
239.06800000000001
 21
113.498
 31
0.0
  0
LINE
  5
2F5
  8
0
 62
     0
 10
239.06800000000001
 20
113.498
 30
0.0
 11
238.73500000000001
 21
113.83
 31
0.0
  0
LINE
  5
2F6
  8
0
 62
     0
 10
238.73500000000001
 20
113.83
 30
0.0
 11
238.31800000000001
 21
114.042
 31
0.0
  0
LINE
  5
2F7
  8
0
 62
     0
 10
238.31800000000001
 20
114.042
 30
0.0
 11
237.85499999999999
 21
114.11499999999999
 31
0.0
  0
LINE
  5
2F8
  8
0
 62
     0
 10
237.85499999999999
 20
114.11499999999999
 30
0.0
 11
237.39099999999999
 21
114.042
 31
0.0
  0
LINE
  5
2F9
  8
0
 62
     0
 10
120.011
 20
114.042
 30
0.0
 11
119.593
 21
113.83
 31
0.0
  0
LINE
  5
2FA
  8
0
 62
     0
 10
119.593
 20
113.83
 30
0.0
 11
119.261
 21
113.498
 31
0.0
  0
LINE
  5
2FB
  8
0
 62
     0
 10
119.261
 20
113.498
 30
0.0
 11
119.047
 21
113.07899999999999
 31
0.0
  0
LINE
  5
2FC
  8
0
 62
     0
 10
119.047
 20
113.07899999999999
 30
0.0
 11
118.974
 21
112.616
 31
0.0
  0
LINE
  5
2FD
  8
0
 62
     0
 10
118.974
 20
112.616
 30
0.0
 11
119.047
 21
112.15300000000001
 31
0.0
  0
LINE
  5
2FE
  8
0
 62
     0
 10
119.047
 20
112.15300000000001
 30
0.0
 11
119.261
 21
111.73399999999999
 31
0.0
  0
LINE
  5
2FF
  8
0
 62
     0
 10
119.261
 20
111.73399999999999
 30
0.0
 11
119.593
 21
111.402
 31
0.0
  0
LINE
  5
300
  8
0
 62
     0
 10
119.593
 20
111.402
 30
0.0
 11
120.011
 21
111.19
 31
0.0
  0
LINE
  5
301
  8
0
 62
     0
 10
120.011
 20
111.19
 30
0.0
 11
120.47499999999999
 21
111.11499999999999
 31
0.0
  0
LINE
  5
302
  8
0
 62
     0
 10
120.47499999999999
 20
111.11499999999999
 30
0.0
 11
120.938
 21
111.19
 31
0.0
  0
LINE
  5
303
  8
0
 62
     0
 10
120.938
 20
111.19
 30
0.0
 11
121.357
 21
111.402
 31
0.0
  0
LINE
  5
304
  8
0
 62
     0
 10
121.357
 20
111.402
 30
0.0
 11
121.68899999999999
 21
111.73399999999999
 31
0.0
  0
LINE
  5
305
  8
0
 62
     0
 10
121.68899999999999
 20
111.73399999999999
 30
0.0
 11
121.901
 21
112.15300000000001
 31
0.0
  0
LINE
  5
306
  8
0
 62
     0
 10
121.901
 20
112.15300000000001
 30
0.0
 11
121.974
 21
112.616
 31
0.0
  0
LINE
  5
307
  8
0
 62
     0
 10
121.974
 20
112.616
 30
0.0
 11
121.901
 21
113.07899999999999
 31
0.0
  0
LINE
  5
308
  8
0
 62
     0
 10
121.901
 20
113.07899999999999
 30
0.0
 11
121.68899999999999
 21
113.498
 31
0.0
  0
LINE
  5
309
  8
0
 62
     0
 10
121.68899999999999
 20
113.498
 30
0.0
 11
121.357
 21
113.83
 31
0.0
  0
LINE
  5
30A
  8
0
 62
     0
 10
121.357
 20
113.83
 30
0.0
 11
120.938
 21
114.042
 31
0.0
  0
LINE
  5
30B
  8
0
 62
     0
 10
120.938
 20
114.042
 30
0.0
 11
120.47499999999999
 21
114.11499999999999
 31
0.0
  0
LINE
  5
30C
  8
0
 62
     0
 10
120.47499999999999
 20
114.11499999999999
 30
0.0
 11
120.011
 21
114.042
 31
0.0
  0
POLYLINE
  5
35D
  8
0
  6
CONTINUOUS
 66
     1
 10
0.0
 20
0.0
 30
0.0
 70
     1
  0
VERTEX
  5
3BE
  8
0
  6
CONTINUOUS
 10
26.620899999999999
 20
31.940200000000001
 30
0.0
  0
VERTEX
  5
3BF
  8
0
  6
CONTINUOUS
 10
12.620100000000001
 20
31.940200000000001
 30
0.0
  0
VERTEX
  5
3C0
  8
0
  6
CONTINUOUS
 10
12.620100000000001
 20
45.941200000000002
 30
0.0
  0
VERTEX
  5
3C1
  8
0
  6
CONTINUOUS
 10
26.620899999999999
 20
45.941200000000002
 30
0.0
  0
SEQEND
  5
3C2
  8
0
  6
CONTINUOUS
  0
POLYLINE
  5
35F
  8
0
  6
CONTINUOUS
 66
     1
 10
0.0
 20
0.0
 30
0.0
 70
     1
  0
VERTEX
  5
3C3
  8
0
  6
CONTINUOUS
 10
26.620899999999999
 20
12.8902
 30
0.0
  0
VERTEX
  5
3C4
  8
0
  6
CONTINUOUS
 10
12.620100000000001
 20
12.8902
 30
0.0
  0
VERTEX
  5
3C5
  8
0
  6
CONTINUOUS
 10
12.620100000000001
 20
26.891100000000002
 30
0.0
  0
VERTEX
  5
3C6
  8
0
  6
CONTINUOUS
 10
26.620899999999999
 20
26.891100000000002
 30
0.0
  0
SEQEND
  5
3C7
  8
0
  6
CONTINUOUS
  0
POLYLINE
  5
368
  8
0
  6
CONTINUOUS
 66
     1
 10
0.0
 20
0.0
 30
0.0
 70
     1
  0
VERTEX
  5
3CB
  8
0
  6
CONTINUOUS
 10
361.23200000000003
 20
112.6604817440809
 30
0.0
  0
VERTEX
  5
3CC
  8
0
  6
CONTINUOUS
 10
361.2195133334875
 20
113.0814607865065
 30
0.0
  0
VERTEX
  5
3CD
  8
0
  6
CONTINUOUS
 10
361.1603210531772
 20
113.5590812552169
 30
0.0
  0
VERTEX
  5
3CE
  8
0
  6
CONTINUOUS
 10
361.07166450546009
 20
114.0122147213249
 30
0.0
  0
VERTEX
  5
3CF
  8
0
  6
CONTINUOUS
 10
360.94327783133713
 20
114.4675862061036
 30
0.0
  0
VERTEX
  5
3D0
  8
0
  6
CONTINUOUS
 10
360.78042251884739
 20
114.9119198364787
 30
0.0
  0
VERTEX
  5
3D1
  8
0
  6
CONTINUOUS
 10
360.57963065783912
 20
115.3459547683544
 30
0.0
  0
VERTEX
  5
3D2
  8
0
  6
CONTINUOUS
 10
360.34884371658381
 20
115.7558005433432
 30
0.0
  0
VERTEX
  5
3D3
  8
0
  6
CONTINUOUS
 10
360.09395334534707
 20
116.1371632361851
 30
0.0
  0
VERTEX
  5
3D4
  8
0
  6
CONTINUOUS
 10
359.79648603910658
 20
116.51932609489729
 30
0.0
  0
VERTEX
  5
3D5
  8
0
  6
CONTINUOUS
 10
359.46571835087781
 20
116.8703862793368
 30
0.0
  0
VERTEX
  5
3D6
  8
0
  6
CONTINUOUS
 10
359.13655965665549
 20
117.17481050520691
 30
0.0
  0
VERTEX
  5
3D7
  8
0
  6
CONTINUOUS
 10
358.75950195453538
 20
117.47563249706231
 30
0.0
  0
VERTEX
  5
3D8
  8
0
  6
CONTINUOUS
 10
358.36531523881052
 20
117.7344419568816
 30
0.0
  0
VERTEX
  5
3D9
  8
0
  6
CONTINUOUS
 10
357.95627688275317
 20
117.9670323946398
 30
0.0
  0
VERTEX
  5
3DA
  8
0
  6
CONTINUOUS
 10
357.52955249929749
 20
118.1595545583387
 30
0.0
  0
VERTEX
  5
3DB
  8
0
  6
CONTINUOUS
 10
357.0972917714239
 20
118.32337940040929
 30
0.0
  0
VERTEX
  5
3DC
  8
0
  6
CONTINUOUS
 10
356.6353134184522
 20
118.4521609766803
 30
0.0
  0
VERTEX
  5
3DD
  8
0
  6
CONTINUOUS
 10
356.16584622085389
 20
118.5468603684704
 30
0.0
  0
VERTEX
  5
3DE
  8
0
  6
CONTINUOUS
 10
355.69912389557578
 20
118.598940971291
 30
0.0
  0
VERTEX
  5
3DF
  8
0
  6
CONTINUOUS
 10
355.29653081804452
 20
118.616
 30
0.0
  0
VERTEX
  5
3E0
  8
0
  6
CONTINUOUS
 10
3.0314422096958529
 20
118.616
 30
0.0
  0
VERTEX
  5
3E1
  8
0
  6
CONTINUOUS
 10
2.6301061959271381
 20
118.59896825607839
 30
0.0
  0
VERTEX
  5
3E2
  8
0
  6
CONTINUOUS
 10
2.1585847779285512
 20
118.5466373692044
 30
0.0
  0
VERTEX
  5
3E3
  8
0
  6
CONTINUOUS
 10
1.6935319958588151
 20
118.4516585278657
 30
0.0
  0
VERTEX
  5
3E4
  8
0
  6
CONTINUOUS
 10
1.236790723018345
 20
118.3251095781383
 30
0.0
  0
VERTEX
  5
3E5
  8
0
  6
CONTINUOUS
 10
0.7972156798103929
 20
118.1596309470324
 30
0.0
  0
VERTEX
  5
3E6
  8
0
  6
CONTINUOUS
 10
0.3767913459239196
 20
117.96870791151289
 30
0.0
  0
VERTEX
  5
3E7
  8
0
  6
CONTINUOUS
 10
-0.039476241525484
 20
117.7350986219909
 30
0.0
  0
VERTEX
  5
3E8
  8
0
  6
CONTINUOUS
 10
-0.4321754916786354
 20
117.4742088912067
 30
0.0
  0
VERTEX
  5
3E9
  8
0
  6
CONTINUOUS
 10
-0.8030246352449255
 20
117.1809998856795
 30
0.0
  0
VERTEX
  5
3EA
  8
0
  6
CONTINUOUS
 10
-1.1486896993768161
 20
116.8624806254966
 30
0.0
  0
VERTEX
  5
3EB
  8
0
  6
CONTINUOUS
 10
-1.4693567533622769
 20
116.5154361882427
 30
0.0
  0
VERTEX
  5
3EC
  8
0
  6
CONTINUOUS
 10
-1.7660178609389261
 20
116.13971270513051
 30
0.0
  0
VERTEX
  5
3ED
  8
0
  6
CONTINUOUS
 10
-2.0249680113882431
 20
115.7478970748184
 30
0.0
  0
VERTEX
  5
3EE
  8
0
  6
CONTINUOUS
 10
-2.254810016091624
 20
115.33887254093401
 30
0.0
  0
VERTEX
  5
3EF
  8
0
  6
CONTINUOUS
 10
-2.4487165932632542
 20
114.9147514502273
 30
0.0
  0
VERTEX
  5
3F0
  8
0
  6
CONTINUOUS
 10
-2.6137038535610722
 20
114.47375843450649
 30
0.0
  0
VERTEX
  5
3F1
  8
0
  6
CONTINUOUS
 10
-2.7404860196375389
 20
114.019750677773
 30
0.0
  0
VERTEX
  5
3F2
  8
0
  6
CONTINUOUS
 10
-2.835537027250699
 20
113.5531480749294
 30
0.0
  0
VERTEX
  5
3F3
  8
0
  6
CONTINUOUS
 10
-2.8884405955441488
 20
113.08034377516741
 30
0.0
  0
VERTEX
  5
3F4
  8
0
  6
CONTINUOUS
 10
-2.9049153999999988
 20
112.67728627686949
 30
0.0
  0
VERTEX
  5
3F5
  8
0
  6
CONTINUOUS
 10
-2.9049154000000059
 20
3.3037927735837509
 30
0.0
  0
VERTEX
  5
3F6
  8
0
  6
CONTINUOUS
 10
-2.8884380080099161
 20
2.9012698196876539
 30
0.0
  0
VERTEX
  5
3F7
  8
0
  6
CONTINUOUS
 10
-2.835592272033316
 20
2.4284576090976531
 30
0.0
  0
VERTEX
  5
3F8
  8
0
  6
CONTINUOUS
 10
-2.7406603879667122
 20
1.962176378861648
 30
0.0
  0
VERTEX
  5
3F9
  8
0
  6
CONTINUOUS
 10
-2.6136255837635751
 20
1.5065023959035779
 30
0.0
  0
VERTEX
  5
3FA
  8
0
  6
CONTINUOUS
 10
-2.4478600274664539
 20
1.0644515564468719
 30
0.0
  0
VERTEX
  5
3FB
  8
0
  6
CONTINUOUS
 10
-2.2551945220203371
 20
0.6438523607371788
 30
0.0
  0
VERTEX
  5
3FC
  8
0
  6
CONTINUOUS
 10
-2.0256320278568558
 20
0.233917210650986
 30
0.0
  0
VERTEX
  5
3FD
  8
0
  6
CONTINUOUS
 10
-1.764575507392125
 20
-0.1604406506735096
 30
0.0
  0
VERTEX
  5
3FE
  8
0
  6
CONTINUOUS
 10
-1.4701327103219071
 20
-0.5326692717344559
 30
0.0
  0
VERTEX
  5
3FF
  8
0
  6
CONTINUOUS
 10
-1.150215670957498
 20
-0.8801628472818827
 30
0.0
  0
VERTEX
  5
400
  8
0
  6
CONTINUOUS
 10
-0.8027463574672324
 20
-1.200044494874658
 30
0.0
  0
VERTEX
  5
401
  8
0
  6
CONTINUOUS
 10
-0.4305431720783227
 20
-1.4944732184883609
 30
0.0
  0
VERTEX
  5
402
  8
0
  6
CONTINUOUS
 10
-0.0361847827321287
 20
-1.755530088492155
 30
0.0
  0
VERTEX
  5
403
  8
0
  6
CONTINUOUS
 10
0.3737472995650475
 20
-1.9850960210235631
 30
0.0
  0
VERTEX
  5
404
  8
0
  6
CONTINUOUS
 10
0.794360657197317
 20
-2.1777649009430431
 30
0.0
  0
VERTEX
  5
405
  8
0
  6
CONTINUOUS
 10
1.236386580518122
 20
-2.343524622188375
 30
0.0
  0
VERTEX
  5
406
  8
0
  6
CONTINUOUS
 10
1.6920764095463481
 20
-2.4705658481182251
 30
0.0
  0
VERTEX
  5
407
  8
0
  6
CONTINUOUS
 10
2.1583645722464539
 20
-2.5654971173956951
 30
0.0
  0
VERTEX
  5
408
  8
0
  6
CONTINUOUS
 10
2.6311868285982909
 20
-2.6183437386460362
 30
0.0
  0
VERTEX
  5
409
  8
0
  6
CONTINUOUS
 10
3.0336990717758092
 20
-2.6348189999999998
 30
0.0
  0
VERTEX
  5
40A
  8
0
  6
CONTINUOUS
 10
355.29427738969719
 20
-2.6348189999999998
 30
0.0
  0
VERTEX
  5
40B
  8
0
  6
CONTINUOUS
 10
355.6980529918809
 20
-2.6183172386310898
 30
0.0
  0
VERTEX
  5
40C
  8
0
  6
CONTINUOUS
 10
356.16608356125471
 20
-2.5657210479508779
 30
0.0
  0
VERTEX
  5
40D
  8
0
  6
CONTINUOUS
 10
356.63679317058052
 20
-2.4710700324310819
 30
0.0
  0
VERTEX
  5
40E
  8
0
  6
CONTINUOUS
 10
357.09769723645837
 20
-2.3417905207494041
 30
0.0
  0
VERTEX
  5
40F
  8
0
  6
CONTINUOUS
 10
357.53237280005021
 20
-2.1776856093438202
 30
0.0
  0
VERTEX
  5
410
  8
0
  6
CONTINUOUS
 10
357.9592802777197
 20
-1.9834069659131941
 30
0.0
  0
VERTEX
  5
411
  8
0
  6
CONTINUOUS
 10
358.36203003027782
 20
-1.754878069552706
 30
0.0
  0
VERTEX
  5
412
  8
0
  6
CONTINUOUS
 10
358.75788640473758
 20
-1.495900032572506
 30
0.0
  0
VERTEX
  5
413
  8
0
  6
CONTINUOUS
 10
359.13628326083278
 20
-1.193856631713041
 30
0.0
  0
VERTEX
  5
414
  8
0
  6
CONTINUOUS
 10
359.46723791005508
 20
-0.8880583618976954
 30
0.0
  0
VERTEX
  5
415
  8
0
  6
CONTINUOUS
 10
359.79724355280609
 20
-0.5365314922598264
 30
0.0
  0
VERTEX
  5
416
  8
0
  6
CONTINUOUS
 10
360.0925115501675
 20
-0.1578912950878475
 30
0.0
  0
VERTEX
  5
417
  8
0
  6
CONTINUOUS
 10
360.34951540502101
 20
0.2260057607729007
 30
0.0
  0
VERTEX
  5
418
  8
0
  6
CONTINUOUS
 10
360.58002012909378
 20
0.6367612048519196
 30
0.0
  0
VERTEX
  5
419
  8
0
  6
CONTINUOUS
 10
360.77957231820938
 20
1.067290013672161
 30
0.0
  0
VERTEX
  5
41A
  8
0
  6
CONTINUOUS
 10
360.94319939404397
 20
1.512699074792111
 30
0.0
  0
VERTEX
  5
41B
  8
0
  6
CONTINUOUS
 10
361.0718337779623
 20
1.969712921907101
 30
0.0
  0
VERTEX
  5
41C
  8
0
  6
CONTINUOUS
 10
361.1603797601569
 20
2.422537074851467
 30
0.0
  0
VERTEX
  5
41D
  8
0
  6
CONTINUOUS
 10
361.21951124224688
 20
2.9001971091409411
 30
0.0
  0
VERTEX
  5
41E
  8
0
  6
CONTINUOUS
 10
361.23200000000003
 20
3.3206222183560912
 30
0.0
  0
SEQEND
  5
41F
  8
0
  6
CONTINUOUS
  0
LINE
  5
36B
  8
0
  6
CONTINUOUS
 10
236.45699999999999
 20
12.8902
 30
0.0
 11
250.45699999999999
 21
12.8902
 31
0.0
  0
LINE
  5
36C
  8
0
  6
CONTINUOUS
 10
12.620100000000001
 20
103.09099999999999
 30
0.0
 11
26.620899999999999
 21
103.09099999999999
 31
0.0
  0
ENDSEC
  0
EOF
